NunitoSans-CondensedRegular.ufo
<glyph name="numbersign" format="2">
  <advance width="521.7590361445783"/>
  <unicode hex="0023"/>
  <outline>
    <contour>
      <point x="78.24096385542168" y="0.0" type="line"/>
      <point x="134.03614457831324" y="0.0" type="line"/>
      <point x="163.33132530120483" y="183.77710843373495" type="line"/>
      <point x="305.2530120481928" y="183.77710843373495" type="line"/>
      <point x="275.95783132530124" y="0.0" type="line"/>
      <point x="331.9879518072289" y="0.0" type="line"/>
      <point x="361.0481927710843" y="183.77710843373495" type="line"/>
      <point x="474.70481927710847" y="183.77710843373495" type="line"/>
      <point x="474.70481927710847" y="239.16265060240963" type="line"/>
      <point x="369.16265060240966" y="239.16265060240963" type="line"/>
      <point x="406.3433734939759" y="473.83734939759034" type="line"/>
      <point x="490.644578313253" y="473.83734939759034" type="line"/>
      <point x="490.644578313253" y="529.222891566265" type="line"/>
      <point x="414.6927710843374" y="529.222891566265" type="line"/>
      <point x="442.9879518072289" y="705.0" type="line"/>
      <point x="386.95783132530124" y="705.0" type="line"/>
      <point x="358.8975903614458" y="529.222891566265" type="line"/>
      <point x="217.21084337349396" y="529.222891566265" type="line"/>
      <point x="245.2710843373494" y="705.0" type="line"/>
      <point x="189.24096385542168" y="705.0" type="line"/>
      <point x="161.4156626506024" y="529.222891566265" type="line"/>
      <point x="47.05421686746988" y="529.222891566265" type="line"/>
      <point x="47.05421686746988" y="473.83734939759034" type="line"/>
      <point x="153.06626506024097" y="473.83734939759034" type="line"/>
      <point x="115.8855421686747" y="239.16265060240963" type="line"/>
      <point x="31.114457831325304" y="239.16265060240963" type="line"/>
      <point x="31.114457831325304" y="183.77710843373495" type="line"/>
      <point x="107.30120481927712" y="183.77710843373495" type="line"/>
    </contour>
    <contour>
      <point x="171.68072289156626" y="239.16265060240963" type="line"/>
      <point x="209.0963855421687" y="473.83734939759034" type="line"/>
      <point x="350.3132530120482" y="473.83734939759034" type="line"/>
      <point x="312.8975903614458" y="239.16265060240963" type="line"/>
    </contour>
  </outline>
</glyph>
<glyph name="dollar" format="2">
  <advance width="498.0"/>
  <unicode hex="0024"/>
  <outline>
    <contour>
      <point x="226.3132530120482" y="-115.0" type="line"/>
      <point x="287.6867469879518" y="-115.0" type="line"/>
      <point x="287.6867469879518" y="13.05421686746988" type="line"/>
      <point x="267.5240963855422" y="-4.704819277108434" type="line"/>
      <point x="379.3373493975904" y="2.1144578313253017"/>
      <point x="455.6867469879519" y="75.3433734939759"/>
      <point x="455.6867469879519" y="191.5722891566265" type="curve" smooth="yes"/>
      <point x="455.6867469879519" y="286.1566265060241"/>
      <point x="406.45180722891564" y="340.44578313253015"/>
      <point x="302.566265060241" y="367.21084337349396" type="curve" smooth="yes"/>
      <point x="219.63253012048193" y="387.62048192771084" type="line" smooth="yes"/>
      <point x="157.49397590361446" y="404.8614457831325"/>
      <point x="127.25301204819277" y="441.7530120481928"/>
      <point x="127.25301204819277" y="507.5361445783132" type="curve" smooth="yes"/>
      <point x="127.25301204819277" y="589.4397590361447"/>
      <point x="179.9698795180723" y="643.5722891566265"/>
      <point x="257.51807228915663" y="643.5722891566265" type="curve" smooth="yes"/>
      <point x="319.1144578313253" y="643.5722891566265"/>
      <point x="372.69879518072287" y="619.5120481927711"/>
      <point x="414.87951807228916" y="565.5" type="curve"/>
      <point x="439.16265060240966" y="623.8132530120481" type="line"/>
      <point x="396.86746987951807" y="678.7048192771084"/>
      <point x="334.8072289156627" y="705.5301204819277"/>
      <point x="276.9277108433735" y="708.7048192771084" type="curve"/>
      <point x="287.6867469879518" y="695.2951807228916" type="line"/>
      <point x="287.6867469879518" y="820.0" type="line"/>
      <point x="226.3132530120482" y="820.0" type="line"/>
      <point x="226.3132530120482" y="695.2951807228916" type="line"/>
      <point x="235.30722891566262" y="708.5301204819277" type="line"/>
      <point x="125.42771084337349" y="702.5963855421687"/>
      <point x="52.66265060240964" y="619.421686746988"/>
      <point x="52.66265060240964" y="503.7771084337349" type="curve" smooth="yes"/>
      <point x="52.66265060240964" y="404.6024096385542"/>
      <point x="100.77710843373494" y="347.1927710843373"/>
      <point x="197.83734939759034" y="322.1927710843373" type="curve" smooth="yes"/>
      <point x="279.7710843373494" y="300.78313253012044" type="line" smooth="yes"/>
      <point x="352.144578313253" y="281.3072289156627"/>
      <point x="380.50602409638554" y="247.53614457831327"/>
      <point x="380.50602409638554" y="185.1686746987952" type="curve" smooth="yes"/>
      <point x="380.50602409638554" y="110.56024096385542"/>
      <point x="335.6144578313253" y="61.4277108433735"/>
      <point x="248.18072289156626" y="61.4277108433735" type="curve" smooth="yes"/>
      <point x="173.81927710843374" y="61.4277108433735"/>
      <point x="117.24096385542168" y="85.66265060240964"/>
      <point x="66.18072289156626" y="138.02409638554218" type="curve"/>
      <point x="40.60240963855422" y="78.12650602409639" type="line"/>
      <point x="93.36746987951807" y="22.46987951807229"/>
      <point x="164.77710843373492" y="-3.5301204819277108"/>
      <point x="241.07228915662648" y="-4.9397590361445785" type="curve"/>
      <point x="226.3132530120482" y="12.05421686746988" type="line"/>
    </contour>
  </outline>
</glyph>
<glyph name="ampersand" format="2">
  <advance width="578.6084337349397"/>
  <unicode hex="0026"/>
  <outline>
    <contour>
      <point x="236.6325301204819" y="-8.939759036144578" type="curve" smooth="yes"/>
      <point x="316.8734939759036" y="-8.939759036144578"/>
      <point x="381.10843373493975" y="26.771084337349397"/>
      <point x="426.22289156626505" y="94.25301204819277" type="curve"/>
      <point x="413.578313253012" y="94.01807228915663" type="line"/>
      <point x="481.4698795180723" y="0.0" type="line"/>
      <point x="569.4036144578314" y="0.0" type="line"/>
      <point x="450.90361445783134" y="153.1566265060241" type="line"/>
      <point x="451.49397590361446" y="128.05421686746988" type="line"/>
      <point x="488.89759036144574" y="197.4036144578313"/>
      <point x="510.9518072289157" y="293.4578313253012"/>
      <point x="513.7168674698795" y="411.2228915662651" type="curve"/>
      <point x="450.69879518072287" y="411.2228915662651" type="line"/>
      <point x="448.2289156626506" y="313.62048192771084"/>
      <point x="434.22891566265054" y="236.02409638554218"/>
      <point x="410.8734939759036" y="177.60843373493978" type="curve"/>
      <point x="427.7469879518072" y="180.54819277108436" type="line"/>
      <point x="272.1385542168675" y="392.0602409638554" type="line"/>
      <point x="265.7951807228916" y="371.7831325301205" type="line"/>
      <point x="358.144578313253" y="439.144578313253"/>
      <point x="397.078313253012" y="500.0783132530121"/>
      <point x="397.078313253012" y="578.3674698795181" type="curve" smooth="yes"/>
      <point x="397.078313253012" y="662.2409638554217"/>
      <point x="348.61445783132535" y="713.9397590361446"/>
      <point x="260.6927710843374" y="713.9397590361446" type="curve" smooth="yes"/>
      <point x="176.8855421686747" y="713.9397590361446"/>
      <point x="119.83734939759034" y="655.0060240963855"/>
      <point x="119.83734939759034" y="567.722891566265" type="curve" smooth="yes"/>
      <point x="119.83734939759034" y="513.0783132530121"/>
      <point x="143.6024096385542" y="456.01807228915663"/>
      <point x="196.95783132530119" y="383.89156626506025" type="curve"/>
      <point x="200.83734939759037" y="398.28915662650604" type="line"/>
      <point x="189.13253012048193" y="389.5240963855421" type="line" smooth="yes"/>
      <point x="91.12048192771084" y="314.03614457831327"/>
      <point x="54.7710843373494" y="251.16265060240963"/>
      <point x="54.7710843373494" y="167.63253012048193" type="curve" smooth="yes"/>
      <point x="54.7710843373494" y="58.63855421686747"/>
      <point x="124.28915662650603" y="-8.939759036144578"/>
    </contour>
    <contour>
      <point x="244.74096385542168" y="50.07831325301205" type="curve" smooth="yes"/>
      <point x="169.3132530120482" y="50.07831325301205"/>
      <point x="126.48192771084337" y="94.84939759036145"/>
      <point x="126.48192771084337" y="173.09638554216866" type="curve" smooth="yes"/>
      <point x="126.48192771084337" y="233.99397590361446"/>
      <point x="148.8433734939759" y="278.12048192771084"/>
      <point x="224.39759036144576" y="341.31927710843377" type="curve" smooth="yes"/>
      <point x="239.69277108433732" y="354.5542168674699" type="line"/>
      <point x="220.35542168674698" y="354.0240963855422" type="line"/>
      <point x="390.54216867469876" y="121.6987951807229" type="line"/>
      <point x="390.2469879518072" y="141.40361445783134" type="line"/>
      <point x="357.53614457831327" y="80.03012048192771"/>
      <point x="310.05421686746985" y="50.07831325301205"/>
    </contour>
    <contour>
      <point x="262.3975903614458" y="658.9156626506024" type="curve" smooth="yes"/>
      <point x="305.87951807228916" y="658.9156626506024"/>
      <point x="331.94578313253015" y="628.0843373493976"/>
      <point x="331.94578313253015" y="574.3674698795181" type="curve" smooth="yes"/>
      <point x="331.94578313253015" y="508.367469879518"/>
      <point x="304.7710843373494" y="473.5903614457831"/>
      <point x="231.34939759036146" y="417.51807228915663" type="curve"/>
      <point x="253.09036144578312" y="415.4036144578313" type="line"/>
      <point x="208.9036144578313" y="475.5963855421687"/>
      <point x="187.5542168674699" y="517.3072289156627"/>
      <point x="187.5542168674699" y="567.0120481927711" type="curve" smooth="yes"/>
      <point x="187.5542168674699" y="623.5542168674699"/>
      <point x="216.38554216867468" y="658.9156626506024"/>
    </contour>
  </outline>
</glyph>
<glyph name="quotesingle" format="2">
  <advance width="194.21084337349396"/>
  <unicode hex="0027"/>
  <outline>
    <contour>
      <point x="72.24096385542168" y="430.9578313253012" type="line"/>
      <point x="121.96987951807229" y="430.9578313253012" type="line"/>
      <point x="139.95783132530119" y="705.0" type="line"/>
      <point x="54.72289156626506" y="705.0" type="line"/>
    </contour>
  </outline>
</glyph>
<glyph name="parenleft" format="2">
  <advance width="275.18674698795184"/>
  <unicode hex="0028"/>
  <outline>
    <contour>
      <point x="189.74698795180723" y="-192.34939759036143" type="curve"/>
      <point x="242.12650602409641" y="-172.71686746987953" type="line"/>
      <point x="190.1265060240964" y="-28.30722891566265"/>
      <point x="165.47590361445785" y="111.82530120481928"/>
      <point x="165.47590361445785" y="263.0" type="curve" smooth="yes"/>
      <point x="165.47590361445785" y="414.644578313253"/>
      <point x="190.1265060240964" y="554.3072289156627"/>
      <point x="242.12650602409641" y="698.7168674698795" type="curve"/>
      <point x="189.74698795180723" y="718.3493975903615" type="line"/>
      <point x="120.58433734939759" y="571.0481927710844"/>
      <point x="87.65060240963855" y="424.10843373493975"/>
      <point x="87.65060240963855" y="263.0" type="curve" smooth="yes"/>
      <point x="87.65060240963855" y="102.36144578313252"/>
      <point x="120.58433734939759" y="-45.28313253012048"/>
    </contour>
  </outline>
</glyph>
<glyph name="parenright" format="2">
  <advance width="275.18674698795184"/>
  <unicode hex="0029"/>
  <outline>
    <contour>
      <point x="85.43975903614458" y="-192.1144578313253" type="line"/>
      <point x="154.6024096385542" y="-45.04819277108433"/>
      <point x="187.53614457831324" y="102.36144578313252"/>
      <point x="187.53614457831324" y="263.0" type="curve" smooth="yes"/>
      <point x="187.53614457831324" y="423.8734939759036"/>
      <point x="154.6024096385542" y="571.0481927710844"/>
      <point x="85.43975903614458" y="718.1144578313254" type="curve"/>
      <point x="33.06024096385542" y="698.4819277108434" type="line"/>
      <point x="84.82530120481927" y="554.0722891566265"/>
      <point x="110.18072289156626" y="414.4096385542169"/>
      <point x="110.18072289156626" y="263.0" type="curve" smooth="yes"/>
      <point x="110.18072289156626" y="111.59036144578313"/>
      <point x="84.82530120481927" y="-28.072289156626507"/>
      <point x="33.06024096385542" y="-172.48192771084337" type="curve"/>
    </contour>
  </outline>
</glyph>
<glyph name="asterisk" format="2">
  <advance width="426.5843373493976"/>
  <unicode hex="002A"/>
  <outline>
    <contour>
      <point x="147.69277108433735" y="372.43373493975906" type="line"/>
      <point x="218.52409638554215" y="508.2590361445783" type="line"/>
      <point x="208.5301204819277" y="508.2590361445783" type="line"/>
      <point x="279.1265060240964" y="372.9638554216868" type="line"/>
      <point x="329.1566265060241" y="402.00602409638554" type="line"/>
      <point x="245.74698795180723" y="534.6566265060242" type="line"/>
      <point x="235.04819277108433" y="520.9036144578313" type="line"/>
      <point x="393.933734939759" y="514.789156626506" type="line"/>
      <point x="393.933734939759" y="572.9337349397591" type="line"/>
      <point x="235.04819277108433" y="566.3493975903615" type="line"/>
      <point x="245.74698795180723" y="553.066265060241" type="line"/>
      <point x="329.1566265060241" y="685.777108433735" type="line"/>
      <point x="279.1265060240964" y="715.289156626506" type="line"/>
      <point x="208.5301204819277" y="579.1686746987951" type="line"/>
      <point x="218.52409638554215" y="579.1686746987951" type="line"/>
      <point x="148.16265060240966" y="715.289156626506" type="line"/>
      <point x="98.13253012048193" y="686.2469879518072" type="line"/>
      <point x="181.0722891566265" y="552.5963855421686" type="line"/>
      <point x="191.47590361445785" y="566.3493975903615" type="line"/>
      <point x="33.12048192771084" y="572.9337349397591" type="line"/>
      <point x="33.12048192771084" y="514.789156626506" type="line"/>
      <point x="191.47590361445785" y="520.9036144578313" type="line"/>
      <point x="180.6024096385542" y="534.6566265060242" type="line"/>
      <point x="97.66265060240964" y="402.00602409638554" type="line"/>
    </contour>
  </outline>
</glyph>
<glyph name="plus" format="2">
  <advance width="498.0"/>
  <unicode hex="002B"/>
  <outline>
    <contour>
      <point x="218.9578313253012" y="67.0" type="line"/>
      <point x="279.04216867469876" y="67.0" type="line"/>
      <point x="279.04216867469876" y="257.13253012048193" type="line"/>
      <point x="466.0" y="257.13253012048193" type="line"/>
      <point x="466.0" y="313.27710843373495" type="line"/>
      <point x="279.04216867469876" y="313.27710843373495" type="line"/>
      <point x="279.04216867469876" y="501.0" type="line"/>
      <point x="218.9578313253012" y="501.0" type="line"/>
      <point x="218.9578313253012" y="313.27710843373495" type="line"/>
      <point x="32.0" y="313.27710843373495" type="line"/>
      <point x="32.0" y="257.13253012048193" type="line"/>
      <point x="218.9578313253012" y="257.13253012048193" type="line"/>
    </contour>
  </outline>
</glyph>
<glyph name="comma" format="2">
  <advance width="200.03614457831327"/>
  <unicode hex="002C"/>
  <outline>
    <contour>
      <point x="92.51807228915662" y="-112.80120481927712" type="line"/>
      <point x="129.56024096385542" y="-71.99397590361447"/>
      <point x="145.55421686746988" y="-28.94578313253012"/>
      <point x="145.55421686746988" y="25.33132530120482" type="curve" smooth="yes"/>
      <point x="145.55421686746988" y="93.77710843373494" type="line"/>
      <point x="54.48192771084337" y="93.77710843373494" type="line"/>
      <point x="54.48192771084337" y="0.0" type="line"/>
      <point x="113.56626506024097" y="0.0" type="line"/>
      <point x="96.8132530120482" y="17.16265060240964" type="line"/>
      <point x="96.8132530120482" y="-25.36144578313253"/>
      <point x="86.75903614457832" y="-53.06024096385542"/>
      <point x="58.47590361445783" y="-86.10843373493975" type="curve"/>
    </contour>
  </outline>
</glyph>
<glyph name="hyphen" format="2">
  <advance width="356.81325301204816"/>
  <unicode hex="002D"/>
  <outline>
    <contour>
      <point x="63.24096385542168" y="235.78313253012047" type="line"/>
      <point x="293.5722891566265" y="235.78313253012047" type="line"/>
      <point x="293.5722891566265" y="296.8012048192771" type="line"/>
      <point x="63.24096385542168" y="296.8012048192771" type="line"/>
    </contour>
  </outline>
</glyph>
<glyph name="period" format="2">
  <advance width="200.03614457831327"/>
  <unicode hex="002E"/>
  <outline>
    <contour>
      <point x="54.48192771084337" y="0.0" type="line"/>
      <point x="145.55421686746988" y="0.0" type="line"/>
      <point x="145.55421686746988" y="93.77710843373494" type="line"/>
      <point x="54.48192771084337" y="93.77710843373494" type="line"/>
    </contour>
  </outline>
</glyph>
<glyph name="slash" format="2">
  <advance width="245.49397590361448"/>
  <unicode hex="002F"/>
  <outline>
    <contour>
      <point x="47.554216867469876" y="-62.51807228915663" type="line"/>
      <point x="257.1385542168675" y="736.7048192771084" type="line"/>
      <point x="197.93975903614458" y="751.5180722891566" type="line"/>
      <point x="-11.644578313253014" y="-47.704819277108435" type="line"/>
    </contour>
  </outline>
</glyph>
<glyph name="zero" format="2">
  <advance width="498.0"/>
  <unicode hex="0030"/>
  <outline>
    <contour>
      <point x="249.0" y="-8.939759036144578" type="curve" smooth="yes"/>
      <point x="385.8734939759036" y="-8.939759036144578"/>
      <point x="451.9879518072289" y="110.06024096385542"/>
      <point x="451.9879518072289" y="353.23493975903614" type="curve" smooth="yes"/>
      <point x="451.9879518072289" y="595.9397590361446"/>
      <point x="385.8734939759036" y="713.9397590361446"/>
      <point x="249.0" y="713.9397590361446" type="curve" smooth="yes"/>
      <point x="112.36144578313254" y="713.9397590361446"/>
      <point x="46.01204819277108" y="595.4096385542168"/>
      <point x="46.01204819277108" y="352.0" type="curve" smooth="yes"/>
      <point x="46.01204819277108" y="109.29518072289157"/>
      <point x="112.36144578313254" y="-8.939759036144578"/>
    </contour>
    <contour>
      <point x="249.0" y="55.25301204819277" type="curve" smooth="yes"/>
      <point x="158.62048192771084" y="55.25301204819277"/>
      <point x="120.60843373493977" y="140.855421686747"/>
      <point x="120.60843373493977" y="352.23493975903614" type="curve" smooth="yes"/>
      <point x="120.60843373493977" y="562.9096385542169"/>
      <point x="158.62048192771084" y="649.7469879518072"/>
      <point x="249.0" y="649.7469879518072" type="curve" smooth="yes"/>
      <point x="339.6144578313253" y="649.7469879518072"/>
      <point x="377.39156626506025" y="563.6746987951807"/>
      <point x="377.39156626506025" y="353.23493975903614" type="curve" smooth="yes"/>
      <point x="377.39156626506025" y="141.62048192771084"/>
      <point x="339.37951807228916" y="55.25301204819277"/>
    </contour>
  </outline>
</glyph>
<glyph name="one" format="2">
  <advance width="498.0"/>
  <unicode hex="0031"/>
  <outline>
    <contour>
      <point x="102.8433734939759" y="0.0" type="line"/>
      <point x="430.144578313253" y="0.0" type="line"/>
      <point x="430.144578313253" y="62.4277108433735" type="line"/>
      <point x="308.5542168674699" y="62.4277108433735" type="line"/>
      <point x="308.5542168674699" y="705.0" type="line"/>
      <point x="246.30120481927713" y="705.0" type="line"/>
      <point x="89.5" y="605.0060240963855" type="line"/>
      <point x="119.48192771084338" y="549.9277108433736" type="line"/>
      <point x="264.5903614457832" y="641.9277108433736" type="line"/>
      <point x="233.433734939759" y="641.9277108433736" type="line"/>
      <point x="233.433734939759" y="62.4277108433735" type="line"/>
      <point x="102.8433734939759" y="62.4277108433735" type="line"/>
    </contour>
  </outline>
</glyph>
<glyph name="two" format="2">
  <advance width="498.0"/>
  <unicode hex="0032"/>
  <outline>
    <contour>
      <point x="77.24698795180723" y="0.0" type="line"/>
      <point x="444.2831325301205" y="0.0" type="line"/>
      <point x="444.2831325301205" y="62.4277108433735" type="line"/>
      <point x="148.84337349397592" y="62.4277108433735" type="line"/>
      <point x="150.9578313253012" y="44.024096385542165" type="line"/>
      <point x="318.51807228915663" y="275.00602409638554" type="line" smooth="yes"/>
      <point x="373.0542168674699" y="350.6024096385542"/>
      <point x="422.22289156626505" y="437.83734939759034"/>
      <point x="422.22289156626505" y="528.1807228915663" type="curve" smooth="yes"/>
      <point x="422.22289156626505" y="644.5301204819277"/>
      <point x="357.99397590361446" y="713.9397590361446"/>
      <point x="243.47590361445782" y="713.9397590361446" type="curve" smooth="yes"/>
      <point x="169.5963855421687" y="713.9397590361446"/>
      <point x="97.1867469879518" y="684.3493975903615"/>
      <point x="53.897590361445786" y="635.7590361445783" type="curve"/>
      <point x="80.355421686747" y="578.210843373494" type="line"/>
      <point x="123.53614457831327" y="624.5120481927711"/>
      <point x="175.06626506024097" y="648.3373493975903"/>
      <point x="230.72289156626505" y="648.3373493975903" type="curve" smooth="yes"/>
      <point x="307.9156626506024" y="648.3373493975903"/>
      <point x="345.98192771084337" y="604.4457831325301"/>
      <point x="345.98192771084337" y="520.9578313253012" type="curve" smooth="yes"/>
      <point x="345.98192771084337" y="451.65060240963857"/>
      <point x="312.68072289156623" y="381.5783132530121"/>
      <point x="267.67469879518075" y="318.98192771084337" type="curve" smooth="yes"/>
      <point x="77.24698795180723" y="55.48795180722892" type="line"/>
    </contour>
  </outline>
</glyph>
<glyph name="three" format="2">
  <advance width="498.0"/>
  <unicode hex="0033"/>
  <outline>
    <contour>
      <point x="231.0602409638554" y="-8.939759036144578" type="curve" smooth="yes"/>
      <point x="357.8734939759036" y="-8.939759036144578"/>
      <point x="437.63253012048193" y="70.17469879518072"/>
      <point x="437.63253012048193" y="190.34939759036143" type="curve" smooth="yes"/>
      <point x="437.63253012048193" y="286.4096385542169"/>
      <point x="390.6927710843374" y="351.644578313253"/>
      <point x="309.92771084337346" y="369.17469879518075" type="curve"/>
      <point x="309.92771084337346" y="358.4698795180723" type="line"/>
      <point x="378.6927710843374" y="380.23493975903614"/>
      <point x="420.9277108433735" y="446.5903614457831"/>
      <point x="420.9277108433735" y="533.8855421686748" type="curve" smooth="yes"/>
      <point x="420.9277108433735" y="643.2951807228916"/>
      <point x="352.10843373493975" y="713.9397590361446"/>
      <point x="241.1204819277108" y="713.9397590361446" type="curve" smooth="yes"/>
      <point x="168.00602409638554" y="713.9397590361446"/>
      <point x="97.95180722891567" y="684.3493975903615"/>
      <point x="54.367469879518076" y="633.9939759036145" type="curve"/>
      <point x="80.59036144578313" y="574.6807228915662" type="line"/>
      <point x="126.18072289156628" y="623.7469879518072"/>
      <point x="173.77108433734938" y="647.5722891566265"/>
      <point x="229.0120481927711" y="647.5722891566265" type="curve" smooth="yes"/>
      <point x="306.67469879518075" y="647.5722891566265"/>
      <point x="346.6265060240964" y="605.6807228915662"/>
      <point x="346.6265060240964" y="526.8975903614457" type="curve" smooth="yes"/>
      <point x="346.6265060240964" y="441.5240963855422"/>
      <point x="301.6144578313253" y="389.6265060240964"/>
      <point x="227.48192771084337" y="389.6265060240964" type="curve" smooth="yes"/>
      <point x="152.77710843373495" y="389.6265060240964" type="line"/>
      <point x="152.77710843373495" y="325.2590361445783" type="line"/>
      <point x="232.066265060241" y="325.2590361445783" type="line" smooth="yes"/>
      <point x="315.9698795180723" y="325.2590361445783"/>
      <point x="362.56626506024094" y="280.95180722891564"/>
      <point x="362.56626506024094" y="193.34337349397592" type="curve" smooth="yes"/>
      <point x="362.56626506024094" y="107.90963855421687"/>
      <point x="314.78915662650604" y="57.4277108433735"/>
      <point x="227.53614457831324" y="57.4277108433735" type="curve" smooth="yes"/>
      <point x="170.4156626506024" y="57.4277108433735"/>
      <point x="118.53614457831327" y="80.4277108433735"/>
      <point x="71.12048192771084" y="125.72891566265062" type="curve"/>
      <point x="45.13253012048193" y="66.47590361445782" type="line"/>
      <point x="90.13253012048193" y="19.06024096385542"/>
      <point x="158.06626506024097" y="-8.939759036144578"/>
    </contour>
  </outline>
</glyph>
<glyph name="four" format="2">
  <advance width="498.0"/>
  <unicode hex="0034"/>
  <outline>
    <contour>
      <point x="309.5" y="0.0" type="line"/>
      <point x="381.3313253012048" y="0.0" type="line"/>
      <point x="381.3313253012048" y="153.90361445783134" type="line"/>
      <point x="465.1626506024097" y="153.90361445783134" type="line"/>
      <point x="465.1626506024097" y="217.50602409638554" type="line"/>
      <point x="381.3313253012048" y="217.50602409638554" type="line"/>
      <point x="381.3313253012048" y="705.0" type="line"/>
      <point x="318.78915662650604" y="705.0" type="line"/>
      <point x="40.24698795180723" y="209.6867469879518" type="line"/>
      <point x="40.24698795180723" y="153.90361445783134" type="line"/>
      <point x="309.5" y="153.90361445783134" type="line"/>
    </contour>
    <contour>
      <point x="309.5" y="217.50602409638554" type="line"/>
      <point x="103.3855421686747" y="217.50602409638554" type="line"/>
      <point x="103.3855421686747" y="201.45783132530119" type="line"/>
      <point x="331.433734939759" y="615.1265060240964" type="line"/>
      <point x="309.5" y="615.1265060240964" type="line"/>
    </contour>
  </outline>
</glyph>
<glyph name="five" format="2">
  <advance width="498.0"/>
  <unicode hex="0035"/>
  <outline>
    <contour>
      <point x="256.48192771084337" y="-8.939759036144578" type="curve" smooth="yes"/>
      <point x="383.7048192771084" y="-8.939759036144578"/>
      <point x="459.8734939759036" y="77.93975903614458"/>
      <point x="459.8734939759036" y="225.8734939759036" type="curve" smooth="yes"/>
      <point x="459.8734939759036" y="360.40361445783134"/>
      <point x="394.5783132530121" y="440.3433734939759"/>
      <point x="281.51807228915663" y="440.3433734939759" type="curve" smooth="yes"/>
      <point x="216.51204819277106" y="440.3433734939759"/>
      <point x="168.2710843373494" y="411.63253012048193"/>
      <point x="138.97590361445782" y="354.7409638554217" type="curve"/>
      <point x="155.67469879518072" y="354.7409638554217" type="line"/>
      <point x="155.67469879518072" y="641.8072289156627" type="line"/>
      <point x="421.34337349397595" y="641.8072289156627" type="line"/>
      <point x="421.34337349397595" y="705.0" type="line"/>
      <point x="84.07831325301204" y="705.0" type="line"/>
      <point x="84.07831325301204" y="291.8373493975904" type="line"/>
      <point x="138.22289156626508" y="291.8373493975904" type="line"/>
      <point x="168.10843373493975" y="350.4397590361446"/>
      <point x="206.17469879518072" y="375.6807228915663"/>
      <point x="259.4216867469879" y="375.6807228915663" type="curve" smooth="yes"/>
      <point x="341.56024096385545" y="375.6807228915663"/>
      <point x="386.33734939759034" y="319.60843373493975"/>
      <point x="386.33734939759034" y="219.75903614457832" type="curve" smooth="yes"/>
      <point x="386.33734939759034" y="114.26506024096386"/>
      <point x="338.9156626506024" y="57.4277108433735"/>
      <point x="251.1325301204819" y="57.4277108433735" type="curve" smooth="yes"/>
      <point x="194.83132530120483" y="57.4277108433735"/>
      <point x="144.3012048192771" y="79.48795180722892"/>
      <point x="93.94578313253012" y="125.72891566265062" type="curve"/>
      <point x="68.48795180722891" y="66.47590361445782" type="line"/>
      <point x="115.25301204819279" y="18.59036144578313"/>
      <point x="183.6024096385542" y="-8.939759036144578"/>
    </contour>
  </outline>
</glyph>
<glyph name="six" format="2">
  <advance width="498.0"/>
  <unicode hex="0036"/>
  <outline>
    <contour>
      <point x="261.23493975903614" y="-8.939759036144578" type="curve" smooth="yes"/>
      <point x="381.3433734939759" y="-8.939759036144578"/>
      <point x="452.6927710843373" y="78.64457831325302"/>
      <point x="452.6927710843373" y="219.93373493975903" type="curve" smooth="yes"/>
      <point x="452.6927710843373" y="354.8734939759036"/>
      <point x="387.16265060240966" y="440.7530120481928"/>
      <point x="282.2771084337349" y="440.7530120481928" type="curve" smooth="yes"/>
      <point x="184.96987951807228" y="440.7530120481928"/>
      <point x="125.37349397590361" y="368.68072289156623"/>
      <point x="120.31927710843375" y="251.8433734939759" type="curve"/>
      <point x="126.37349397590363" y="251.8433734939759" type="line"/>
      <point x="126.37349397590363" y="343.2168674698795" type="line" smooth="yes"/>
      <point x="126.37349397590363" y="532.921686746988"/>
      <point x="174.5722891566265" y="647.5722891566265"/>
      <point x="290.10843373493975" y="647.5722891566265" type="curve" smooth="yes"/>
      <point x="341.5843373493976" y="647.5722891566265"/>
      <point x="388.1144578313253" y="624.156626506024"/>
      <point x="426.8795180722891" y="578.0903614457831" type="curve"/>
      <point x="451.57228915662654" y="637.1686746987953" type="line"/>
      <point x="411.9879518072289" y="685.8192771084338"/>
      <point x="352.8132530120482" y="713.9397590361446"/>
      <point x="285.93373493975906" y="713.9397590361446" type="curve" smooth="yes"/>
      <point x="138.00602409638554" y="713.9397590361446"/>
      <point x="55.837349397590366" y="580.8192771084338"/>
      <point x="55.837349397590366" y="335.23493975903614" type="curve" smooth="yes"/>
      <point x="55.837349397590366" y="107.40963855421687"/>
      <point x="124.12650602409639" y="-8.939759036144578"/>
    </contour>
    <contour>
      <point x="264.23493975903614" y="54.8433734939759" type="curve" smooth="yes"/>
      <point x="190.8012048192771" y="54.8433734939759"/>
      <point x="147.96385542168673" y="113.44578313253012"/>
      <point x="147.96385542168673" y="215.52409638554218" type="curve" smooth="yes"/>
      <point x="147.96385542168673" y="318.0722891566265"/>
      <point x="192.56626506024097" y="377.67469879518075"/>
      <point x="265.76506024096386" y="377.67469879518075" type="curve" smooth="yes"/>
      <point x="338.433734939759" y="377.67469879518075"/>
      <point x="380.7409638554217" y="319.6024096385542"/>
      <point x="380.7409638554217" y="217.28915662650604" type="curve" smooth="yes"/>
      <point x="380.7409638554217" y="113.91566265060241"/>
      <point x="337.9036144578313" y="54.8433734939759"/>
    </contour>
  </outline>
</glyph>
<glyph name="seven" format="2">
  <advance width="498.0"/>
  <unicode hex="0037"/>
  <outline>
    <contour>
      <point x="91.855421686747" y="0.0" type="line"/>
      <point x="175.26506024096386" y="0.0" type="line"/>
      <point x="439.8072289156627" y="649.5722891566265" type="line"/>
      <point x="439.8072289156627" y="705.0" type="line"/>
      <point x="58.13253012048193" y="705.0" type="line"/>
      <point x="58.13253012048193" y="638.0481927710844" type="line"/>
      <point x="373.2710843373494" y="638.0481927710844" type="line"/>
      <point x="373.2710843373494" y="675.210843373494" type="line"/>
    </contour>
  </outline>
</glyph>
<glyph name="eight" format="2">
  <advance width="498.0"/>
  <unicode hex="0038"/>
  <outline>
    <contour>
      <point x="249.0" y="-8.939759036144578" type="curve" smooth="yes"/>
      <point x="379.6385542168675" y="-8.939759036144578"/>
      <point x="456.222891566265" y="64.0"/>
      <point x="456.222891566265" y="184.5843373493976" type="curve" smooth="yes"/>
      <point x="456.222891566265" y="286.10843373493975"/>
      <point x="402.1686746987952" y="356.4578313253012"/>
      <point x="318.3493975903615" y="365.7590361445783" type="curve"/>
      <point x="318.3493975903615" y="351.41566265060237" type="line"/>
      <point x="391.8734939759036" y="366.65662650602405"/>
      <point x="442.7530120481927" y="433.7710843373494"/>
      <point x="442.7530120481927" y="527.6506024096386" type="curve" smooth="yes"/>
      <point x="442.7530120481927" y="642.4698795180723"/>
      <point x="369.1686746987952" y="713.9397590361446"/>
      <point x="249.0" y="713.9397590361446" type="curve" smooth="yes"/>
      <point x="129.3012048192771" y="713.9397590361446"/>
      <point x="55.716867469879524" y="642.4698795180723"/>
      <point x="55.716867469879524" y="527.6506024096386" type="curve" smooth="yes"/>
      <point x="55.716867469879524" y="434.00602409638554"/>
      <point x="106.59638554216868" y="366.89156626506025"/>
      <point x="179.65060240963857" y="351.4156626506024" type="curve"/>
      <point x="179.65060240963857" y="365.7590361445783" type="line"/>
      <point x="96.30120481927712" y="356.22289156626505"/>
      <point x="41.777108433734945" y="285.8734939759036"/>
      <point x="41.777108433734945" y="184.5843373493976" type="curve" smooth="yes"/>
      <point x="41.777108433734945" y="64.0"/>
      <point x="118.36144578313254" y="-8.939759036144578"/>
    </contour>
    <contour>
      <point x="249.0" y="53.373493975903614" type="curve" smooth="yes"/>
      <point x="161.50602409638554" y="53.373493975903614"/>
      <point x="113.1987951807229" y="101.56024096385543"/>
      <point x="113.1987951807229" y="191.63855421686748" type="curve" smooth="yes"/>
      <point x="113.1987951807229" y="281.7168674698795"/>
      <point x="159.210843373494" y="325.8433734939759"/>
      <point x="249.0" y="325.8433734939759" type="curve" smooth="yes"/>
      <point x="339.2590361445783" y="325.8433734939759"/>
      <point x="384.80120481927713" y="281.7168674698795"/>
      <point x="384.80120481927713" y="191.63855421686748" type="curve" smooth="yes"/>
      <point x="384.80120481927713" y="101.56024096385543"/>
      <point x="337.7289156626506" y="53.373493975903614"/>
    </contour>
    <contour>
      <point x="249.0" y="388.1566265060241" type="curve" smooth="yes"/>
      <point x="173.03614457831327" y="388.1566265060241"/>
      <point x="127.13855421686749" y="437.16867469879514"/>
      <point x="127.13855421686749" y="520.8915662650602" type="curve" smooth="yes"/>
      <point x="127.13855421686749" y="604.9096385542169"/>
      <point x="172.2710843373494" y="651.6265060240963"/>
      <point x="249.0" y="651.6265060240963" type="curve" smooth="yes"/>
      <point x="325.72891566265065" y="651.6265060240963"/>
      <point x="371.3313253012048" y="604.9096385542169"/>
      <point x="371.3313253012048" y="520.8915662650602" type="curve" smooth="yes"/>
      <point x="371.3313253012048" y="437.16867469879514"/>
      <point x="324.9638554216868" y="388.1566265060241"/>
    </contour>
  </outline>
</glyph>
<glyph name="nine" format="2">
  <advance width="498.0"/>
  <unicode hex="0039"/>
  <outline>
    <contour>
      <point x="212.7710843373494" y="-8.939759036144578" type="curve" smooth="yes"/>
      <point x="360.2289156626506" y="-8.939759036144578"/>
      <point x="442.39759036144585" y="124.65060240963855"/>
      <point x="442.39759036144585" y="369.76506024096386" type="curve" smooth="yes"/>
      <point x="442.39759036144585" y="597.5903614457832"/>
      <point x="374.578313253012" y="713.9397590361446"/>
      <point x="236.99999999999997" y="713.9397590361446" type="curve" smooth="yes"/>
      <point x="117.36144578313254" y="713.9397590361446"/>
      <point x="45.5421686746988" y="626.8253012048193"/>
      <point x="45.5421686746988" y="485.06626506024094" type="curve" smooth="yes"/>
      <point x="45.5421686746988" y="350.1265060240964"/>
      <point x="111.5421686746988" y="264.2469879518072"/>
      <point x="215.95783132530124" y="264.2469879518072" type="curve" smooth="yes"/>
      <point x="313.73493975903614" y="264.2469879518072"/>
      <point x="373.33132530120486" y="336.31927710843377"/>
      <point x="377.9156626506024" y="453.1566265060241" type="curve"/>
      <point x="372.3313253012048" y="453.1566265060241" type="line"/>
      <point x="372.3313253012048" y="361.7831325301205" type="line" smooth="yes"/>
      <point x="372.3313253012048" y="172.07831325301206"/>
      <point x="324.13253012048193" y="57.4277108433735"/>
      <point x="208.1265060240964" y="57.4277108433735" type="curve" smooth="yes"/>
      <point x="156.65060240963854" y="57.4277108433735"/>
      <point x="110.12048192771084" y="81.3132530120482"/>
      <point x="71.82530120481928" y="127.37951807228916" type="curve"/>
      <point x="46.66265060240964" y="68.3012048192771" type="line"/>
      <point x="86.71686746987952" y="19.650602409638555"/>
      <point x="145.42168674698794" y="-8.939759036144578"/>
    </contour>
    <contour>
      <point x="232.93975903614455" y="327.79518072289153" type="curve" smooth="yes"/>
      <point x="160.2710843373494" y="327.79518072289153"/>
      <point x="117.96385542168674" y="385.3975903614458"/>
      <point x="117.96385542168674" y="487.71084337349396" type="curve" smooth="yes"/>
      <point x="117.96385542168674" y="591.0843373493976"/>
      <point x="160.8012048192771" y="650.6265060240963"/>
      <point x="234.46987951807228" y="650.6265060240963" type="curve" smooth="yes"/>
      <point x="307.90361445783134" y="650.6265060240963"/>
      <point x="350.7409638554217" y="591.5542168674699"/>
      <point x="350.7409638554217" y="489.4759036144578" type="curve" smooth="yes"/>
      <point x="350.7409638554217" y="386.9277108433735"/>
      <point x="306.1385542168675" y="327.79518072289153"/>
    </contour>
  </outline>
</glyph>
<glyph name="colon" format="2">
  <advance width="200.03614457831327"/>
  <unicode hex="003A"/>
  <outline>
    <contour>
      <point x="54.48192771084337" y="392.27710843373495" type="line"/>
      <point x="145.55421686746988" y="392.27710843373495" type="line"/>
      <point x="145.55421686746988" y="486.34939759036143" type="line"/>
      <point x="54.48192771084337" y="486.34939759036143" type="line"/>
    </contour>
    <contour>
      <point x="54.48192771084337" y="0.0" type="line"/>
      <point x="145.55421686746988" y="0.0" type="line"/>
      <point x="145.55421686746988" y="94.54216867469879" type="line"/>
      <point x="54.48192771084337" y="94.54216867469879" type="line"/>
    </contour>
  </outline>
</glyph>
<glyph name="semicolon" format="2">
  <advance width="200.03614457831327"/>
  <unicode hex="003B"/>
  <outline>
    <contour>
      <point x="92.51807228915662" y="-114.44578313253012" type="line"/>
      <point x="129.56024096385542" y="-73.63855421686748"/>
      <point x="145.55421686746988" y="-30.590361445783135"/>
      <point x="145.55421686746988" y="23.68674698795181" type="curve" smooth="yes"/>
      <point x="145.55421686746988" y="93.77710843373494" type="line"/>
      <point x="54.48192771084337" y="93.77710843373494" type="line"/>
      <point x="54.48192771084337" y="0.0" type="line"/>
      <point x="113.8012048192771" y="0.0" type="line"/>
      <point x="96.8132530120482" y="15.518072289156628" type="line"/>
      <point x="96.8132530120482" y="-27.00602409638554"/>
      <point x="86.75903614457832" y="-53.93975903614458"/>
      <point x="58.47590361445783" y="-86.98795180722891" type="curve"/>
    </contour>
    <contour>
      <point x="54.48192771084337" y="392.27710843373495" type="line"/>
      <point x="145.55421686746988" y="392.27710843373495" type="line"/>
      <point x="145.55421686746988" y="486.34939759036143" type="line"/>
      <point x="54.48192771084337" y="486.34939759036143" type="line"/>
    </contour>
  </outline>
</glyph>
<glyph name="less" format="2">
  <advance width="498.0"/>
  <unicode hex="003C"/>
  <outline>
    <contour>
      <point x="466.0" y="43.00602409638554" type="line"/>
      <point x="466.0" y="107.32530120481927" type="line"/>
      <point x="60.99397590361446" y="305.6927710843374" type="line"/>
      <point x="60.99397590361446" y="268.54216867469876" type="line"/>
      <point x="466.0" y="466.6746987951807" type="line"/>
      <point x="466.0" y="531.4638554216868" type="line"/>
      <point x="32.0" y="315.9216867469879" type="line"/>
      <point x="32.0" y="258.31325301204816" type="line"/>
    </contour>
  </outline>
</glyph>
<glyph name="equal" format="2">
  <advance width="498.0"/>
  <unicode hex="003D"/>
  <outline>
    <contour>
      <point x="32.0" y="358.8975903614458" type="line"/>
      <point x="466.0" y="358.8975903614458" type="line"/>
      <point x="466.0" y="415.0421686746988" type="line"/>
      <point x="32.0" y="415.0421686746988" type="line"/>
    </contour>
    <contour>
      <point x="32.0" y="159.4277108433735" type="line"/>
      <point x="466.0" y="159.4277108433735" type="line"/>
      <point x="466.0" y="215.10240963855424" type="line"/>
      <point x="32.0" y="215.10240963855424" type="line"/>
    </contour>
  </outline>
</glyph>
<glyph name="greater" format="2">
  <advance width="498.0"/>
  <unicode hex="003E"/>
  <outline>
    <contour>
      <point x="32.0" y="43.00602409638554" type="line"/>
      <point x="466.0" y="258.31325301204816" type="line"/>
      <point x="466.0" y="315.9216867469879" type="line"/>
      <point x="32.0" y="531.4638554216868" type="line"/>
      <point x="32.0" y="466.6746987951807" type="line"/>
      <point x="437.4759036144578" y="269.0120481927711" type="line"/>
      <point x="437.4759036144578" y="305.22289156626505" type="line"/>
      <point x="32.0" y="107.32530120481927" type="line"/>
    </contour>
  </outline>
</glyph>
<glyph name="question" format="2">
  <advance width="372.98192771084337"/>
  <unicode hex="003F"/>
  <outline>
    <contour>
      <point x="153.23493975903614" y="179.43975903614458" type="line"/>
      <point x="198.67469879518072" y="179.43975903614458" type="line"/>
      <point x="200.37951807228916" y="203.72891566265062" type="line" smooth="yes"/>
      <point x="203.5542168674699" y="249.2048192771084"/>
      <point x="210.13855421686748" y="284.0903614457832"/>
      <point x="274.0301204819277" y="372.34939759036143" type="curve" smooth="yes"/>
      <point x="313.433734939759" y="423.34939759036143"/>
      <point x="349.73493975903614" y="472.93975903614455"/>
      <point x="349.73493975903614" y="553.8915662650602" type="curve" smooth="yes"/>
      <point x="349.73493975903614" y="656.4156626506024"/>
      <point x="290.1566265060241" y="713.9397590361446"/>
      <point x="191.63855421686748" y="713.9397590361446" type="curve" smooth="yes"/>
      <point x="120.99397590361447" y="713.9397590361446"/>
      <point x="50.87951807228915" y="683.8795180722892"/>
      <point x="7.530120481927711" y="635.7590361445783" type="curve"/>
      <point x="31.987951807228914" y="578.210843373494" type="line"/>
      <point x="79.75301204819277" y="626.4518072289156"/>
      <point x="127.99397590361447" y="648.3373493975903"/>
      <point x="180.35542168674698" y="648.3373493975903" type="curve" smooth="yes"/>
      <point x="242.4277108433735" y="648.3373493975903"/>
      <point x="274.0240963855421" y="616.5060240963855"/>
      <point x="274.0240963855421" y="548.4879518072289" type="curve" smooth="yes"/>
      <point x="274.0240963855421" y="484.1144578313253"/>
      <point x="246.07228915662654" y="444.92771084337346"/>
      <point x="220.95180722891564" y="405.98192771084337" type="curve" smooth="yes"/>
      <point x="155.34939759036146" y="304.84337349397595"/>
      <point x="153.23493975903614" y="258.60843373493975"/>
      <point x="153.23493975903614" y="206.36746987951807" type="curve" smooth="yes"/>
    </contour>
    <contour>
      <point x="130.3012048192771" y="0.0" type="line"/>
      <point x="221.60843373493978" y="0.0" type="line"/>
      <point x="221.60843373493978" y="93.77710843373494" type="line"/>
      <point x="130.3012048192771" y="93.77710843373494" type="line"/>
    </contour>
  </outline>
</glyph>
<glyph name="at" format="2">
  <advance width="794.9277108433735"/>
  <unicode hex="0040"/>
  <outline>
    <contour>
      <point x="403.69879518072287" y="-163.17469879518072" type="curve" smooth="yes"/>
      <point x="502.4096385542169" y="-163.17469879518072"/>
      <point x="586.4698795180723" y="-127.46385542168676"/>
      <point x="640.4698795180723" y="-63.04216867469879" type="curve"/>
      <point x="608.8313253012049" y="-22.180722891566266" type="line"/>
      <point x="563.8313253012047" y="-78.42771084337349"/>
      <point x="491.29518072289164" y="-109.72891566265059"/>
      <point x="405.16867469879514" y="-109.72891566265059" type="curve" smooth="yes"/>
      <point x="221.63253012048193" y="-109.72891566265059"/>
      <point x="113.1566265060241" y="29.283132530120483"/>
      <point x="113.1566265060241" y="266.94578313253015" type="curve" smooth="yes"/>
      <point x="113.1566265060241" y="510.95783132530124"/>
      <point x="228.9819277108434" y="660.2590361445783"/>
      <point x="418.86746987951807" y="660.2590361445783" type="curve" smooth="yes"/>
      <point x="586.5240963855422" y="660.2590361445783"/>
      <point x="683.4759036144578" y="541.6566265060242"/>
      <point x="683.4759036144578" y="333.76506024096386" type="curve" smooth="yes"/>
      <point x="683.4759036144578" y="198.63253012048193"/>
      <point x="642.5843373493975" y="109.21084337349399"/>
      <point x="579.7469879518072" y="109.21084337349399" type="curve" smooth="yes"/>
      <point x="549.4457831325301" y="109.21084337349399"/>
      <point x="535.0903614457832" y="129.8012048192771"/>
      <point x="535.0903614457832" y="174.92771084337352" type="curve" smooth="yes"/>
      <point x="535.0903614457832" y="188.16265060240966"/>
      <point x="536.5602409638554" y="205.0421686746988"/>
      <point x="539.2650602409639" y="223.15060240963857" type="curve" smooth="yes"/>
      <point x="574.9156626506025" y="486.1144578313253" type="line"/>
      <point x="515.3614457831325" y="486.1144578313253" type="line"/>
      <point x="502.12650602409633" y="391.5843373493976" type="line"/>
      <point x="512.355421686747" y="391.5843373493976" type="line"/>
      <point x="499.71084337349396" y="460.2289156626506"/>
      <point x="463.35542168674704" y="495.0542168674699"/>
      <point x="404.06024096385545" y="495.0542168674699" type="curve" smooth="yes"/>
      <point x="300.2951807228916" y="495.0542168674699"/>
      <point x="227.70481927710844" y="389.69879518072287"/>
      <point x="227.70481927710844" y="241.46385542168676" type="curve" smooth="yes"/>
      <point x="227.70481927710844" y="124.17469879518073"/>
      <point x="273.644578313253" y="59.0"/>
      <point x="356.69879518072287" y="59.0" type="curve" smooth="yes"/>
      <point x="421.4578313253012" y="59.0"/>
      <point x="468.92771084337346" y="99.05421686746988"/>
      <point x="498.22289156626505" y="178.74698795180723" type="curve"/>
      <point x="480.35542168674704" y="187.29518072289156" type="line"/>
      <point x="475.9939759036144" y="106.06024096385542"/>
      <point x="510.0481927710843" y="59.0"/>
      <point x="575.6927710843374" y="59.0" type="curve" smooth="yes"/>
      <point x="675.4518072289156" y="59.0"/>
      <point x="741.0361445783132" y="169.4698795180723"/>
      <point x="741.0361445783132" y="340.17469879518075" type="curve" smooth="yes"/>
      <point x="741.0361445783132" y="572.1746987951807"/>
      <point x="617.277108433735" y="713.9397590361446"/>
      <point x="419.4578313253012" y="713.9397590361446" type="curve" smooth="yes"/>
      <point x="196.93975903614458" y="713.9397590361446"/>
      <point x="53.89156626506024" y="536.3614457831325"/>
      <point x="53.89156626506024" y="266.00602409638554" type="curve" smooth="yes"/>
      <point x="53.89156626506024" y="1.590361445783132"/>
      <point x="188.29518072289156" y="-163.17469879518072"/>
    </contour>
    <contour>
      <point x="368.15662650602405" y="112.62048192771084" type="curve" smooth="yes"/>
      <point x="315.9096385542169" y="112.62048192771084"/>
      <point x="290.1385542168675" y="155.6867469879518"/>
      <point x="290.1385542168675" y="242.4036144578313" type="curve" smooth="yes"/>
      <point x="290.1385542168675" y="362.8313253012048"/>
      <point x="339.4457831325301" y="440.1987951807229"/>
      <point x="416.1686746987952" y="440.1987951807229" type="curve" smooth="yes"/>
      <point x="468.41566265060237" y="440.1987951807229"/>
      <point x="490.65662650602405" y="404.4277108433735"/>
      <point x="490.65662650602405" y="320.710843373494" type="curve" smooth="yes"/>
      <point x="490.65662650602405" y="196.28313253012047"/>
      <point x="441.3493975903615" y="112.62048192771084"/>
    </contour>
  </outline>
</glyph>
<glyph name="A" format="2">
  <advance width="603.5120481927711"/>
  <unicode hex="0041"/>
  <anchor x="301.8734939759036" y="0.0" name="bottom"/>
  <anchor x="567.1686746987953" y="0.0" name="ogonek"/>
  <anchor x="302.10843373493975" y="705.0" name="top"/>
  <outline>
    <contour>
      <point x="15.433734939759036" y="0.0" type="line"/>
      <point x="92.08433734939759" y="0.0" type="line"/>
      <point x="158.96987951807228" y="201.4156626506024" type="line"/>
      <point x="127.16265060240966" y="183.13855421686748" type="line"/>
      <point x="474.81927710843377" y="183.13855421686748" type="line"/>
      <point x="443.5421686746988" y="201.4156626506024" type="line"/>
      <point x="510.6626506024096" y="0.0" type="line"/>
      <point x="588.5481927710844" y="0.0" type="line"/>
      <point x="335.5" y="705.0" type="line"/>
      <point x="268.48192771084337" y="705.0" type="line"/>
    </contour>
    <contour>
      <point x="300.6385542168675" y="621.1746987951807" type="line"/>
      <point x="301.6385542168675" y="621.1746987951807" type="line"/>
      <point x="433.8975903614458" y="230.1144578313253" type="line"/>
      <point x="448.07228915662654" y="245.39156626506025" type="line"/>
      <point x="153.67469879518075" y="245.39156626506025" type="line"/>
      <point x="168.61445783132532" y="230.1144578313253" type="line"/>
    </contour>
  </outline>
</glyph>
<glyph name="B" format="2">
  <advance width="561.4578313253013"/>
  <unicode hex="0042"/>
  <anchor x="282.0542168674699" y="0.0" name="bottom"/>
  <anchor x="282.28915662650604" y="705.0" name="top"/>
  <outline>
    <contour>
      <point x="74.30722891566265" y="0.0" type="line"/>
      <point x="309.27710843373495" y="0.0" type="line" smooth="yes"/>
      <point x="433.68674698795184" y="0.0"/>
      <point x="507.3855421686747" y="70.5843373493976"/>
      <point x="507.3855421686747" y="191.46385542168676" type="curve" smooth="yes"/>
      <point x="507.3855421686747" y="293.0"/>
      <point x="462.85542168674704" y="353.7048192771084"/>
      <point x="377.67469879518075" y="367.1144578313253" type="curve"/>
      <point x="377.67469879518075" y="352.644578313253" type="line"/>
      <point x="453.68072289156623" y="373.4096385542169"/>
      <point x="493.210843373494" y="432.5843373493976"/>
      <point x="493.210843373494" y="524.0602409638554" type="curve" smooth="yes"/>
      <point x="493.210843373494" y="638.8253012048193"/>
      <point x="421.9216867469879" y="705.0"/>
      <point x="299.98192771084337" y="705.0" type="curve" smooth="yes"/>
      <point x="74.30722891566265" y="705.0" type="line"/>
    </contour>
    <contour>
      <point x="147.07831325301206" y="60.373493975903614" type="line"/>
      <point x="147.07831325301206" y="326.78313253012044" type="line"/>
      <point x="303.5240963855421" y="326.78313253012044" type="line" smooth="yes"/>
      <point x="392.4879518072289" y="326.78313253012044"/>
      <point x="432.84939759036143" y="285.2469879518072"/>
      <point x="432.84939759036143" y="193.57831325301206" type="curve" smooth="yes"/>
      <point x="432.84939759036143" y="104.67469879518072"/>
      <point x="389.42771084337346" y="60.373493975903614"/>
      <point x="300.46385542168673" y="60.373493975903614" type="curve" smooth="yes"/>
    </contour>
    <contour>
      <point x="147.07831325301206" y="387.1566265060241" type="line"/>
      <point x="147.07831325301206" y="644.6265060240963" type="line"/>
      <point x="288.28915662650604" y="644.6265060240963" type="line" smooth="yes"/>
      <point x="374.9578313253012" y="644.6265060240963"/>
      <point x="418.9096385542169" y="601.5"/>
      <point x="418.9096385542169" y="518.1867469879518" type="curve" smooth="yes"/>
      <point x="418.9096385542169" y="434.6385542168675"/>
      <point x="372.66265060240966" y="387.1566265060241"/>
      <point x="290.5843373493976" y="387.1566265060241" type="curve" smooth="yes"/>
    </contour>
  </outline>
</glyph>
<glyph name="C" format="2">
  <advance width="557.2289156626506"/>
  <unicode hex="0043"/>
  <anchor x="319.7590361445783" y="0.0" name="bottom"/>
  <anchor x="319.7590361445783" y="705.0" name="top"/>
  <outline>
    <contour>
      <point x="323.7530120481928" y="-8.939759036144578" type="curve" smooth="yes"/>
      <point x="404.4578313253012" y="-8.939759036144578"/>
      <point x="472.39759036144574" y="19.12048192771084"/>
      <point x="519.1024096385543" y="70.7710843373494" type="curve"/>
      <point x="493.3493975903615" y="130.13855421686745" type="line"/>
      <point x="445.5240963855422" y="81.36746987951808"/>
      <point x="393.8734939759036" y="59.012048192771076"/>
      <point x="330.0421686746988" y="59.012048192771076" type="curve" smooth="yes"/>
      <point x="197.13855421686748" y="59.012048192771076"/>
      <point x="133.1265060240964" y="153.96987951807228"/>
      <point x="133.1265060240964" y="353.0" type="curve" smooth="yes"/>
      <point x="133.1265060240964" y="551.5"/>
      <point x="196.3734939759036" y="645.9879518072289"/>
      <point x="329.27710843373495" y="645.9879518072289" type="curve" smooth="yes"/>
      <point x="393.6385542168675" y="645.9879518072289"/>
      <point x="445.5240963855422" y="623.632530120482"/>
      <point x="493.58433734939763" y="574.8614457831325" type="curve"/>
      <point x="519.1024096385543" y="634.2289156626506" type="line"/>
      <point x="472.6325301204819" y="686.3493975903614"/>
      <point x="404.6927710843373" y="713.9397590361446"/>
      <point x="323.9879518072289" y="713.9397590361446" type="curve" smooth="yes"/>
      <point x="149.93975903614458" y="713.9397590361446"/>
      <point x="53.89156626506024" y="586.1204819277109"/>
      <point x="53.89156626506024" y="352.23493975903614" type="curve" smooth="yes"/>
      <point x="53.89156626506024" y="118.87951807228916"/>
      <point x="149.70481927710844" y="-8.939759036144578"/>
    </contour>
  </outline>
</glyph>
<glyph name="D" format="2">
  <advance width="616.0361445783132"/>
  <unicode hex="0044"/>
  <anchor x="307.3433734939759" y="0.0" name="bottom"/>
  <anchor x="154.75301204819277" y="358.0" name="center"/>
  <anchor x="307.578313253012" y="705.0" name="top"/>
  <outline>
    <contour>
      <point x="74.30722891566265" y="0.0" type="line"/>
      <point x="278.86746987951807" y="0.0" type="line" smooth="yes"/>
      <point x="466.9759036144578" y="0.0"/>
      <point x="562.6144578313252" y="119.1144578313253"/>
      <point x="562.6144578313252" y="353.0" type="curve" smooth="yes"/>
      <point x="562.6144578313252" y="586.8855421686748"/>
      <point x="466.9759036144578" y="705.0"/>
      <point x="278.86746987951807" y="705.0" type="curve" smooth="yes"/>
      <point x="74.30722891566265" y="705.0" type="line"/>
    </contour>
    <contour>
      <point x="149.4277108433735" y="64.60240963855422" type="line"/>
      <point x="149.4277108433735" y="640.3975903614457" type="line"/>
      <point x="273.4578313253012" y="640.3975903614457" type="line" smooth="yes"/>
      <point x="419.8373493975904" y="640.3975903614457"/>
      <point x="484.0843373493975" y="553.0301204819277"/>
      <point x="484.0843373493975" y="353.0" type="curve" smooth="yes"/>
      <point x="484.0843373493975" y="152.9698795180723"/>
      <point x="420.3072289156627" y="64.60240963855422"/>
      <point x="273.4578313253012" y="64.60240963855422" type="curve" smooth="yes"/>
    </contour>
  </outline>
</glyph>
<glyph name="F" format="2">
  <advance width="457.33734939759034"/>
  <unicode hex="0046"/>
  <anchor x="246.5843373493976" y="0.0" name="bottom"/>
  <anchor x="247.7590361445783" y="705.0" name="top"/>
  <outline>
    <contour>
      <point x="74.30722891566265" y="0.0" type="line"/>
      <point x="149.4277108433735" y="0.0" type="line"/>
      <point x="149.4277108433735" y="324.2590361445783" type="line"/>
      <point x="415.2771084337349" y="324.2590361445783" type="line"/>
      <point x="415.2771084337349" y="386.7469879518072" type="line"/>
      <point x="149.4277108433735" y="386.7469879518072" type="line"/>
      <point x="149.4277108433735" y="642.5120481927711" type="line"/>
      <point x="431.74698795180717" y="642.5120481927711" type="line"/>
      <point x="431.74698795180717" y="705.0" type="line"/>
      <point x="74.30722891566265" y="705.0" type="line"/>
    </contour>
  </outline>
</glyph>
<glyph name="G" format="2">
  <advance width="600.8132530120482"/>
  <unicode hex="0047"/>
  <anchor x="330.28313253012044" y="0.0" name="bottom"/>
  <anchor x="324.28313253012044" y="705.0" name="top"/>
  <outline>
    <contour>
      <point x="335.0481927710843" y="-8.939759036144578" type="curve" smooth="yes"/>
      <point x="405.1626506024096" y="-8.939759036144578"/>
      <point x="483.632530120482" y="9.295180722891567"/>
      <point x="531.5060240963855" y="35.40963855421687" type="curve"/>
      <point x="531.5060240963855" y="364.5120481927711" type="line"/>
      <point x="325.4698795180723" y="364.5120481927711" type="line"/>
      <point x="325.4698795180723" y="305.0783132530121" type="line"/>
      <point x="465.31325301204816" y="305.0783132530121" type="line"/>
      <point x="465.31325301204816" y="54.08433734939759" type="line"/>
      <point x="487.59638554216866" y="87.8433734939759" type="line"/>
      <point x="439.0060240963856" y="68.19277108433735"/>
      <point x="388.7048192771084" y="57.367469879518076"/>
      <point x="339.7530120481928" y="57.367469879518076" type="curve" smooth="yes"/>
      <point x="196.13855421686745" y="57.367469879518076"/>
      <point x="132.42168674698797" y="148.37951807228916"/>
      <point x="132.42168674698797" y="351.70481927710847" type="curve" smooth="yes"/>
      <point x="132.42168674698797" y="553.2048192771084"/>
      <point x="195.84337349397592" y="646.6927710843374"/>
      <point x="333.09638554216866" y="646.6927710843374" type="curve" smooth="yes"/>
      <point x="398.8674698795181" y="646.6927710843374"/>
      <point x="452.22289156626505" y="625.0421686746987"/>
      <point x="502.9879518072289" y="577.210843373494" type="curve"/>
      <point x="528.9759036144579" y="635.8734939759037" type="line"/>
      <point x="479.50602409638554" y="687.1144578313252"/>
      <point x="410.6265060240964" y="713.9397590361446"/>
      <point x="329.45180722891564" y="713.9397590361446" type="curve" smooth="yes"/>
      <point x="151.1144578313253" y="713.9397590361446"/>
      <point x="53.89156626506024" y="586.5903614457832"/>
      <point x="53.89156626506024" y="351.0" type="curve" smooth="yes"/>
      <point x="53.89156626506024" y="114.11445783132531"/>
      <point x="149.93975903614458" y="-8.939759036144578"/>
    </contour>
  </outline>
</glyph>
<glyph name="H" format="2">
  <advance width="628.6927710843374"/>
  <unicode hex="0048"/>
  <anchor x="314.4638554216868" y="0.0" name="bottom"/>
  <anchor x="314.4638554216868" y="551.5783132530121" name="center"/>
  <anchor x="314.22891566265065" y="705.0" name="top"/>
  <anchor x="25.650602409638555" y="705.0" name="topleft"/>
  <outline>
    <contour>
      <point x="74.30722891566265" y="0.0" type="line"/>
      <point x="149.4277108433735" y="0.0" type="line"/>
      <point x="149.4277108433735" y="325.1987951807229" type="line"/>
      <point x="479.2650602409639" y="325.1987951807229" type="line"/>
      <point x="479.2650602409639" y="0.0" type="line"/>
      <point x="554.3855421686748" y="0.0" type="line"/>
      <point x="554.3855421686748" y="705.0" type="line"/>
      <point x="479.2650602409639" y="705.0" type="line"/>
      <point x="479.2650602409639" y="389.8012048192771" type="line"/>
      <point x="149.4277108433735" y="389.8012048192771" type="line"/>
      <point x="149.4277108433735" y="705.0" type="line"/>
      <point x="74.30722891566265" y="705.0" type="line"/>
    </contour>
  </outline>
</glyph>
<glyph name="I" format="2">
  <advance width="223.26506024096383"/>
  <unicode hex="0049"/>
  <anchor x="111.86746987951808" y="0.0" name="bottom"/>
  <anchor x="135.56626506024097" y="0.0" name="ogonek"/>
  <anchor x="111.86746987951808" y="705.0" name="top"/>
  <anchor x="25.41566265060241" y="705.0" name="topleft"/>
  <outline>
    <contour>
      <point x="74.30722891566265" y="0.0" type="line"/>
      <point x="149.4277108433735" y="0.0" type="line"/>
      <point x="149.4277108433735" y="705.0" type="line"/>
      <point x="74.30722891566265" y="705.0" type="line"/>
    </contour>
  </outline>
</glyph>
<glyph name="J" format="2">
  <advance width="279.19879518072287"/>
  <unicode hex="004A"/>
  <anchor x="167.0963855421687" y="0.0" name="bottom"/>
  <anchor x="166.86144578313252" y="705.0" name="top"/>
  <outline>
    <contour>
      <point x="2.8795180722891565" y="-7.409638554216867" type="line"/>
      <point x="58.506024096385545" y="-3.174698795180723" type="line" smooth="yes"/>
      <point x="158.25301204819277" y="5.295180722891566"/>
      <point x="204.89156626506025" y="61.34939759036145"/>
      <point x="204.89156626506025" y="168.8674698795181" type="curve" smooth="yes"/>
      <point x="204.89156626506025" y="705.0" type="line"/>
      <point x="129.7710843373494" y="705.0" type="line"/>
      <point x="129.7710843373494" y="170.9277108433735" type="line" smooth="yes"/>
      <point x="129.7710843373494" y="101.73493975903615"/>
      <point x="103.46987951807229" y="65.01807228915663"/>
      <point x="47.4578313253012" y="59.95783132530121" type="curve" smooth="yes"/>
      <point x="-3.4698795180722892" y="55.95783132530121" type="line"/>
    </contour>
  </outline>
</glyph>
<glyph name="K" format="2">
  <advance width="524.0120481927711"/>
  <unicode hex="004B"/>
  <anchor x="264.45180722891564" y="0.0" name="bottom"/>
  <anchor x="264.6867469879518" y="705.0" name="top"/>
  <anchor x="25.650602409638555" y="705.0" name="topleft"/>
  <outline>
    <contour>
      <point x="74.30722891566265" y="0.0" type="line"/>
      <point x="149.4277108433735" y="0.0" type="line"/>
      <point x="149.4277108433735" y="333.59638554216866" type="line"/>
      <point x="151.4277108433735" y="333.59638554216866" type="line"/>
      <point x="437.29518072289153" y="0.0" type="line"/>
      <point x="533.3493975903615" y="0.0" type="line"/>
      <point x="202.6144578313253" y="382.16265060240966" type="line"/>
      <point x="202.0843373493976" y="340.355421686747" type="line"/>
      <point x="516.1084337349398" y="705.0" type="line"/>
      <point x="423.8192771084337" y="705.0" type="line"/>
      <point x="151.4277108433735" y="383.04819277108436" type="line"/>
      <point x="149.4277108433735" y="383.04819277108436" type="line"/>
      <point x="149.4277108433735" y="705.0" type="line"/>
      <point x="74.30722891566265" y="705.0" type="line"/>
    </contour>
  </outline>
</glyph>
<glyph name="L" format="2">
  <advance width="455.09638554216866"/>
  <unicode hex="004C"/>
  <anchor x="254.644578313253" y="0.0" name="bottom"/>
  <anchor x="148.5722891566265" y="387.0" name="center"/>
  <anchor x="336.15060240963857" y="388.5240963855422" name="dot"/>
  <anchor x="111.86746987951808" y="705.0" name="top"/>
  <anchor x="240.37951807228913" y="705.0" name="topright"/>
  <outline>
    <contour>
      <point x="74.30722891566265" y="0.0" type="line"/>
      <point x="435.9819277108434" y="0.0" type="line"/>
      <point x="435.9819277108434" y="65.5421686746988" type="line"/>
      <point x="149.4277108433735" y="65.5421686746988" type="line"/>
      <point x="149.4277108433735" y="705.0" type="line"/>
      <point x="74.30722891566265" y="705.0" type="line"/>
    </contour>
  </outline>
</glyph>
<glyph name="M" format="2">
  <advance width="709.0421686746988"/>
  <unicode hex="004D"/>
  <anchor x="354.8734939759036" y="0.0" name="bottom"/>
  <anchor x="354.8734939759036" y="705.0" name="top"/>
  <outline>
    <contour>
      <point x="76.30722891566265" y="0.0" type="line"/>
      <point x="146.13855421686748" y="0.0" type="line"/>
      <point x="146.13855421686748" y="597.3795180722892" type="line"/>
      <point x="128.9036144578313" y="597.3795180722892" type="line"/>
      <point x="331.94578313253015" y="112.58433734939759" type="line"/>
      <point x="376.8614457831325" y="112.58433734939759" type="line"/>
      <point x="579.9036144578314" y="596.3795180722892" type="line"/>
      <point x="563.3734939759036" y="596.3795180722892" type="line"/>
      <point x="563.3734939759036" y="0.0" type="line"/>
      <point x="633.2048192771084" y="0.0" type="line"/>
      <point x="633.2048192771084" y="705.0" type="line"/>
      <point x="562.6144578313254" y="705.0" type="line"/>
      <point x="343.1144578313253" y="177.53012048192772" type="line"/>
      <point x="369.3975903614458" y="177.53012048192772" type="line"/>
      <point x="148.36746987951807" y="705.0" type="line"/>
      <point x="76.30722891566265" y="705.0" type="line"/>
    </contour>
  </outline>
</glyph>
<glyph name="N" format="2">
  <advance width="611.8734939759037"/>
  <unicode hex="004E"/>
  <anchor x="305.81927710843377" y="0.0" name="bottom"/>
  <anchor x="306.0542168674699" y="705.0" name="top"/>
  <outline>
    <contour>
      <point x="74.30722891566265" y="0.0" type="line"/>
      <point x="144.13855421686745" y="0.0" type="line"/>
      <point x="144.13855421686745" y="613.2590361445783" type="line"/>
      <point x="115.38554216867472" y="613.2590361445783" type="line"/>
      <point x="478.1927710843374" y="0.0" type="line"/>
      <point x="537.566265060241" y="0.0" type="line"/>
      <point x="537.566265060241" y="705.0" type="line"/>
      <point x="467.7349397590362" y="705.0" type="line"/>
      <point x="467.7349397590362" y="92.21084337349397" type="line"/>
      <point x="495.9578313253012" y="92.21084337349397" type="line"/>
      <point x="133.9156626506024" y="705.0" type="line"/>
      <point x="74.30722891566265" y="705.0" type="line"/>
    </contour>
  </outline>
</glyph>
<glyph name="O" format="2">
  <advance width="635.8614457831325"/>
  <unicode hex="004F"/>
  <anchor x="318.04819277108436" y="-8.939759036144578" name="Qtail"/>
  <anchor x="318.04819277108436" y="0.0" name="bottom"/>
  <anchor x="318.04819277108436" y="353.0" name="center"/>
  <anchor x="364.1626506024096" y="0.0" name="ogonek"/>
  <anchor x="318.2831325301205" y="705.0" name="top"/>
  <anchor x="26.53012048192771" y="705.0" name="topleft"/>
  <anchor x="375.81325301204816" y="705.0" name="topright"/>
  <outline>
    <contour>
      <point x="318.28313253012044" y="-8.939759036144578" type="curve" smooth="yes"/>
      <point x="486.6265060240964" y="-8.939759036144578"/>
      <point x="582.4397590361446" y="122.11445783132528"/>
      <point x="582.4397590361446" y="353.23493975903614" type="curve" smooth="yes"/>
      <point x="582.4397590361446" y="584.1204819277109"/>
      <point x="486.39156626506025" y="713.9397590361446"/>
      <point x="318.28313253012044" y="713.9397590361446" type="curve" smooth="yes"/>
      <point x="149.70481927710844" y="713.9397590361446"/>
      <point x="53.89156626506024" y="583.355421686747"/>
      <point x="53.89156626506024" y="352.0" type="curve" smooth="yes"/>
      <point x="53.89156626506024" y="121.11445783132528"/>
      <point x="149.7048192771084" y="-8.939759036144578"/>
    </contour>
    <contour>
      <point x="318.28313253012044" y="57.367469879518076" type="curve" smooth="yes"/>
      <point x="195.7289156626506" y="57.367469879518076"/>
      <point x="132.42168674698797" y="158.03012048192772"/>
      <point x="132.42168674698797" y="352.0" type="curve" smooth="yes"/>
      <point x="132.42168674698797" y="547.2048192771084"/>
      <point x="195.7289156626506" y="647.632530120482"/>
      <point x="318.28313253012044" y="647.632530120482" type="curve" smooth="yes"/>
      <point x="440.8373493975903" y="647.632530120482"/>
      <point x="503.9096385542169" y="547.4397590361446"/>
      <point x="503.9096385542169" y="353.0" type="curve" smooth="yes"/>
      <point x="503.9096385542169" y="158.26506024096386"/>
      <point x="440.60240963855415" y="57.367469879518076"/>
    </contour>
  </outline>
</glyph>
<glyph name="P" format="2">
  <advance width="527.5662650602409"/>
  <unicode hex="0050"/>
  <anchor x="269.3433734939759" y="0.0" name="bottom"/>
  <anchor x="269.5783132530121" y="705.0" name="top"/>
  <outline>
    <contour>
      <point x="74.30722891566265" y="0.0" type="line"/>
      <point x="149.4277108433735" y="0.0" type="line"/>
      <point x="149.4277108433735" y="284.6686746987952" type="line"/>
      <point x="300.39156626506025" y="284.6686746987952" type="line" smooth="yes"/>
      <point x="424.210843373494" y="284.6686746987952"/>
      <point x="496.79518072289153" y="362.1927710843373"/>
      <point x="496.79518072289153" y="494.95180722891564" type="curve" smooth="yes"/>
      <point x="496.79518072289153" y="627.9457831325301"/>
      <point x="424.9759036144579" y="705.0"/>
      <point x="300.39156626506025" y="705.0" type="curve" smooth="yes"/>
      <point x="74.30722891566265" y="705.0" type="line"/>
    </contour>
    <contour>
      <point x="149.4277108433735" y="346.68674698795184" type="line"/>
      <point x="149.4277108433735" y="642.9819277108435" type="line"/>
      <point x="290.40361445783134" y="642.9819277108435" type="line" smooth="yes"/>
      <point x="376.54216867469876" y="642.9819277108435"/>
      <point x="422.49397590361446" y="590.5602409638554"/>
      <point x="422.49397590361446" y="494.95180722891564" type="curve" smooth="yes"/>
      <point x="422.49397590361446" y="399.3433734939759"/>
      <point x="376.54216867469876" y="346.68674698795184"/>
      <point x="290.40361445783134" y="346.68674698795184" type="curve" smooth="yes"/>
    </contour>
  </outline>
</glyph>
<glyph name="R" format="2">
  <advance width="555.9216867469879"/>
  <unicode hex="0052"/>
  <anchor x="283.1084337349398" y="0.0" name="bottom"/>
  <anchor x="282.8734939759036" y="705.0" name="top"/>
  <outline>
    <contour>
      <point x="74.30722891566265" y="0.0" type="line"/>
      <point x="149.4277108433735" y="0.0" type="line"/>
      <point x="149.4277108433735" y="298.9638554216868" type="line"/>
      <point x="243.8192771084337" y="298.9638554216868" type="line" smooth="yes"/>
      <point x="299.3072289156626" y="298.9638554216868"/>
      <point x="326.3734939759036" y="279.54819277108436"/>
      <point x="350.9096385542169" y="223.65060240963857" type="curve" smooth="yes"/>
      <point x="447.2650602409639" y="0.0" type="line"/>
      <point x="530.6144578313254" y="0.0" type="line"/>
      <point x="430.95783132530124" y="231.07831325301206" type="line" smooth="yes"/>
      <point x="406.42771084337346" y="288.1385542168675"/>
      <point x="372.54819277108436" y="315.37349397590367"/>
      <point x="329.1385542168675" y="315.37349397590367" type="curve" smooth="yes"/>
      <point x="310.39156626506025" y="315.37349397590367" type="line"/>
      <point x="304.21686746987956" y="301.9638554216868" type="line"/>
      <point x="424.68072289156623" y="301.9638554216868"/>
      <point x="496.79518072289153" y="377.7831325301205"/>
      <point x="496.79518072289153" y="503.71686746987956" type="curve" smooth="yes"/>
      <point x="496.79518072289153" y="631.0060240963855"/>
      <point x="424.5060240963856" y="705.0"/>
      <point x="300.4518072289157" y="705.0" type="curve" smooth="yes"/>
      <point x="74.30722891566265" y="705.0" type="line"/>
    </contour>
    <contour>
      <point x="149.4277108433735" y="358.63253012048193" type="line"/>
      <point x="149.4277108433735" y="642.9819277108435" type="line"/>
      <point x="288.69879518072287" y="642.9819277108435" type="line" smooth="yes"/>
      <point x="375.3072289156626" y="642.9819277108435"/>
      <point x="422.49397590361446" y="593.8554216867469"/>
      <point x="422.49397590361446" y="502.8373493975904" type="curve" smooth="yes"/>
      <point x="422.49397590361446" y="410.05421686746985"/>
      <point x="374.54216867469876" y="358.63253012048193"/>
      <point x="288.69879518072287" y="358.63253012048193" type="curve" smooth="yes"/>
    </contour>
  </outline>
</glyph>
<glyph name="S" format="2">
  <advance width="511.4518072289157"/>
  <unicode hex="0053"/>
  <anchor x="263.1686746987952" y="0.0" name="bottom"/>
  <anchor x="261.6927710843373" y="705.0" name="top"/>
  <outline>
    <contour>
      <point x="256.69879518072287" y="-8.939759036144578" type="curve" smooth="yes"/>
      <point x="391.27710843373495" y="-8.939759036144578"/>
      <point x="475.855421686747" y="64.2289156626506"/>
      <point x="475.855421686747" y="183.21686746987953" type="curve" smooth="yes"/>
      <point x="475.855421686747" y="276.0361445783132"/>
      <point x="424.3855421686747" y="334.1506024096385"/>
      <point x="315.73493975903614" y="364.7409638554217" type="curve" smooth="yes"/>
      <point x="230.44578313253012" y="388.9759036144578" type="line" smooth="yes"/>
      <point x="165.0180722891566" y="407.9216867469879"/>
      <point x="131.95180722891567" y="450.40361445783134"/>
      <point x="131.95180722891567" y="514.1265060240963" type="curve" smooth="yes"/>
      <point x="131.95180722891567" y="597.7951807228916"/>
      <point x="185.1987951807229" y="647.5722891566265"/>
      <point x="273.98192771084337" y="647.5722891566265" type="curve" smooth="yes"/>
      <point x="334.9879518072289" y="647.5722891566265"/>
      <point x="389.57228915662654" y="624.2771084337348"/>
      <point x="435.51807228915663" y="577.1506024096385" type="curve"/>
      <point x="459.0361445783132" y="635.4638554216867" type="line"/>
      <point x="413.566265060241" y="685.644578313253"/>
      <point x="345.27710843373495" y="713.9397590361446"/>
      <point x="269.86746987951807" y="713.9397590361446" type="curve" smooth="yes"/>
      <point x="140.34939759036143" y="713.9397590361446"/>
      <point x="56.24096385542168" y="633.4759036144579"/>
      <point x="56.24096385542168" y="508.83734939759034" type="curve" smooth="yes"/>
      <point x="56.24096385542168" y="411.1927710843373"/>
      <point x="106.47590361445782" y="352.3132530120482"/>
      <point x="207.94578313253012" y="322.7831325301205" type="curve" smooth="yes"/>
      <point x="293.1746987951807" y="298.3132530120482" type="line" smooth="yes"/>
      <point x="367.54819277108436" y="276.54216867469876"/>
      <point x="400.37951807228916" y="239.94578313253012"/>
      <point x="400.37951807228916" y="177.9879518072289" type="curve" smooth="yes"/>
      <point x="400.37951807228916" y="99.144578313253"/>
      <point x="350.66265060240966" y="57.4277108433735"/>
      <point x="257.5240963855421" y="57.4277108433735" type="curve" smooth="yes"/>
      <point x="185.4578313253012" y="57.4277108433735"/>
      <point x="122.81927710843374" y="80.36746987951808"/>
      <point x="68.46385542168676" y="127.13855421686748" type="curve"/>
      <point x="44.94578313253012" y="66.47590361445782" type="line"/>
      <point x="96.35542168674698" y="19.06024096385542"/>
      <point x="175.289156626506" y="-8.939759036144578"/>
    </contour>
  </outline>
</glyph>
<glyph name="T" format="2">
  <advance width="502.09638554216866"/>
  <unicode hex="0054"/>
  <anchor x="251.28313253012047" y="0.0" name="bottom"/>
  <anchor x="251.5180722891566" y="358.0" name="center"/>
  <anchor x="251.5180722891566" y="705.0" name="top"/>
  <outline>
    <contour>
      <point x="213.72289156626505" y="0.0" type="line"/>
      <point x="288.84337349397595" y="0.0" type="line"/>
      <point x="288.84337349397595" y="640.1626506024097" type="line"/>
      <point x="493.3313253012048" y="640.1626506024097" type="line"/>
      <point x="493.3313253012048" y="705.0" type="line"/>
      <point x="9.234939759036145" y="705.0" type="line"/>
      <point x="9.234939759036145" y="640.1626506024097" type="line"/>
      <point x="213.72289156626505" y="640.1626506024097" type="line"/>
    </contour>
  </outline>
</glyph>
<glyph name="U" format="2">
  <advance width="603.0481927710844"/>
  <unicode hex="0055"/>
  <anchor x="301.5240963855421" y="0.0" name="bottom"/>
  <anchor x="347.99397590361446" y="0.0" name="ogonek"/>
  <anchor x="301.5240963855421" y="705.0" name="top"/>
  <anchor x="474.1867469879518" y="705.0" name="topright"/>
  <outline>
    <contour>
      <point x="301.7590361445783" y="-8.939759036144578" type="curve" smooth="yes"/>
      <point x="458.2168674698795" y="-8.939759036144578"/>
      <point x="532.7409638554217" y="75.17469879518072"/>
      <point x="532.7409638554217" y="253.4036144578313" type="curve" smooth="yes"/>
      <point x="532.7409638554217" y="705.0" type="line"/>
      <point x="458.0903614457831" y="705.0" type="line"/>
      <point x="458.0903614457831" y="257.28915662650604" type="line" smooth="yes"/>
      <point x="458.0903614457831" y="117.37951807228916"/>
      <point x="410.8433734939759" y="57.367469879518076"/>
      <point x="301.99397590361446" y="57.367469879518076" type="curve" smooth="yes"/>
      <point x="193.37951807228916" y="57.367469879518076"/>
      <point x="145.4277108433735" y="117.6144578313253"/>
      <point x="145.4277108433735" y="257.28915662650604" type="curve" smooth="yes"/>
      <point x="145.4277108433735" y="705.0" type="line"/>
      <point x="70.30722891566265" y="705.0" type="line"/>
      <point x="70.30722891566265" y="253.4036144578313" type="line" smooth="yes"/>
      <point x="70.30722891566265" y="75.40963855421687"/>
      <point x="145.3012048192771" y="-8.939759036144578"/>
    </contour>
  </outline>
</glyph>
<glyph name="V" format="2">
  <advance width="572.7951807228916"/>
  <unicode hex="0056"/>
  <anchor x="286.3975903614458" y="0.0" name="bottom"/>
  <anchor x="286.3975903614458" y="705.0" name="top"/>
  <outline>
    <contour>
      <point x="254.00602409638554" y="0.0" type="line"/>
      <point x="318.78915662650604" y="0.0" type="line"/>
      <point x="569.4879518072289" y="705.0" type="line"/>
      <point x="492.6626506024096" y="705.0" type="line"/>
      <point x="272.6385542168675" y="59.58433734939759" type="line"/>
      <point x="303.27108433734935" y="59.58433734939759" type="line"/>
      <point x="82.77710843373494" y="705.0" type="line"/>
      <point x="3.3072289156626495" y="705.0" type="line"/>
    </contour>
  </outline>
</glyph>
<glyph name="W" format="2">
  <advance width="904.6927710843373"/>
  <unicode hex="0057"/>
  <anchor x="453.2289156626506" y="0.0" name="bottom"/>
  <anchor x="452.4638554216867" y="705.0" name="top"/>
  <outline>
    <contour>
      <point x="227.36144578313252" y="0.0" type="line"/>
      <point x="293.0240963855422" y="0.0" type="line"/>
      <point x="460.1686746987952" y="622.0843373493975" type="line"/>
      <point x="444.75903614457826" y="622.0843373493975" type="line"/>
      <point x="612.1385542168674" y="0.0" type="line"/>
      <point x="677.566265060241" y="0.0" type="line"/>
      <point x="877.44578313253" y="705.0" type="line"/>
      <point x="803.2048192771084" y="705.0" type="line"/>
      <point x="633.2951807228916" y="59.22289156626506" type="line"/>
      <point x="657.5843373493975" y="59.22289156626506" type="line"/>
      <point x="482.79518072289153" y="705.0" type="line"/>
      <point x="423.8915662650603" y="705.0" type="line"/>
      <point x="248.86746987951807" y="59.22289156626506" type="line"/>
      <point x="275.45180722891564" y="59.22289156626506" type="line"/>
      <point x="105.5421686746988" y="705.0" type="line"/>
      <point x="27.951807228915662" y="705.0" type="line"/>
    </contour>
  </outline>
</glyph>
<glyph name="X" format="2">
  <advance width="541.6807228915662"/>
  <unicode hex="0058"/>
  <anchor x="271.4578313253012" y="0.0" name="bottom"/>
  <anchor x="271.22289156626505" y="705.0" name="top"/>
  <outline>
    <contour>
      <point x="10.608433734939759" y="0.0" type="line"/>
      <point x="99.60240963855422" y="0.0" type="line"/>
      <point x="285.921686746988" y="325.03012048192767" type="line"/>
      <point x="257.28915662650604" y="325.03012048192767" type="line"/>
      <point x="442.54819277108436" y="0.0" type="line"/>
      <point x="531.0722891566265" y="0.0" type="line"/>
      <point x="304.2590361445783" y="374.2228915662651" type="line"/>
      <point x="304.2590361445783" y="347.4879518072289" type="line"/>
      <point x="522.4216867469879" y="705.0" type="line"/>
      <point x="433.6626506024096" y="705.0" type="line"/>
      <point x="258.87951807228916" y="399.2710843373494" type="line"/>
      <point x="284.09638554216866" y="399.2710843373494" type="line"/>
      <point x="108.25301204819277" y="705.0" type="line"/>
      <point x="19.728915662650603" y="705.0" type="line"/>
      <point x="237.89156626506022" y="347.4879518072289" type="line"/>
      <point x="237.89156626506022" y="374.2228915662651" type="line"/>
    </contour>
  </outline>
</glyph>
<glyph name="Y" format="2">
  <advance width="496.9156626506024"/>
  <unicode hex="0059"/>
  <anchor x="248.9277108433735" y="0.0" name="bottom"/>
  <anchor x="248.69277108433735" y="705.0" name="top"/>
  <anchor x="19.53012048192771" y="705.0" name="topleft"/>
  <outline>
    <contour>
      <point x="211.13253012048193" y="0.0" type="line"/>
      <point x="286.2530120481928" y="0.0" type="line"/>
      <point x="286.4879518072289" y="365.355421686747" type="line"/>
      <point x="269.67469879518075" y="312.67469879518075" type="line"/>
      <point x="504.7228915662651" y="705.0" type="line"/>
      <point x="423.1385542168674" y="705.0" type="line"/>
      <point x="241.34337349397592" y="388.37951807228916" type="line"/>
      <point x="258.98192771084337" y="388.37951807228916" type="line"/>
      <point x="77.89156626506023" y="705.0" type="line"/>
      <point x="-7.807228915662651" y="705.0" type="line"/>
      <point x="228.41566265060243" y="312.67469879518075" type="line"/>
      <point x="211.3674698795181" y="365.355421686747" type="line"/>
    </contour>
  </outline>
</glyph>
<glyph name="Z" format="2">
  <advance width="490.9819277108434"/>
  <unicode hex="005A"/>
  <anchor x="255.16867469879517" y="0.0" name="bottom"/>
  <anchor x="254.93373493975903" y="705.0" name="top"/>
  <outline>
    <contour>
      <point x="44.59036144578313" y="0.0" type="line"/>
      <point x="468.1566265060241" y="0.0" type="line"/>
      <point x="468.1566265060241" y="64.13253012048193" type="line"/>
      <point x="113.6566265060241" y="64.13253012048193" type="line"/>
      <point x="113.6566265060241" y="37.31927710843373" type="line"/>
      <point x="455.68674698795184" y="650.7469879518072" type="line"/>
      <point x="455.68674698795184" y="705.0" type="line"/>
      <point x="44.59036144578313" y="705.0" type="line"/>
      <point x="44.59036144578313" y="640.8674698795181" type="line"/>
      <point x="386.62048192771084" y="640.8674698795181" type="line"/>
      <point x="386.62048192771084" y="668.1506024096385" type="line"/>
      <point x="44.59036144578313" y="54.25301204819277" type="line"/>
    </contour>
  </outline>
</glyph>
<glyph name="bracketleft" format="2">
  <advance width="273.5421686746988"/>
  <unicode hex="005B"/>
  <outline>
    <contour>
      <point x="92.94578313253012" y="-180.0" type="line"/>
      <point x="260.7228915662651" y="-180.0" type="line"/>
      <point x="260.7228915662651" y="-122.09638554216868" type="line"/>
      <point x="166.65662650602408" y="-122.09638554216868" type="line"/>
      <point x="166.65662650602408" y="647.0963855421686" type="line"/>
      <point x="260.7228915662651" y="647.0963855421686" type="line"/>
      <point x="260.7228915662651" y="705.0" type="line"/>
      <point x="92.94578313253012" y="705.0" type="line"/>
    </contour>
  </outline>
</glyph>
<glyph name="bracketright" format="2">
  <advance width="273.5421686746988"/>
  <unicode hex="005D"/>
  <outline>
    <contour>
      <point x="12.819277108433736" y="-180.0" type="line"/>
      <point x="180.83132530120483" y="-180.0" type="line"/>
      <point x="180.83132530120483" y="705.0" type="line"/>
      <point x="12.819277108433736" y="705.0" type="line"/>
      <point x="12.819277108433736" y="647.0963855421686" type="line"/>
      <point x="107.12048192771084" y="647.0963855421686" type="line"/>
      <point x="107.12048192771084" y="-122.09638554216868" type="line"/>
      <point x="12.819277108433736" y="-122.09638554216868" type="line"/>
    </contour>
  </outline>
</glyph>
<glyph name="asciicircum" format="2">
  <advance width="498.0"/>
  <unicode hex="005E"/>
  <outline>
    <contour>
      <point x="16.481927710843372" y="168.47590361445782" type="line"/>
      <point x="82.44578313253012" y="168.47590361445782" type="line"/>
      <point x="267.22289156626505" y="598.3012048192771" type="line"/>
      <point x="231.2469879518072" y="598.3012048192771" type="line"/>
      <point x="415.55421686746985" y="168.47590361445782" type="line"/>
      <point x="481.5180722891567" y="168.47590361445782" type="line"/>
      <point x="277.68674698795184" y="628.0" type="line"/>
      <point x="220.3132530120482" y="628.0" type="line"/>
    </contour>
  </outline>
</glyph>
<glyph name="underscore" format="2">
  <advance width="416.06024096385545"/>
  <unicode hex="005F"/>
  <outline>
    <contour>
      <point x="21.53012048192771" y="-48.325301204819276" type="line"/>
      <point x="394.5301204819277" y="-48.325301204819276" type="line"/>
      <point x="394.5301204819277" y="0.0" type="line"/>
      <point x="21.53012048192771" y="0.0" type="line"/>
    </contour>
  </outline>
</glyph>
<glyph name="a" format="2">
  <advance width="443.39156626506025"/>
  <unicode hex="0061"/>
  <anchor x="224.16867469879517" y="0.0" name="bottom"/>
  <anchor x="368.27710843373495" y="0.0" name="ogonek"/>
  <anchor x="226.63855421686745" y="484.0" name="top"/>
  <outline>
    <contour>
      <point x="190.36144578313255" y="-8.939759036144578" type="curve" smooth="yes"/>
      <point x="253.53614457831324" y="-8.939759036144578"/>
      <point x="301.6626506024096" y="34.18072289156626"/>
      <point x="318.4879518072289" y="108.83132530120483" type="curve"/>
      <point x="311.13253012048193" y="108.83132530120483" type="line"/>
      <point x="311.13253012048193" y="0.0" type="line"/>
      <point x="380.78915662650604" y="0.0" type="line"/>
      <point x="380.78915662650604" y="326.9578313253012" type="line" smooth="yes"/>
      <point x="380.78915662650604" y="441.1807228915663"/>
      <point x="334.03614457831327" y="495.28915662650604"/>
      <point x="230.7590361445783" y="495.28915662650604" type="curve" smooth="yes"/>
      <point x="172.59036144578315" y="495.28915662650604"/>
      <point x="109.1867469879518" y="475.05421686746985"/>
      <point x="62.60240963855422" y="441.34939759036143" type="curve"/>
      <point x="88.59036144578313" y="386.5" type="line"/>
      <point x="135.4156626506024" y="420.62048192771084"/>
      <point x="181.29518072289156" y="434.38554216867465"/>
      <point x="226.355421686747" y="434.38554216867465" type="curve" smooth="yes"/>
      <point x="286.0120481927711" y="434.38554216867465"/>
      <point x="309.6626506024096" y="404.5542168674699"/>
      <point x="309.6626506024096" y="332.53614457831327" type="curve" smooth="yes"/>
      <point x="309.6626506024096" y="188.7710843373494" type="line" smooth="yes"/>
      <point x="309.6626506024096" y="104.10240963855422"/>
      <point x="260.5903614457831" y="47.90963855421687"/>
      <point x="206.69277108433735" y="47.90963855421687" type="curve" smooth="yes"/>
      <point x="156.15060240963857" y="47.90963855421687"/>
      <point x="121.02409638554215" y="86.03614457831326"/>
      <point x="121.02409638554215" y="140.93373493975903" type="curve" smooth="yes"/>
      <point x="121.02409638554215" y="207.65662650602408"/>
      <point x="157.32530120481928" y="229.36746987951807"/>
      <point x="288.0722891566265" y="229.36746987951807" type="curve" smooth="yes"/>
      <point x="320.3072289156626" y="229.36746987951807" type="line"/>
      <point x="320.3072289156626" y="280.2831325301205" type="line"/>
      <point x="280.66867469879514" y="280.2831325301205" type="line" smooth="yes"/>
      <point x="110.00602409638553" y="280.2831325301205"/>
      <point x="47.367469879518076" y="240.75903614457832"/>
      <point x="47.367469879518076" y="140.46385542168676" type="curve" smooth="yes"/>
      <point x="47.367469879518076" y="61.59036144578313"/>
      <point x="107.71084337349399" y="-8.939759036144578"/>
    </contour>
  </outline>
</glyph>
<glyph name="b" format="2">
  <advance width="486.68674698795184"/>
  <unicode hex="0062"/>
  <anchor x="242.34939759036143" y="0.0" name="bottom"/>
  <anchor x="247.28313253012047" y="705.0" name="top"/>
  <outline>
    <contour>
      <point x="271.43975903614455" y="-8.939759036144578" type="curve" smooth="yes"/>
      <point x="381.0301204819277" y="-8.939759036144578"/>
      <point x="445.50000000000006" y="83.70481927710843"/>
      <point x="445.50000000000006" y="243.40963855421685" type="curve" smooth="yes"/>
      <point x="445.50000000000006" y="403.1144578313253"/>
      <point x="381.0301204819277" y="495.28915662650604"/>
      <point x="271.2048192771084" y="495.28915662650604" type="curve" smooth="yes"/>
      <point x="197.8433734939759" y="495.28915662650604"/>
      <point x="145.9036144578313" y="453.1686746987952"/>
      <point x="127.90361445783132" y="374.5120481927711" type="curve"/>
      <point x="138.54819277108433" y="374.5120481927711" type="line"/>
      <point x="138.54819277108433" y="705.0" type="line"/>
      <point x="64.83734939759036" y="705.0" type="line"/>
      <point x="64.83734939759036" y="0.0" type="line"/>
      <point x="137.60843373493975" y="0.0" type="line"/>
      <point x="137.60843373493975" y="112.30722891566265" type="line"/>
      <point x="127.90361445783131" y="112.30722891566265" type="line"/>
      <point x="145.9036144578313" y="33.415662650602414"/>
      <point x="197.60843373493978" y="-8.939759036144578"/>
    </contour>
    <contour>
      <point x="253.93373493975903" y="51.493975903614455" type="curve" smooth="yes"/>
      <point x="176.79518072289156" y="51.493975903614455"/>
      <point x="137.07831325301206" y="114.39156626506025"/>
      <point x="137.07831325301206" y="243.40963855421685" type="curve" smooth="yes"/>
      <point x="137.07831325301206" y="372.42771084337346"/>
      <point x="176.79518072289156" y="434.855421686747"/>
      <point x="253.93373493975903" y="434.855421686747" type="curve" smooth="yes"/>
      <point x="330.6024096385542" y="434.855421686747"/>
      <point x="370.789156626506" y="372.42771084337346"/>
      <point x="370.789156626506" y="243.40963855421685" type="curve" smooth="yes"/>
      <point x="370.789156626506" y="114.39156626506025"/>
      <point x="330.6024096385542" y="51.493975903614455"/>
    </contour>
  </outline>
</glyph>
<glyph name="c" format="2">
  <advance width="387.3433734939759"/>
  <unicode hex="0063"/>
  <anchor x="231.7590361445783" y="0.0" name="bottom"/>
  <anchor x="228.69879518072287" y="484.0" name="top"/>
  <outline>
    <contour>
      <point x="233.9277108433735" y="-8.939759036144578" type="curve" smooth="yes"/>
      <point x="285.3975903614458" y="-8.939759036144578"/>
      <point x="334.921686746988" y="11.120481927710845"/>
      <point x="368.9216867469879" y="45.7710843373494" type="curve"/>
      <point x="341.3433734939759" y="98.96987951807229" type="line"/>
      <point x="312.9879518072289" y="68.49397590361446"/>
      <point x="278.9879518072289" y="52.19879518072289"/>
      <point x="238.39156626506025" y="52.19879518072289" type="curve" smooth="yes"/>
      <point x="159.13855421686748" y="52.19879518072289"/>
      <point x="116.60240963855422" y="115.80120481927712"/>
      <point x="116.60240963855422" y="242.40963855421685" type="curve" smooth="yes"/>
      <point x="116.60240963855422" y="372.5481927710843"/>
      <point x="158.3734939759036" y="434.15060240963857"/>
      <point x="238.6867469879518" y="434.15060240963857" type="curve" smooth="yes"/>
      <point x="279.22289156626505" y="434.15060240963857"/>
      <point x="313.2831325301205" y="418.0903614457831"/>
      <point x="342.10843373493975" y="387.0843373493976" type="curve"/>
      <point x="368.9216867469879" y="440.5783132530121" type="line"/>
      <point x="335.68674698795184" y="475.6987951807229"/>
      <point x="286.16265060240966" y="495.28915662650604"/>
      <point x="233.16265060240963" y="495.28915662650604" type="curve" smooth="yes"/>
      <point x="111.76506024096386" y="495.28915662650604"/>
      <point x="41.18674698795181" y="403.644578313253"/>
      <point x="41.18674698795181" y="244.17469879518072" type="curve" smooth="yes"/>
      <point x="41.18674698795181" y="81.93975903614458"/>
      <point x="111.0" y="-8.939759036144578"/>
    </contour>
  </outline>
</glyph>
<glyph name="d" format="2">
  <advance width="486.68674698795184"/>
  <unicode hex="0064"/>
  <anchor x="241.04819277108436" y="0.0" name="bottom"/>
  <anchor x="241.52409638554215" y="245.46987951807228" name="center"/>
  <anchor x="343.4638554216868" y="582.5240963855422" name="stroke"/>
  <anchor x="241.04819277108436" y="484.0" name="top"/>
  <anchor x="458.15060240963857" y="705.0" name="topright"/>
  <outline>
    <contour>
      <point x="215.2469879518072" y="-8.939759036144578" type="curve" smooth="yes"/>
      <point x="290.72289156626505" y="-8.939759036144578"/>
      <point x="340.5481927710843" y="33.415662650602414"/>
      <point x="357.60843373493975" y="112.30722891566265" type="curve"/>
      <point x="349.078313253012" y="112.30722891566265" type="line"/>
      <point x="349.078313253012" y="0.0" type="line"/>
      <point x="421.8493975903615" y="0.0" type="line"/>
      <point x="421.8493975903615" y="705.0" type="line"/>
      <point x="348.1385542168675" y="705.0" type="line"/>
      <point x="348.1385542168675" y="374.5120481927711" type="line"/>
      <point x="357.6084337349398" y="374.5120481927711" type="line"/>
      <point x="340.54819277108436" y="453.1686746987952"/>
      <point x="290.95783132530124" y="495.28915662650604"/>
      <point x="215.48192771084337" y="495.28915662650604" type="curve" smooth="yes"/>
      <point x="105.6566265060241" y="495.28915662650604"/>
      <point x="41.18674698795181" y="403.1144578313253"/>
      <point x="41.18674698795181" y="243.40963855421685" type="curve" smooth="yes"/>
      <point x="41.18674698795181" y="83.70481927710843"/>
      <point x="105.6566265060241" y="-8.939759036144578"/>
    </contour>
    <contour>
      <point x="232.7530120481928" y="51.493975903614455" type="curve" smooth="yes"/>
      <point x="155.14457831325302" y="51.493975903614455"/>
      <point x="115.8975903614458" y="116.2710843373494"/>
      <point x="115.8975903614458" y="243.40963855421685" type="curve" smooth="yes"/>
      <point x="115.8975903614458" y="370.5481927710843"/>
      <point x="155.14457831325302" y="434.855421686747"/>
      <point x="232.7530120481928" y="434.855421686747" type="curve" smooth="yes"/>
      <point x="309.89156626506025" y="434.855421686747"/>
      <point x="349.60843373493975" y="370.31325301204816"/>
      <point x="349.60843373493975" y="243.40963855421685" type="curve" smooth="yes"/>
      <point x="349.60843373493975" y="116.50602409638554"/>
      <point x="309.89156626506025" y="51.493975903614455"/>
    </contour>
  </outline>
</glyph>
<glyph name="e" format="2">
  <advance width="444.0481927710843"/>
  <unicode hex="0065"/>
  <anchor x="233.34939759036146" y="0.0" name="bottom"/>
  <anchor x="313.1566265060241" y="0.0" name="ogonek"/>
  <anchor x="233.34939759036146" y="484.0" name="top"/>
  <outline>
    <contour>
      <point x="247.57831325301206" y="-8.939759036144578" type="curve" smooth="yes"/>
      <point x="305.7530120481928" y="-8.939759036144578"/>
      <point x="360.1626506024096" y="11.120481927710845"/>
      <point x="401.1566265060241" y="49.65060240963855" type="curve"/>
      <point x="374.28313253012044" y="101.50000000000001" type="line"/>
      <point x="337.9879518072289" y="66.25903614457832"/>
      <point x="294.2831325301205" y="51.493975903614455"/>
      <point x="249.4578313253012" y="51.493975903614455" type="curve" smooth="yes"/>
      <point x="160.97590361445785" y="51.493975903614455"/>
      <point x="112.60843373493977" y="104.21084337349397"/>
      <point x="112.60843373493977" y="233.5963855421687" type="curve" smooth="yes"/>
      <point x="112.60843373493977" y="248.93373493975903" type="line" smooth="yes"/>
      <point x="112.60843373493977" y="375.0120481927711"/>
      <point x="158.44578313253012" y="439.14457831325296"/>
      <point x="235.46385542168676" y="439.14457831325296" type="curve" smooth="yes"/>
      <point x="307.6024096385542" y="439.14457831325296"/>
      <point x="342.7289156626506" y="389.83734939759034"/>
      <point x="342.7289156626506" y="264.3433734939759" type="curve"/>
      <point x="356.433734939759" y="278.4578313253012" type="line"/>
      <point x="98.90361445783132" y="278.4578313253012" type="line"/>
      <point x="98.90361445783132" y="226.6024096385542" type="line"/>
      <point x="406.6265060240964" y="226.6024096385542" type="line"/>
      <point x="406.6265060240964" y="262.5903614457831" type="line" smooth="yes"/>
      <point x="406.6265060240964" y="414.4698795180723"/>
      <point x="347.3975903614458" y="495.28915662650604"/>
      <point x="234.8192771084337" y="495.28915662650604" type="curve" smooth="yes"/>
      <point x="115.94578313253012" y="495.28915662650604"/>
      <point x="41.18674698795181" y="399.34939759036143"/>
      <point x="41.18674698795181" y="241.64457831325302" type="curve" smooth="yes"/>
      <point x="41.18674698795181" y="70.2289156626506"/>
      <point x="121.47590361445783" y="-8.939759036144578"/>
    </contour>
  </outline>
</glyph>
<glyph name="f" format="2">
  <advance width="286.96385542168673"/>
  <unicode hex="0066"/>
  <anchor x="124.56626506024097" y="0.0" name="bottom"/>
  <anchor x="124.56626506024097" y="705.0" name="top"/>
  <outline>
    <contour>
      <point x="87.47590361445783" y="0.0" type="line"/>
      <point x="161.1867469879518" y="0.0" type="line"/>
      <point x="161.1867469879518" y="429.4457831325301" type="line"/>
      <point x="272.7831325301205" y="429.4457831325301" type="line"/>
      <point x="272.7831325301205" y="486.34939759036143" type="line"/>
      <point x="141.78915662650604" y="486.34939759036143" type="line"/>
      <point x="161.1867469879518" y="467.18674698795184" type="line"/>
      <point x="161.1867469879518" y="527.710843373494" type="line" smooth="yes"/>
      <point x="161.1867469879518" y="609.9638554216867"/>
      <point x="187.77710843373492" y="643.1506024096386"/>
      <point x="254.54819277108433" y="648.4457831325301" type="curve" smooth="yes"/>
      <point x="291.5481927710843" y="651.4457831325301" type="line"/>
      <point x="286.3734939759036" y="708.4096385542168" type="line"/>
      <point x="252.62048192771084" y="706.1746987951807" type="line" smooth="yes"/>
      <point x="135.7590361445783" y="697.9397590361446"/>
      <point x="87.47590361445783" y="641.7710843373494"/>
      <point x="87.47590361445783" y="519.2530120481928" type="curve" smooth="yes"/>
      <point x="87.47590361445783" y="466.95180722891564" type="line"/>
      <point x="107.10843373493975" y="486.34939759036143" type="line"/>
      <point x="10.650602409638553" y="486.34939759036143" type="line"/>
      <point x="10.650602409638553" y="429.4457831325301" type="line"/>
      <point x="87.47590361445783" y="429.4457831325301" type="line"/>
    </contour>
  </outline>
</glyph>
<glyph name="g" format="2">
  <advance width="487.8614457831325"/>
  <unicode hex="0067"/>
  <anchor x="241.0481927710843" y="484.0" name="top"/>
  <outline>
    <contour>
      <point x="239.00000000000003" y="-188.93975903614458" type="curve" smooth="yes"/>
      <point x="362.3313253012048" y="-188.93975903614458"/>
      <point x="423.0240963855422" y="-121.89156626506023"/>
      <point x="423.0240963855422" y="14.385542168674698" type="curve" smooth="yes"/>
      <point x="423.0240963855422" y="486.34939759036143" type="line"/>
      <point x="350.2530120481928" y="486.34939759036143" type="line"/>
      <point x="350.2530120481928" y="374.27710843373495" type="line"/>
      <point x="358.7831325301205" y="374.27710843373495" type="line"/>
      <point x="341.9578313253012" y="453.1686746987952"/>
      <point x="291.8975903614458" y="495.28915662650604"/>
      <point x="215.95180722891564" y="495.28915662650604" type="curve" smooth="yes"/>
      <point x="105.6566265060241" y="495.28915662650604"/>
      <point x="41.18674698795181" y="407.1144578313253"/>
      <point x="41.18674698795181" y="254.1144578313253" type="curve" smooth="yes"/>
      <point x="41.18674698795181" y="101.1144578313253"/>
      <point x="105.6566265060241" y="12.46987951807229"/>
      <point x="215.7168674698795" y="12.46987951807229" type="curve" smooth="yes"/>
      <point x="291.4277108433735" y="12.46987951807229"/>
      <point x="341.9578313253012" y="54.59036144578313"/>
      <point x="358.78313253012044" y="133.7168674698795" type="curve"/>
      <point x="350.48795180722897" y="133.7168674698795" type="line"/>
      <point x="350.48795180722897" y="9.21686746987952" type="line" smooth="yes"/>
      <point x="350.48795180722897" y="-86.32530120481927"/>
      <point x="314.83734939759034" y="-129.2710843373494"/>
      <point x="236.65060240963854" y="-129.2710843373494" type="curve" smooth="yes"/>
      <point x="185.0" y="-129.2710843373494"/>
      <point x="140.5963855421687" y="-113.8012048192771"/>
      <point x="87.47590361445782" y="-76.5602409638554" type="curve"/>
      <point x="62.4277108433735" y="-129.81927710843374" type="line"/>
      <point x="114.36746987951807" y="-168.93975903614458"/>
      <point x="173.53614457831324" y="-188.93975903614458"/>
    </contour>
    <contour>
      <point x="233.4578313253012" y="72.90361445783132" type="curve" smooth="yes"/>
      <point x="155.6144578313253" y="72.90361445783132"/>
      <point x="115.8975903614458" y="134.44578313253012"/>
      <point x="115.8975903614458" y="254.1144578313253" type="curve" smooth="yes"/>
      <point x="115.8975903614458" y="373.7831325301205"/>
      <point x="155.6144578313253" y="434.855421686747"/>
      <point x="233.4578313253012" y="434.855421686747" type="curve" smooth="yes"/>
      <point x="311.066265060241" y="434.855421686747"/>
      <point x="350.78313253012044" y="373.54819277108436"/>
      <point x="350.78313253012044" y="254.1144578313253" type="curve" smooth="yes"/>
      <point x="350.78313253012044" y="134.68072289156626"/>
      <point x="311.066265060241" y="72.90361445783132"/>
    </contour>
  </outline>
</glyph>
<glyph name="h" format="2">
  <advance width="473.921686746988"/>
  <unicode hex="0068"/>
  <anchor x="237.8132530120482" y="0.0" name="bottom"/>
  <anchor x="237.8132530120482" y="246.17469879518072" name="center"/>
  <anchor x="218.05421686746988" y="352.5301204819277" name="dot"/>
  <anchor x="142.69277108433735" y="582.5240963855422" name="stroke"/>
  <anchor x="238.34337349397592" y="705.0" name="top"/>
  <anchor x="166.61445783132532" y="705.0" name="topright"/>
  <outline>
    <contour>
      <point x="64.83734939759036" y="0.0" type="line"/>
      <point x="138.54819277108433" y="0.0" type="line"/>
      <point x="138.54819277108433" y="304.76506024096386" type="line" smooth="yes"/>
      <point x="138.54819277108433" y="386.19879518072287"/>
      <point x="189.2710843373494" y="433.68072289156623"/>
      <point x="254.289156626506" y="433.68072289156623" type="curve" smooth="yes"/>
      <point x="304.1867469879518" y="433.68072289156623"/>
      <point x="337.60843373493975" y="409.20481927710847"/>
      <point x="337.60843373493975" y="321.4156626506024" type="curve" smooth="yes"/>
      <point x="337.60843373493975" y="0.0" type="line"/>
      <point x="411.31927710843377" y="0.0" type="line"/>
      <point x="411.31927710843377" y="327.70481927710847" type="line" smooth="yes"/>
      <point x="411.31927710843377" y="446.5903614457832"/>
      <point x="358.3734939759036" y="495.28915662650604"/>
      <point x="275.0240963855422" y="495.28915662650604" type="curve" smooth="yes"/>
      <point x="201.60843373493975" y="495.28915662650604"/>
      <point x="150.25301204819277" y="453.1686746987952"/>
      <point x="130.0180722891566" y="391.3433734939759" type="curve"/>
      <point x="138.54819277108433" y="391.3433734939759" type="line"/>
      <point x="138.54819277108433" y="705.0" type="line"/>
      <point x="64.83734939759036" y="705.0" type="line"/>
    </contour>
  </outline>
</glyph>
<glyph name="i" format="2">
  <advance width="203.3855421686747"/>
  <unicode hex="0069"/>
  <anchor x="101.4578313253012" y="0.0" name="bottom"/>
  <anchor x="127.03614457831326" y="0.0" name="ogonek"/>
  <outline>
    <contour>
      <point x="57.246987951807235" y="609.9578313253012" type="line"/>
      <point x="145.13855421686745" y="609.9578313253012" type="line"/>
      <point x="145.13855421686745" y="694.8012048192771" type="line"/>
      <point x="57.246987951807235" y="694.8012048192771" type="line"/>
    </contour>
    <contour>
      <point x="64.83734939759036" y="0.0" type="line"/>
      <point x="138.54819277108433" y="0.0" type="line"/>
      <point x="138.54819277108433" y="486.34939759036143" type="line"/>
      <point x="64.83734939759036" y="486.34939759036143" type="line"/>
    </contour>
  </outline>
</glyph>
<glyph name="j" format="2">
  <advance width="206.09036144578312"/>
  <unicode hex="006A"/>
  <outline>
    <contour>
      <point x="59.95180722891567" y="609.9578313253012" type="line"/>
      <point x="147.84337349397592" y="609.9578313253012" type="line"/>
      <point x="147.84337349397592" y="694.8012048192771" type="line"/>
      <point x="59.95180722891567" y="694.8012048192771" type="line"/>
    </contour>
    <contour>
      <point x="-34.24096385542169" y="-193.0" type="line"/>
      <point x="0.759036144578313" y="-190.0" type="line" smooth="yes"/>
      <point x="105.25301204819277" y="-180.8855421686747"/>
      <point x="141.25301204819277" y="-131.47590361445782"/>
      <point x="141.25301204819277" y="-26.60843373493976" type="curve" smooth="yes"/>
      <point x="141.25301204819277" y="486.34939759036143" type="line"/>
      <point x="67.5421686746988" y="486.34939759036143" type="line"/>
      <point x="67.5421686746988" y="-33.18674698795181" type="line" smooth="yes"/>
      <point x="67.5421686746988" y="-104.79518072289156"/>
      <point x="41.24096385542168" y="-126.56626506024097"/>
      <point x="-3.710843373493975" y="-131.80120481927713" type="curve" smooth="yes"/>
      <point x="-39.825301204819276" y="-135.74096385542168" type="line"/>
    </contour>
  </outline>
</glyph>
<glyph name="k" format="2">
  <advance width="417.83734939759034"/>
  <unicode hex="006B"/>
  <anchor x="211.09638554216866" y="0.0" name="bottom"/>
  <anchor x="238.34337349397592" y="705.0" name="top"/>
  <outline>
    <contour>
      <point x="64.83734939759036" y="0.0" type="line"/>
      <point x="138.54819277108433" y="0.0" type="line"/>
      <point x="138.54819277108433" y="229.77710843373495" type="line"/>
      <point x="140.54819277108433" y="229.77710843373495" type="line"/>
      <point x="331.6506024096385" y="0.0" type="line"/>
      <point x="425.12048192771084" y="0.0" type="line"/>
      <point x="198.90963855421688" y="273.6385542168675" type="line"/>
      <point x="197.9698795180723" y="231.59036144578315" type="line"/>
      <point x="410.28915662650604" y="486.34939759036143" type="line"/>
      <point x="320.2289156626506" y="486.34939759036143" type="line"/>
      <point x="140.54819277108433" y="268.16265060240966" type="line"/>
      <point x="138.54819277108433" y="268.16265060240966" type="line"/>
      <point x="138.54819277108433" y="705.0" type="line"/>
      <point x="64.83734939759036" y="705.0" type="line"/>
    </contour>
  </outline>
</glyph>
<glyph name="l" format="2">
  <advance width="254.855421686747"/>
  <unicode hex="006C"/>
  <anchor x="157.2289156626506" y="0.0" name="bottom"/>
  <anchor x="109.10843373493975" y="357.0" name="center"/>
  <anchor x="239.6024096385542" y="357.0" name="dot"/>
  <anchor x="101.4578313253012" y="705.0" name="top"/>
  <anchor x="174.31927710843374" y="705.0" name="topright"/>
  <outline>
    <contour>
      <point x="190.04819277108436" y="-8.939759036144578" type="curve" smooth="yes"/>
      <point x="204.45180722891567" y="-8.939759036144578"/>
      <point x="218.91566265060243" y="-7.0"/>
      <point x="240.62048192771084" y="-2.2951807228915664" type="curve"/>
      <point x="242.15060240963857" y="58.78313253012048" type="line"/>
      <point x="235.62048192771084" y="55.78313253012048"/>
      <point x="219.5602409638554" y="54.01807228915663"/>
      <point x="206.26506024096386" y="54.01807228915663" type="curve" smooth="yes"/>
      <point x="149.25301204819277" y="54.01807228915663"/>
      <point x="138.54819277108433" y="95.5"/>
      <point x="138.54819277108433" y="147.15060240963854" type="curve" smooth="yes"/>
      <point x="138.54819277108433" y="705.0" type="line"/>
      <point x="64.83734939759036" y="705.0" type="line"/>
      <point x="64.83734939759036" y="144.68072289156626" type="line" smooth="yes"/>
      <point x="64.83734939759036" y="39.28915662650603"/>
      <point x="105.06626506024095" y="-8.939759036144578"/>
    </contour>
  </outline>
</glyph>
<glyph name="m" format="2">
  <advance width="718.6807228915663"/>
  <unicode hex="006D"/>
  <anchor x="360.45783132530124" y="0.0" name="bottom"/>
  <anchor x="360.45783132530124" y="484.0" name="top"/>
  <outline>
    <contour>
      <point x="66.83734939759036" y="0.0" type="line"/>
      <point x="140.54819277108433" y="0.0" type="line"/>
      <point x="140.54819277108433" y="304.76506024096386" type="line" smooth="yes"/>
      <point x="140.54819277108433" y="386.19879518072287"/>
      <point x="187.97590361445785" y="433.68072289156623"/>
      <point x="248.93373493975903" y="433.68072289156623" type="curve" smooth="yes"/>
      <point x="293.2409638554217" y="433.68072289156623"/>
      <point x="323.36746987951807" y="409.20481927710847"/>
      <point x="323.36746987951807" y="321.18072289156623" type="curve" smooth="yes"/>
      <point x="323.36746987951807" y="0.0" type="line"/>
      <point x="397.0783132530121" y="0.0" type="line"/>
      <point x="397.0783132530121" y="304.76506024096386" type="line" smooth="yes"/>
      <point x="397.0783132530121" y="386.19879518072287"/>
      <point x="444.9759036144578" y="433.68072289156623"/>
      <point x="505.4638554216868" y="433.68072289156623" type="curve" smooth="yes"/>
      <point x="550.2409638554217" y="433.68072289156623"/>
      <point x="580.367469879518" y="409.20481927710847"/>
      <point x="580.367469879518" y="321.18072289156623" type="curve" smooth="yes"/>
      <point x="580.367469879518" y="0.0" type="line"/>
      <point x="654.078313253012" y="0.0" type="line"/>
      <point x="654.078313253012" y="327.70481927710847" type="line" smooth="yes"/>
      <point x="654.078313253012" y="446.5903614457832"/>
      <point x="604.1927710843373" y="495.28915662650604"/>
      <point x="526.433734939759" y="495.28915662650604" type="curve" smooth="yes"/>
      <point x="455.4352831325301" y="495.28915662650604"/>
      <point x="403.7065" y="453.26993373493974"/>
      <point x="383.1987951807229" y="391.10843373493975" type="curve"/>
      <point x="390.90361445783134" y="391.10843373493975" type="line"/>
      <point x="376.19879518072287" y="464.5843373493976"/>
      <point x="331.60843373493975" y="495.28915662650604"/>
      <point x="269.6686746987952" y="495.28915662650604" type="curve" smooth="yes"/>
      <point x="200.3132530120482" y="495.28915662650604"/>
      <point x="150.3132530120482" y="453.16867469879514"/>
      <point x="129.8433734939759" y="391.3433734939759" type="curve"/>
      <point x="138.3734939759036" y="391.3433734939759" type="line"/>
      <point x="138.3734939759036" y="486.34939759036143" type="line"/>
      <point x="66.83734939759036" y="486.34939759036143" type="line"/>
    </contour>
  </outline>
</glyph>
<glyph name="n" format="2">
  <advance width="473.921686746988"/>
  <unicode hex="006E"/>
  <anchor x="233.22289156626505" y="0.0" name="bottom"/>
  <anchor x="233.22289156626505" y="484.0" name="top"/>
  <outline>
    <contour>
      <point x="64.83734939759036" y="0.0" type="line"/>
      <point x="138.54819277108433" y="0.0" type="line"/>
      <point x="138.54819277108433" y="304.76506024096386" type="line" smooth="yes"/>
      <point x="138.54819277108433" y="386.19879518072287"/>
      <point x="189.2710843373494" y="433.68072289156623"/>
      <point x="254.289156626506" y="433.68072289156623" type="curve" smooth="yes"/>
      <point x="304.1867469879518" y="433.68072289156623"/>
      <point x="337.60843373493975" y="409.20481927710847"/>
      <point x="337.60843373493975" y="321.4156626506024" type="curve" smooth="yes"/>
      <point x="337.60843373493975" y="0.0" type="line"/>
      <point x="411.31927710843377" y="0.0" type="line"/>
      <point x="411.31927710843377" y="327.70481927710847" type="line" smooth="yes"/>
      <point x="411.31927710843377" y="446.5903614457831"/>
      <point x="358.3734939759036" y="495.28915662650604"/>
      <point x="275.0240963855422" y="495.28915662650604" type="curve" smooth="yes"/>
      <point x="201.60843373493975" y="495.28915662650604"/>
      <point x="148.07831325301206" y="453.1686746987952"/>
      <point x="127.84337349397589" y="391.3433734939759" type="curve"/>
      <point x="136.3734939759036" y="391.3433734939759" type="line"/>
      <point x="136.3734939759036" y="486.34939759036143" type="line"/>
      <point x="64.83734939759036" y="486.34939759036143" type="line"/>
    </contour>
  </outline>
</glyph>
<glyph name="o" format="2">
  <advance width="465.5060240963856"/>
  <unicode hex="006F"/>
  <anchor x="232.7530120481928" y="0.0" name="bottom"/>
  <anchor x="232.7530120481928" y="243.17469879518072" name="center"/>
  <anchor x="269.86746987951807" y="0.0" name="ogonek"/>
  <anchor x="232.7530120481928" y="484.0" name="top"/>
  <anchor x="276.1566265060241" y="484.0" name="topright"/>
  <outline>
    <contour>
      <point x="232.7530120481928" y="-8.939759036144578" type="curve" smooth="yes"/>
      <point x="352.15060240963857" y="-8.939759036144578"/>
      <point x="424.31927710843377" y="76.1144578313253"/>
      <point x="424.31927710843377" y="243.40963855421685" type="curve" smooth="yes"/>
      <point x="424.31927710843377" y="410.23493975903614"/>
      <point x="352.15060240963857" y="495.28915662650604"/>
      <point x="232.7530120481928" y="495.28915662650604" type="curve" smooth="yes"/>
      <point x="112.88554216867472" y="495.28915662650604"/>
      <point x="41.18674698795181" y="410.23493975903614"/>
      <point x="41.18674698795181" y="243.40963855421685" type="curve" smooth="yes"/>
      <point x="41.18674698795181" y="76.1144578313253"/>
      <point x="112.88554216867472" y="-8.939759036144578"/>
    </contour>
    <contour>
      <point x="232.7530120481928" y="51.493975903614455" type="curve" smooth="yes"/>
      <point x="159.43975903614458" y="51.493975903614455"/>
      <point x="115.8975903614458" y="106.74096385542168"/>
      <point x="115.8975903614458" y="243.40963855421685" type="curve" smooth="yes"/>
      <point x="115.8975903614458" y="380.078313253012"/>
      <point x="159.43975903614458" y="434.855421686747"/>
      <point x="232.7530120481928" y="434.855421686747" type="curve" smooth="yes"/>
      <point x="305.59638554216866" y="434.855421686747"/>
      <point x="349.60843373493975" y="380.078313253012"/>
      <point x="349.60843373493975" y="243.40963855421685" type="curve" smooth="yes"/>
      <point x="349.60843373493975" y="106.74096385542168"/>
      <point x="305.59638554216866" y="51.493975903614455"/>
    </contour>
  </outline>
</glyph>
<glyph name="p" format="2">
  <advance width="486.68674698795184"/>
  <unicode hex="0070"/>
  <anchor x="245.63855421686748" y="0.0" name="bottom"/>
  <anchor x="245.63855421686748" y="484.0" name="top"/>
  <outline>
    <contour>
      <point x="64.83734939759036" y="-180.0" type="line"/>
      <point x="138.54819277108433" y="-180.0" type="line"/>
      <point x="138.54819277108433" y="112.30722891566265" type="line"/>
      <point x="128.60843373493975" y="112.30722891566265" type="line"/>
      <point x="145.66867469879517" y="33.415662650602414"/>
      <point x="195.7289156626506" y="-8.939759036144578"/>
      <point x="271.43975903614455" y="-8.939759036144578" type="curve" smooth="yes"/>
      <point x="381.0301204819277" y="-8.939759036144578"/>
      <point x="445.50000000000006" y="83.70481927710843"/>
      <point x="445.50000000000006" y="243.40963855421685" type="curve" smooth="yes"/>
      <point x="445.50000000000006" y="403.1144578313253"/>
      <point x="381.0301204819277" y="495.28915662650604"/>
      <point x="271.2048192771084" y="495.28915662650604" type="curve" smooth="yes"/>
      <point x="195.49397590361448" y="495.28915662650604"/>
      <point x="145.66867469879517" y="453.16867469879514"/>
      <point x="128.60843373493975" y="374.5120481927711" type="curve"/>
      <point x="137.60843373493975" y="374.5120481927711" type="line"/>
      <point x="137.60843373493975" y="486.34939759036143" type="line"/>
      <point x="64.83734939759036" y="486.34939759036143" type="line"/>
    </contour>
    <contour>
      <point x="253.93373493975903" y="51.493975903614455" type="curve" smooth="yes"/>
      <point x="176.32530120481928" y="51.493975903614455"/>
      <point x="137.07831325301206" y="116.50602409638554"/>
      <point x="137.07831325301206" y="243.40963855421685" type="curve" smooth="yes"/>
      <point x="137.07831325301206" y="370.31325301204816"/>
      <point x="176.32530120481928" y="434.855421686747"/>
      <point x="253.93373493975903" y="434.855421686747" type="curve" smooth="yes"/>
      <point x="331.0722891566265" y="434.855421686747"/>
      <point x="370.789156626506" y="370.5481927710843"/>
      <point x="370.789156626506" y="243.40963855421685" type="curve" smooth="yes"/>
      <point x="370.789156626506" y="116.2710843373494"/>
      <point x="331.0722891566265" y="51.493975903614455"/>
    </contour>
  </outline>
</glyph>
<glyph name="r" format="2">
  <advance width="307.01807228915663"/>
  <unicode hex="0072"/>
  <anchor x="101.92771084337349" y="0.0" name="bottom"/>
  <anchor x="181.63253012048193" y="484.0" name="top"/>
  <outline>
    <contour>
      <point x="64.83734939759036" y="0.0" type="line"/>
      <point x="139.4879518072289" y="0.0" type="line"/>
      <point x="139.4879518072289" y="286.6084337349398" type="line" smooth="yes"/>
      <point x="139.4879518072289" y="374.144578313253"/>
      <point x="180.0843373493976" y="423.5120481927711"/>
      <point x="249.92168674698792" y="430.8072289156626" type="curve" smooth="yes"/>
      <point x="296.13253012048193" y="435.2168674698795" type="line"/>
      <point x="290.9578313253012" y="498.8192771084337" type="line"/>
      <point x="265.67469879518075" y="496.34939759036143" type="line" smooth="yes"/>
      <point x="186.25903614457832" y="487.8192771084337"/>
      <point x="146.25903614457832" y="451.1746987951807"/>
      <point x="128.8433734939759" y="378.5301204819277" type="curve"/>
      <point x="136.8433734939759" y="378.5301204819277" type="line"/>
      <point x="136.8433734939759" y="486.34939759036143" type="line"/>
      <point x="64.83734939759036" y="486.34939759036143" type="line"/>
    </contour>
  </outline>
</glyph>
<glyph name="s" format="2">
  <advance width="401.69879518072287"/>
  <unicode hex="0073"/>
  <anchor x="200.81927710843374" y="0.0" name="bottom"/>
  <anchor x="208.34939759036143" y="484.0" name="top"/>
  <outline>
    <contour>
      <point x="203.93975903614458" y="-8.939759036144578" type="curve" smooth="yes"/>
      <point x="299.6927710843374" y="-8.939759036144578"/>
      <point x="361.566265060241" y="46.87951807228916"/>
      <point x="361.566265060241" y="131.22289156626508" type="curve" smooth="yes"/>
      <point x="361.566265060241" y="197.6867469879518"/>
      <point x="324.5120481927711" y="245.27108433734938"/>
      <point x="249.0421686746988" y="262.3915662650602" type="curve" smooth="yes"/>
      <point x="185.9819277108434" y="276.98192771084337" type="line" smooth="yes"/>
      <point x="142.62048192771084" y="286.1626506024096"/>
      <point x="123.73493975903615" y="314.1686746987952"/>
      <point x="123.73493975903615" y="352.355421686747" type="curve" smooth="yes"/>
      <point x="123.73493975903615" y="406.7831325301205"/>
      <point x="160.33132530120483" y="437.9096385542169"/>
      <point x="215.40361445783134" y="437.9096385542169" type="curve" smooth="yes"/>
      <point x="254.16867469879517" y="437.9096385542169"/>
      <point x="294.63253012048193" y="421.73493975903614"/>
      <point x="328.98795180722897" y="388.49397590361446" type="curve"/>
      <point x="354.1566265060241" y="439.16867469879514" type="line"/>
      <point x="318.5120481927711" y="475.5240963855422"/>
      <point x="268.16265060240966" y="495.28915662650604"/>
      <point x="214.40361445783134" y="495.28915662650604" type="curve" smooth="yes"/>
      <point x="119.53614457831326" y="495.28915662650604"/>
      <point x="54.897590361445786" y="437.4698795180723"/>
      <point x="54.897590361445786" y="348.2409638554217" type="curve" smooth="yes"/>
      <point x="54.897590361445786" y="282.71686746987956"/>
      <point x="92.71686746987952" y="235.36746987951807"/>
      <point x="163.06626506024097" y="219.5421686746988" type="curve" smooth="yes"/>
      <point x="226.1265060240964" y="204.95180722891567" type="line" smooth="yes"/>
      <point x="269.2530120481928" y="195.30120481927713"/>
      <point x="292.7289156626506" y="170.0"/>
      <point x="292.7289156626506" y="127.28313253012048" type="curve" smooth="yes"/>
      <point x="292.7289156626506" y="77.7409638554217"/>
      <point x="258.1927710843374" y="48.67469879518072"/>
      <point x="201.94578313253012" y="48.67469879518072" type="curve" smooth="yes"/>
      <point x="153.76506024096383" y="48.67469879518072"/>
      <point x="110.24096385542168" y="62.614457831325296"/>
      <point x="65.71084337349397" y="96.56024096385542" type="curve"/>
      <point x="41.77710843373494" y="45.59036144578314" type="line"/>
      <point x="81.48192771084337" y="11.53012048192771"/>
      <point x="138.94578313253012" y="-8.939759036144578"/>
    </contour>
  </outline>
</glyph>
<glyph name="t" format="2">
  <advance width="300.5481927710843"/>
  <unicode hex="0074"/>
  <anchor x="183.0421686746988" y="0.0" name="bottom"/>
  <anchor x="141.98192771084337" y="268.06626506024094" name="center"/>
  <anchor x="122.09638554216866" y="635.0" name="top"/>
  <anchor x="211.90963855421685" y="705.0" name="topright"/>
  <outline>
    <contour>
      <point x="226.6867469879518" y="-8.939759036144578" type="curve" smooth="yes"/>
      <point x="252.91566265060243" y="-8.939759036144578"/>
      <point x="285.0301204819277" y="-0.9397590361445783"/>
      <point x="300.43373493975906" y="8.409638554216867" type="curve"/>
      <point x="287.4397590361446" y="64.54819277108435" type="line"/>
      <point x="273.9698795180723" y="59.54819277108434"/>
      <point x="255.0301204819277" y="54.01807228915663"/>
      <point x="237.43975903614455" y="54.01807228915663" type="curve" smooth="yes"/>
      <point x="182.6024096385542" y="54.01807228915663"/>
      <point x="158.7168674698795" y="81.08433734939759"/>
      <point x="158.7168674698795" y="156.16265060240966" type="curve" smooth="yes"/>
      <point x="158.7168674698795" y="429.4457831325301" type="line"/>
      <point x="282.2530120481928" y="429.4457831325301" type="line"/>
      <point x="282.2530120481928" y="486.34939759036143" type="line"/>
      <point x="158.7168674698795" y="486.34939759036143" type="line"/>
      <point x="158.7168674698795" y="635.0" type="line"/>
      <point x="85.00602409638554" y="635.0" type="line"/>
      <point x="85.00602409638554" y="486.34939759036143" type="line"/>
      <point x="8.180722891566266" y="486.34939759036143" type="line"/>
      <point x="8.180722891566266" y="429.4457831325301" type="line"/>
      <point x="85.00602409638554" y="429.4457831325301" type="line"/>
      <point x="85.00602409638554" y="148.5722891566265" type="line" smooth="yes"/>
      <point x="85.00602409638554" y="39.75903614457832"/>
      <point x="131.93975903614458" y="-8.939759036144578"/>
    </contour>
  </outline>
</glyph>
<glyph name="u" format="2">
  <advance width="468.6265060240964"/>
  <unicode hex="0075"/>
  <anchor x="234.34337349397592" y="0.0" name="bottom"/>
  <anchor x="391.27710843373495" y="0.0" name="ogonek"/>
  <anchor x="234.34337349397592" y="485.0" name="top"/>
  <anchor x="346.0" y="484.0" name="topright"/>
  <outline>
    <contour>
      <point x="195.89759036144576" y="-8.939759036144578" type="curve" smooth="yes"/>
      <point x="268.1503614457832" y="-8.939759036144578"/>
      <point x="320.1058554216867" y="33.502879518072284"/>
      <point x="340.54819277108436" y="95.2409638554217" type="curve"/>
      <point x="332.2530120481928" y="95.2409638554217" type="line"/>
      <point x="332.2530120481928" y="0.0" type="line"/>
      <point x="403.78915662650604" y="0.0" type="line"/>
      <point x="403.78915662650604" y="486.34939759036143" type="line"/>
      <point x="330.078313253012" y="486.34939759036143" type="line"/>
      <point x="330.078313253012" y="181.1144578313253" type="line" smooth="yes"/>
      <point x="330.078313253012" y="99.68072289156628"/>
      <point x="280.3790722891566" y="52.66867469879518"/>
      <point x="217.1024096385542" y="52.66867469879518" type="curve" smooth="yes"/>
      <point x="168.34698795180725" y="52.66867469879518"/>
      <point x="136.3132530120482" y="76.67469879518072"/>
      <point x="136.3132530120482" y="164.69879518072287" type="curve" smooth="yes"/>
      <point x="136.3132530120482" y="486.34939759036143" type="line"/>
      <point x="62.60240963855422" y="486.34939759036143" type="line"/>
      <point x="62.60240963855422" y="158.87951807228916" type="line" smooth="yes"/>
      <point x="62.60240963855422" y="39.99397590361446"/>
      <point x="114.61022891566266" y="-8.939759036144578"/>
    </contour>
  </outline>
</glyph>
<glyph name="v" format="2">
  <advance width="429.16265060240966"/>
  <unicode hex="0076"/>
  <anchor x="215.16867469879517" y="0.0" name="bottom"/>
  <anchor x="215.16867469879517" y="484.0" name="top"/>
  <outline>
    <contour>
      <point x="180.83734939759037" y="0.0" type="line"/>
      <point x="248.32530120481928" y="0.0" type="line"/>
      <point x="418.9096385542169" y="486.34939759036143" type="line"/>
      <point x="344.8433734939759" y="486.34939759036143" type="line"/>
      <point x="201.16867469879517" y="46.524096385542165" type="line"/>
      <point x="231.4036144578313" y="46.524096385542165" type="line"/>
      <point x="89.60843373493977" y="486.34939759036143" type="line"/>
      <point x="10.487951807228916" y="486.34939759036143" type="line"/>
    </contour>
  </outline>
</glyph>
<glyph name="w" format="2">
  <advance width="693.9277108433736"/>
  <unicode hex="0077"/>
  <anchor x="347.6987951807229" y="0.0" name="bottom"/>
  <anchor x="347.6987951807229" y="484.0" name="top"/>
  <outline>
    <contour>
      <point x="171.83132530120483" y="0.0" type="line"/>
      <point x="239.67469879518075" y="0.0" type="line"/>
      <point x="361.7469879518072" y="430.3433734939759" type="line"/>
      <point x="333.65060240963857" y="430.3433734939759" type="line"/>
      <point x="455.72289156626505" y="0.0" type="line"/>
      <point x="523.566265060241" y="0.0" type="line"/>
      <point x="672.7289156626506" y="486.34939759036143" type="line"/>
      <point x="599.6024096385541" y="486.34939759036143" type="line"/>
      <point x="478.1144578313253" y="50.168674698795186" type="line"/>
      <point x="500.2349397590361" y="50.168674698795186" type="line"/>
      <point x="377.8614457831325" y="486.34939759036143" type="line"/>
      <point x="319.8855421686747" y="486.34939759036143" type="line"/>
      <point x="197.27710843373495" y="50.168674698795186" type="line"/>
      <point x="219.16265060240966" y="50.168674698795186" type="line"/>
      <point x="98.67469879518072" y="486.34939759036143" type="line"/>
      <point x="22.19879518072289" y="486.34939759036143" type="line"/>
    </contour>
  </outline>
</glyph>
<glyph name="x" format="2">
  <advance width="440.210843373494"/>
  <unicode hex="0078"/>
  <anchor x="220.4578313253012" y="0.0" name="bottom"/>
  <anchor x="220.4578313253012" y="484.0" name="top"/>
  <outline>
    <contour>
      <point x="13.668674698795181" y="0.0" type="line"/>
      <point x="99.13855421686748" y="0.0" type="line"/>
      <point x="232.6265060240964" y="214.66867469879517" type="line"/>
      <point x="207.58433734939757" y="214.66867469879517" type="line"/>
      <point x="339.36746987951807" y="0.0" type="line"/>
      <point x="427.77710843373495" y="0.0" type="line"/>
      <point x="250.3192771084337" y="267.16265060240966" type="line"/>
      <point x="250.3192771084337" y="233.95180722891564" type="line"/>
      <point x="418.83734939759034" y="486.34939759036143" type="line"/>
      <point x="333.36746987951807" y="486.34939759036143" type="line"/>
      <point x="208.1144578313253" y="283.6807228915663" type="line"/>
      <point x="235.8614457831325" y="283.6807228915663" type="line"/>
      <point x="111.25301204819277" y="486.34939759036143" type="line"/>
      <point x="22.843373493975903" y="486.34939759036143" type="line"/>
      <point x="191.42168674698794" y="231.89156626506022" type="line"/>
      <point x="191.42168674698794" y="270.2228915662651" type="line"/>
    </contour>
  </outline>
</glyph>
<glyph name="y" format="2">
  <advance width="429.6927710843374"/>
  <unicode hex="0079"/>
  <anchor x="324.4457831325301" y="0.0" name="bottom"/>
  <anchor x="215.6987951807229" y="484.0" name="top"/>
  <outline>
    <contour>
      <point x="108.37951807228914" y="-180.0" type="line"/>
      <point x="185.855421686747" y="-180.0" type="line"/>
      <point x="418.9096385542169" y="486.34939759036143" type="line"/>
      <point x="344.60843373493975" y="486.34939759036143" type="line"/>
      <point x="205.2289156626506" y="57.234939759036145" type="line"/>
      <point x="227.8132530120482" y="57.234939759036145" type="line"/>
      <point x="89.37349397590361" y="486.34939759036143" type="line"/>
      <point x="10.25301204819277" y="486.34939759036143" type="line"/>
      <point x="188.1325301204819" y="-22.650602409638555" type="line"/>
      <point x="188.1325301204819" y="26.80120481927711" type="line"/>
    </contour>
  </outline>
</glyph>
<glyph name="z" format="2">
  <advance width="388.51807228915663"/>
  <unicode hex="007A"/>
  <anchor x="199.81927710843374" y="0.0" name="bottom"/>
  <anchor x="199.81927710843374" y="484.0" name="top"/>
  <outline>
    <contour>
      <point x="48.83132530120482" y="0.0" type="line"/>
      <point x="360.04216867469876" y="0.0" type="line"/>
      <point x="360.04216867469876" y="56.903614457831324" type="line"/>
      <point x="114.43373493975903" y="56.903614457831324" type="line"/>
      <point x="114.43373493975903" y="36.68072289156627" type="line"/>
      <point x="350.2771084337349" y="437.0301204819277" type="line"/>
      <point x="350.2771084337349" y="486.34939759036143" type="line"/>
      <point x="48.83132530120482" y="486.34939759036143" type="line"/>
      <point x="48.83132530120482" y="429.4457831325301" type="line"/>
      <point x="283.5" y="429.4457831325301" type="line"/>
      <point x="283.5" y="450.1385542168675" type="line"/>
      <point x="48.83132530120482" y="49.31927710843373" type="line"/>
    </contour>
  </outline>
</glyph>
<glyph name="braceleft" format="2">
  <advance width="303.5421686746988"/>
  <unicode hex="007B"/>
  <outline>
    <contour>
      <point x="210.1566265060241" y="-180.0" type="curve" smooth="yes"/>
      <point x="290.7228915662651" y="-180.0" type="line"/>
      <point x="290.7228915662651" y="-122.09638554216868" type="line"/>
      <point x="236.1265060240964" y="-122.09638554216868" type="line" smooth="yes"/>
      <point x="211.1265060240964" y="-122.09638554216868"/>
      <point x="196.65662650602408" y="-105.56626506024097"/>
      <point x="196.65662650602408" y="-75.2710843373494" type="curve" smooth="yes"/>
      <point x="196.65662650602408" y="159.42168674698794" type="line" smooth="yes"/>
      <point x="196.65662650602408" y="219.36144578313252"/>
      <point x="166.5421686746988" y="264.5301204819277"/>
      <point x="120.07831325301204" y="264.5301204819277" type="curve"/>
      <point x="120.07831325301204" y="260.5301204819277" type="line"/>
      <point x="166.5421686746988" y="260.5301204819277"/>
      <point x="196.65662650602408" y="306.1686746987952"/>
      <point x="196.65662650602408" y="366.10843373493975" type="curve" smooth="yes"/>
      <point x="196.65662650602408" y="600.2710843373494" type="line" smooth="yes"/>
      <point x="196.65662650602408" y="630.5662650602409"/>
      <point x="211.1265060240964" y="647.0963855421686"/>
      <point x="236.1265060240964" y="647.0963855421686" type="curve" smooth="yes"/>
      <point x="290.7228915662651" y="647.0963855421686" type="line"/>
      <point x="290.7228915662651" y="705.0" type="line"/>
      <point x="210.1566265060241" y="705.0" type="line" smooth="yes"/>
      <point x="155.28915662650604" y="705.0"/>
      <point x="122.94578313253012" y="668.8915662650602"/>
      <point x="122.94578313253012" y="605.7289156626506" type="curve" smooth="yes"/>
      <point x="122.94578313253012" y="373.5120481927711" type="line" smooth="yes"/>
      <point x="122.94578313253012" y="317.98192771084337"/>
      <point x="108.59036144578313" y="295.9216867469879"/>
      <point x="67.11445783132531" y="292.68674698795184" type="curve" smooth="yes"/>
      <point x="43.83132530120482" y="290.7469879518072" type="line"/>
      <point x="43.83132530120482" y="234.78313253012047" type="line"/>
      <point x="67.11445783132531" y="232.84337349397592" type="line" smooth="yes"/>
      <point x="108.59036144578313" y="229.60843373493975"/>
      <point x="122.94578313253012" y="207.3132530120482"/>
      <point x="122.94578313253012" y="152.25301204819277" type="curve" smooth="yes"/>
      <point x="122.94578313253012" y="-80.72891566265059" type="line" smooth="yes"/>
      <point x="122.94578313253012" y="-143.89156626506025"/>
      <point x="155.28915662650604" y="-180.0"/>
    </contour>
  </outline>
</glyph>
<glyph name="bar" format="2">
  <advance width="232.32530120481928"/>
  <unicode hex="007C"/>
  <outline>
    <contour>
      <point x="79.30722891566265" y="-180.0" type="line"/>
      <point x="153.01807228915663" y="-180.0" type="line"/>
      <point x="153.01807228915663" y="705.0" type="line"/>
      <point x="79.30722891566265" y="705.0" type="line"/>
    </contour>
  </outline>
</glyph>
<glyph name="braceright" format="2">
  <advance width="303.5421686746988"/>
  <unicode hex="007D"/>
  <outline>
    <contour>
      <point x="12.819277108433736" y="-180.0" type="line"/>
      <point x="93.62048192771084" y="-180.0" type="line" smooth="yes"/>
      <point x="148.4879518072289" y="-180.0"/>
      <point x="180.83132530120483" y="-143.89156626506022"/>
      <point x="180.83132530120483" y="-80.72891566265059" type="curve" smooth="yes"/>
      <point x="180.83132530120483" y="152.25301204819277" type="line" smooth="yes"/>
      <point x="180.83132530120483" y="207.3132530120482"/>
      <point x="194.95180722891567" y="229.60843373493978"/>
      <point x="236.4277108433735" y="232.84337349397592" type="curve" smooth="yes"/>
      <point x="259.9457831325301" y="234.78313253012047" type="line"/>
      <point x="259.9457831325301" y="290.7469879518072" type="line"/>
      <point x="236.4277108433735" y="292.68674698795184" type="line" smooth="yes"/>
      <point x="194.95180722891567" y="295.6867469879518"/>
      <point x="180.83132530120483" y="317.98192771084337"/>
      <point x="180.83132530120483" y="373.5120481927711" type="curve" smooth="yes"/>
      <point x="180.83132530120483" y="605.7289156626506" type="line" smooth="yes"/>
      <point x="180.83132530120483" y="668.8915662650602"/>
      <point x="148.4879518072289" y="705.0"/>
      <point x="93.62048192771084" y="705.0" type="curve" smooth="yes"/>
      <point x="12.819277108433736" y="705.0" type="line"/>
      <point x="12.819277108433736" y="647.0963855421686" type="line"/>
      <point x="67.8855421686747" y="647.0963855421686" type="line" smooth="yes"/>
      <point x="92.65060240963855" y="647.0963855421686"/>
      <point x="107.12048192771084" y="630.5662650602409"/>
      <point x="107.12048192771084" y="600.2710843373494" type="curve" smooth="yes"/>
      <point x="107.12048192771084" y="366.10843373493975" type="line" smooth="yes"/>
      <point x="107.12048192771084" y="306.1686746987952"/>
      <point x="137.46987951807228" y="260.5301204819277"/>
      <point x="183.46385542168676" y="260.5301204819277" type="curve"/>
      <point x="183.46385542168676" y="264.5301204819277" type="line"/>
      <point x="137.46987951807228" y="264.5301204819277"/>
      <point x="107.12048192771084" y="219.59638554216866"/>
      <point x="107.12048192771084" y="159.42168674698794" type="curve" smooth="yes"/>
      <point x="107.12048192771084" y="-75.2710843373494" type="line" smooth="yes"/>
      <point x="107.12048192771084" y="-105.56626506024097"/>
      <point x="92.65060240963855" y="-122.09638554216868"/>
      <point x="67.8855421686747" y="-122.09638554216868" type="curve" smooth="yes"/>
      <point x="12.819277108433736" y="-122.09638554216868" type="line"/>
    </contour>
  </outline>
</glyph>
<glyph name="asciitilde" format="2">
  <advance width="498.0"/>
  <unicode hex="007E"/>
  <outline>
    <contour>
      <point x="345.65060240963857" y="218.42168674698794" type="curve" smooth="yes"/>
      <point x="400.76506024096386" y="218.42168674698794"/>
      <point x="444.6445783132531" y="254.94578313253012"/>
      <point x="466.0" y="316.2951807228916" type="curve"/>
      <point x="423.54819277108436" y="337.7530120481928" type="line"/>
      <point x="410.4879518072289" y="298.39759036144574"/>
      <point x="380.1867469879518" y="273.6867469879518"/>
      <point x="346.71084337349396" y="273.6867469879518" type="curve" smooth="yes"/>
      <point x="311.9397590361446" y="273.6867469879518"/>
      <point x="279.289156626506" y="299.39759036144574"/>
      <point x="257.17469879518075" y="315.63253012048193" type="curve" smooth="yes"/>
      <point x="219.17469879518072" y="343.7530120481928"/>
      <point x="188.17469879518072" y="355.8132530120482"/>
      <point x="154.34939759036146" y="355.8132530120482" type="curve" smooth="yes"/>
      <point x="97.23493975903615" y="355.8132530120482"/>
      <point x="53.59036144578313" y="320.0542168674699"/>
      <point x="32.0" y="257.7048192771084" type="curve"/>
      <point x="76.62650602409639" y="236.48192771084337" type="line"/>
      <point x="89.27710843373494" y="276.3674698795181"/>
      <point x="117.8132530120482" y="300.31325301204816"/>
      <point x="153.05421686746988" y="300.31325301204816" type="curve" smooth="yes"/>
      <point x="186.29518072289156" y="300.31325301204816"/>
      <point x="215.12048192771084" y="277.66265060240966"/>
      <point x="238.23493975903614" y="261.6626506024096" type="curve" smooth="yes"/>
      <point x="281.5903614457831" y="230.7168674698795"/>
      <point x="311.8253012048193" y="218.42168674698794"/>
    </contour>
  </outline>
</glyph>
<glyph name="exclamdown" format="2">
  <advance width="199.8012048192771"/>
  <unicode hex="00A1"/>
  <outline>
    <contour>
      <point x="53.903614457831324" y="-180.0" type="line"/>
      <point x="146.13253012048193" y="-180.0" type="line"/>
      <point x="122.855421686747" y="306.67469879518075" type="line"/>
      <point x="77.18072289156626" y="306.67469879518075" type="line"/>
    </contour>
    <contour>
      <point x="54.48192771084337" y="392.57228915662654" type="line"/>
      <point x="145.55421686746988" y="392.57228915662654" type="line"/>
      <point x="145.55421686746988" y="486.34939759036143" type="line"/>
      <point x="54.48192771084337" y="486.34939759036143" type="line"/>
    </contour>
  </outline>
</glyph>
<glyph name="cent" format="2">
  <advance width="498.0"/>
  <unicode hex="00A2"/>
  <outline>
    <contour>
      <point x="233.66265060240963" y="-115.0" type="line"/>
      <point x="295.0361445783132" y="-115.0" type="line"/>
      <point x="295.0361445783132" y="11.933734939759036" type="line"/>
      <point x="274.0481927710843" y="-6.0" type="line"/>
      <point x="330.86746987951807" y="-5.234939759036145"/>
      <point x="383.15662650602405" y="15.295180722891567"/>
      <point x="415.9216867469879" y="48.71084337349397" type="curve"/>
      <point x="388.5783132530121" y="101.67469879518072" type="line"/>
      <point x="358.9879518072289" y="70.90361445783132"/>
      <point x="319.98795180722897" y="55.13855421686747"/>
      <point x="278.2168674698795" y="55.13855421686747" type="curve" smooth="yes"/>
      <point x="194.96385542168673" y="55.13855421686747"/>
      <point x="153.13253012048193" y="116.855421686747"/>
      <point x="153.13253012048193" y="243.40963855421685" type="curve" smooth="yes"/>
      <point x="153.13253012048193" y="368.7289156626506"/>
      <point x="193.72891566265062" y="431.4457831325301"/>
      <point x="277.98192771084337" y="431.4457831325301" type="curve" smooth="yes"/>
      <point x="320.9879518072289" y="431.4457831325301"/>
      <point x="360.04819277108436" y="415.15060240963857"/>
      <point x="389.34337349397595" y="384.14457831325296" type="curve"/>
      <point x="415.9216867469879" y="437.6385542168675" type="line"/>
      <point x="383.9216867469879" y="471.5240963855422"/>
      <point x="331.3975903614458" y="491.8192771084337"/>
      <point x="273.51807228915663" y="492.34939759036143" type="curve"/>
      <point x="295.0361445783132" y="467.2951807228916" type="line"/>
      <point x="295.0361445783132" y="606.1144578313254" type="line"/>
      <point x="233.66265060240963" y="606.1144578313254" type="line"/>
      <point x="233.66265060240963" y="465.00602409638554" type="line"/>
      <point x="245.66265060240963" y="489.5301204819277" type="line"/>
      <point x="139.0120481927711" y="480.1867469879518"/>
      <point x="77.71686746987952" y="391.89156626506025"/>
      <point x="77.71686746987952" y="244.17469879518072" type="curve" smooth="yes"/>
      <point x="77.71686746987952" y="93.45783132530121"/>
      <point x="138.71686746987953" y="5.927710843373495"/>
      <point x="247.13253012048193" y="-3.6506024096385543" type="curve"/>
      <point x="233.66265060240963" y="14.283132530120481" type="line"/>
    </contour>
  </outline>
</glyph>
<glyph name="sterling" format="2">
  <advance width="498.0"/>
  <unicode hex="00A3"/>
  <outline>
    <contour>
      <point x="38.41566265060241" y="0.0" type="line"/>
      <point x="449.51807228915663" y="0.0" type="line"/>
      <point x="449.51807228915663" y="63.66265060240964" type="line"/>
      <point x="192.66867469879517" y="63.66265060240964" type="line"/>
      <point x="192.66867469879517" y="324.01807228915663" type="line"/>
      <point x="335.6265060240964" y="324.01807228915663" type="line"/>
      <point x="335.6265060240964" y="382.15662650602405" type="line"/>
      <point x="192.66867469879517" y="382.15662650602405" type="line"/>
      <point x="192.66867469879517" y="528.8373493975903" type="line" smooth="yes"/>
      <point x="192.66867469879517" y="610.6867469879518"/>
      <point x="223.2710843373494" y="650.4518072289156"/>
      <point x="296.63253012048193" y="650.4518072289156" type="curve" smooth="yes"/>
      <point x="352.0542168674699" y="650.4518072289156"/>
      <point x="394.76506024096386" y="630.6265060240964"/>
      <point x="433.29518072289164" y="588.0903614457832" type="curve"/>
      <point x="460.2831325301205" y="644.9939759036145" type="line"/>
      <point x="420.1084337349398" y="688.8795180722892"/>
      <point x="358.578313253012" y="713.9397590361446"/>
      <point x="294.8192771084337" y="713.9397590361446" type="curve" smooth="yes"/>
      <point x="177.89156626506022" y="713.9397590361446"/>
      <point x="117.54819277108435" y="654.3012048192771"/>
      <point x="117.54819277108435" y="525.8975903614457" type="curve" smooth="yes"/>
      <point x="117.54819277108435" y="382.15662650602405" type="line"/>
      <point x="38.41566265060241" y="382.15662650602405" type="line"/>
      <point x="38.41566265060241" y="324.01807228915663" type="line"/>
      <point x="117.54819277108435" y="324.01807228915663" type="line"/>
      <point x="117.54819277108435" y="63.66265060240964" type="line"/>
      <point x="38.41566265060241" y="63.66265060240964" type="line"/>
    </contour>
  </outline>
</glyph>
<glyph name="currency" format="2">
  <advance width="498.0"/>
  <unicode hex="00A4"/>
  <outline>
    <contour>
      <point x="54.81927710843374" y="4.596385542168674" type="line"/>
      <point x="120.34939759036143" y="72.59638554216868" type="line"/>
      <point x="155.1144578313253" y="46.00602409638554"/>
      <point x="200.17469879518072" y="30.94578313253012"/>
      <point x="249.23493975903617" y="30.94578313253012" type="curve" smooth="yes"/>
      <point x="298.06024096385545" y="30.94578313253012"/>
      <point x="343.355421686747" y="47.00602409638554"/>
      <point x="378.12048192771084" y="73.36144578313252" type="curve"/>
      <point x="443.6506024096385" y="4.596385542168674" type="line"/>
      <point x="479.10843373493975" y="35.81927710843374" type="line"/>
      <point x="412.8132530120482" y="105.87951807228916" type="line"/>
      <point x="443.6385542168674" y="143.1144578313253"/>
      <point x="461.6987951807229" y="191.644578313253"/>
      <point x="461.6987951807229" y="244.70481927710844" type="curve" smooth="yes"/>
      <point x="461.6987951807229" y="298.0"/>
      <point x="443.6385542168674" y="345.0"/>
      <point x="413.578313253012" y="381.23493975903614" type="curve"/>
      <point x="478.8734939759036" y="450.76506024096386" type="line"/>
      <point x="443.65060240963857" y="481.7530120481928" type="line"/>
      <point x="379.12048192771084" y="413.7530120481928" type="line"/>
      <point x="344.12048192771084" y="440.34337349397595"/>
      <point x="299.06024096385545" y="455.40361445783134"/>
      <point x="249.23493975903617" y="455.40361445783134" type="curve" smooth="yes"/>
      <point x="199.40963855421685" y="455.40361445783134"/>
      <point x="155.1144578313253" y="439.5783132530121"/>
      <point x="119.34939759036145" y="412.9879518072289" type="curve"/>
      <point x="54.58433734939759" y="481.51807228915663" type="line"/>
      <point x="19.12650602409639" y="451.0" type="line"/>
      <point x="85.6566265060241" y="381.46987951807233" type="line"/>
      <point x="54.831325301204814" y="344.0"/>
      <point x="36.77108433734939" y="296.70481927710847"/>
      <point x="36.77108433734939" y="243.17469879518072" type="curve" smooth="yes"/>
      <point x="36.77108433734939" y="189.87951807228913"/>
      <point x="55.06626506024096" y="142.34939759036146"/>
      <point x="85.6566265060241" y="105.5843373493976" type="curve"/>
      <point x="19.12650602409639" y="35.81927710843374" type="line"/>
    </contour>
    <contour>
      <point x="249.23493975903617" y="87.73493975903615" type="curve" smooth="yes"/>
      <point x="162.0421686746988" y="86.96987951807229"/>
      <point x="96.09036144578313" y="155.74698795180723"/>
      <point x="96.09036144578313" y="242.40963855421685" type="curve" smooth="yes"/>
      <point x="96.09036144578313" y="329.54216867469876"/>
      <point x="161.80722891566268" y="399.84939759036143"/>
      <point x="249.23493975903617" y="399.0843373493976" type="curve" smooth="yes"/>
      <point x="336.6626506024096" y="398.08433734939763"/>
      <point x="402.37951807228916" y="330.83734939759034"/>
      <point x="402.37951807228916" y="243.93975903614458" type="curve" smooth="yes"/>
      <point x="402.37951807228916" y="157.5120481927711"/>
      <point x="336.6626506024096" y="88.5"/>
    </contour>
  </outline>
</glyph>
<glyph name="yen" format="2">
  <advance width="498.0"/>
  <unicode hex="00A5"/>
  <outline>
    <contour>
      <point x="211.4397590361446" y="0.0" type="line"/>
      <point x="286.5602409638554" y="0.0" type="line"/>
      <point x="286.5602409638554" y="180.25301204819277" type="line"/>
      <point x="434.28915662650604" y="180.25301204819277" type="line"/>
      <point x="434.28915662650604" y="235.74698795180723" type="line"/>
      <point x="286.5602409638554" y="235.74698795180723" type="line"/>
      <point x="286.5602409638554" y="328.078313253012" type="line"/>
      <point x="434.28915662650604" y="328.078313253012" type="line"/>
      <point x="434.28915662650604" y="384.3373493975904" type="line"/>
      <point x="306.7951807228916" y="384.3373493975904" type="line"/>
      <point x="306.7951807228916" y="372.6385542168675" type="line"/>
      <point x="497.9277108433736" y="705.0" type="line"/>
      <point x="417.16265060240966" y="705.0" type="line"/>
      <point x="239.9457831325301" y="383.8433734939759" type="line"/>
      <point x="258.5843373493976" y="383.8433734939759" type="line"/>
      <point x="81.30722891566265" y="705.0" type="line"/>
      <point x="0.07228915662650592" y="705.0" type="line"/>
      <point x="191.67469879518072" y="372.6385542168675" type="line"/>
      <point x="191.67469879518072" y="384.3373493975904" type="line"/>
      <point x="63.71084337349397" y="384.3373493975904" type="line"/>
      <point x="63.71084337349397" y="328.078313253012" type="line"/>
      <point x="211.4397590361446" y="328.078313253012" type="line"/>
      <point x="211.4397590361446" y="235.74698795180723" type="line"/>
      <point x="63.71084337349397" y="235.74698795180723" type="line"/>
      <point x="63.71084337349397" y="180.25301204819277" type="line"/>
      <point x="211.4397590361446" y="180.25301204819277" type="line"/>
    </contour>
  </outline>
</glyph>
<glyph name="brokenbar" format="2">
  <advance width="232.32530120481928"/>
  <unicode hex="00A6"/>
  <outline>
    <contour>
      <point x="79.30722891566265" y="372.0" type="line"/>
      <point x="153.01807228915663" y="372.0" type="line"/>
      <point x="153.01807228915663" y="705.0" type="line"/>
      <point x="79.30722891566265" y="705.0" type="line"/>
    </contour>
    <contour>
      <point x="79.30722891566265" y="-180.0" type="line"/>
      <point x="153.01807228915663" y="-180.0" type="line"/>
      <point x="153.01807228915663" y="153.46987951807228" type="line"/>
      <point x="79.30722891566265" y="153.46987951807228" type="line"/>
    </contour>
  </outline>
</glyph>
<glyph name="section" format="2">
  <advance width="456.79518072289164"/>
  <unicode hex="00A7"/>
  <outline>
    <contour>
      <point x="207.22289156626505" y="-188.93975903614458" type="curve" smooth="yes"/>
      <point x="316.7951807228916" y="-188.93975903614458"/>
      <point x="385.90361445783134" y="-121.46987951807229"/>
      <point x="385.90361445783134" y="-13.590361445783131" type="curve" smooth="yes"/>
      <point x="385.90361445783134" y="23.283132530120483"/>
      <point x="377.0843373493976" y="56.80722891566265"/>
      <point x="361.50602409638554" y="75.86144578313254" type="curve"/>
      <point x="355.39156626506025" y="54.403614457831324" type="line"/>
      <point x="395.84939759036143" y="88.22289156626506"/>
      <point x="419.3734939759036" y="141.16265060240966"/>
      <point x="419.3734939759036" y="197.86144578313252" type="curve" smooth="yes"/>
      <point x="419.3734939759036" y="268.21084337349396"/>
      <point x="383.6686746987952" y="321.7349397590362"/>
      <point x="303.3132530120482" y="367.4457831325301" type="curve" smooth="yes"/>
      <point x="215.44578313253012" y="417.0301204819277" type="line" smooth="yes"/>
      <point x="172.37951807228916" y="441.8012048192771"/>
      <point x="143.01807228915663" y="476.5722891566265"/>
      <point x="143.01807228915663" y="539.7650602409639" type="curve" smooth="yes"/>
      <point x="143.01807228915663" y="611.8433734939758"/>
      <point x="181.84939759036143" y="655.7951807228915"/>
      <point x="247.86144578313255" y="655.7951807228915" type="curve" smooth="yes"/>
      <point x="295.86746987951807" y="655.7951807228915"/>
      <point x="346.3975903614458" y="636.2048192771085"/>
      <point x="379.98192771084337" y="604.5542168674698" type="curve"/>
      <point x="401.855421686747" y="657.2289156626506" type="line"/>
      <point x="366.6265060240964" y="691.8192771084338"/>
      <point x="308.0421686746988" y="713.4096385542168"/>
      <point x="247.69277108433735" y="713.4096385542168" type="curve" smooth="yes"/>
      <point x="139.5301204819277" y="713.4096385542168"/>
      <point x="71.36144578313252" y="645.7048192771084"/>
      <point x="71.36144578313252" y="538.0602409638554" type="curve" smooth="yes"/>
      <point x="71.36144578313252" y="501.1867469879518"/>
      <point x="80.18072289156626" y="467.66265060240966"/>
      <point x="95.75903614457832" y="448.6084337349398" type="curve"/>
      <point x="101.87349397590361" y="470.06626506024094" type="line"/>
      <point x="61.41566265060241" y="436.2469879518072"/>
      <point x="37.89156626506024" y="383.3072289156627"/>
      <point x="37.89156626506024" y="326.6084337349398" type="curve" smooth="yes"/>
      <point x="37.89156626506024" y="251.6686746987952"/>
      <point x="78.95180722891565" y="199.67469879518072"/>
      <point x="153.95180722891567" y="157.02409638554218" type="curve" smooth="yes"/>
      <point x="241.81927710843374" y="107.43975903614457" type="line" smooth="yes"/>
      <point x="292.00602409638554" y="78.60843373493975"/>
      <point x="314.2469879518072" y="40.48192771084338"/>
      <point x="314.2469879518072" y="-14.825301204819276" type="curve" smooth="yes"/>
      <point x="314.2469879518072" y="-87.8433734939759"/>
      <point x="274.4759036144578" y="-131.32530120481928"/>
      <point x="208.46385542168676" y="-131.32530120481928" type="curve" smooth="yes"/>
      <point x="158.81325301204822" y="-131.32530120481928"/>
      <point x="104.99397590361446" y="-109.855421686747"/>
      <point x="72.58433734939759" y="-77.49999999999999" type="curve"/>
      <point x="51.41566265060241" y="-131.34939759036146" type="line"/>
      <point x="85.23493975903615" y="-166.87951807228913"/>
      <point x="144.289156626506" y="-188.93975903614458"/>
    </contour>
    <contour>
      <point x="104.96385542168674" y="340.1867469879518" type="curve" smooth="yes"/>
      <point x="104.96385542168674" y="375.2530120481928"/>
      <point x="115.08433734939759" y="405.9638554216868"/>
      <point x="135.7951807228916" y="430.78915662650604" type="curve"/>
      <point x="109.57228915662651" y="429.9096385542169" type="line"/>
      <point x="125.4578313253012" y="402.7831325301205"/>
      <point x="154.52409638554215" y="375.48192771084337"/>
      <point x="190.24096385542168" y="354.4156626506024" type="curve" smooth="yes"/>
      <point x="265.46385542168673" y="311.8313253012048" type="line" smooth="yes"/>
      <point x="327.8855421686747" y="276.0"/>
      <point x="352.30120481927713" y="237.87951807228916"/>
      <point x="352.30120481927713" y="184.2831325301205" type="curve" smooth="yes"/>
      <point x="352.30120481927713" y="149.21686746987953"/>
      <point x="342.1807228915663" y="118.50602409638554"/>
      <point x="321.4698795180723" y="93.68072289156628" type="curve"/>
      <point x="347.6927710843373" y="94.56024096385543" type="line"/>
      <point x="331.8072289156626" y="121.6867469879518"/>
      <point x="302.50602409638554" y="149.22289156626508"/>
      <point x="267.0240963855422" y="170.05421686746988" type="curve" smooth="yes"/>
      <point x="191.8012048192771" y="212.63855421686748" type="line" smooth="yes"/>
      <point x="130.90963855421685" y="247.4698795180723"/>
      <point x="104.96385542168674" y="284.29518072289153"/>
    </contour>
  </outline>
</glyph>
<glyph name="copyright" format="2">
  <advance width="671.0602409638554"/>
  <unicode hex="00A9"/>
  <outline>
    <contour>
      <point x="335.5301204819277" y="-8.939759036144578" type="curve" smooth="yes"/>
      <point x="512.7048192771084" y="-8.939759036144578"/>
      <point x="632.8192771084337" y="135.76506024096386"/>
      <point x="632.8192771084337" y="353.0" type="curve" smooth="yes"/>
      <point x="632.8192771084337" y="569.4698795180723"/>
      <point x="513.4698795180723" y="713.9397590361446"/>
      <point x="335.5301204819277" y="713.9397590361446" type="curve" smooth="yes"/>
      <point x="158.355421686747" y="713.9397590361446"/>
      <point x="38.24096385542168" y="569.2349397590361"/>
      <point x="38.24096385542168" y="352.0" type="curve" smooth="yes"/>
      <point x="38.24096385542168" y="135.53012048192772"/>
      <point x="157.59036144578315" y="-8.939759036144578"/>
    </contour>
    <contour>
      <point x="341.34939759036143" y="136.53012048192772" type="curve" smooth="yes"/>
      <point x="391.87951807228916" y="136.53012048192772"/>
      <point x="435.4096385542168" y="154.06024096385542"/>
      <point x="461.8192771084337" y="183.8855421686747" type="curve"/>
      <point x="439.8253012048193" y="227.03614457831324" type="line"/>
      <point x="415.17469879518075" y="203.0301204819277"/>
      <point x="388.1686746987952" y="190.96987951807228"/>
      <point x="351.4578313253012" y="190.96987951807228" type="curve" smooth="yes"/>
      <point x="276.855421686747" y="190.96987951807228"/>
      <point x="242.31927710843374" y="241.39156626506022"/>
      <point x="242.31927710843374" y="352.4698795180723" type="curve" smooth="yes"/>
      <point x="242.31927710843374" y="463.3734939759036"/>
      <point x="277.62048192771084" y="514.0301204819276"/>
      <point x="354.22289156626505" y="514.0301204819276" type="curve" smooth="yes"/>
      <point x="388.28915662650604" y="514.0301204819276"/>
      <point x="413.9397590361446" y="503.2048192771084"/>
      <point x="440.06024096385545" y="478.1987951807229" type="curve"/>
      <point x="461.8192771084337" y="522.0542168674699" type="line"/>
      <point x="435.8795180722891" y="551.644578313253"/>
      <point x="393.1144578313253" y="568.4698795180723"/>
      <point x="343.5843373493976" y="568.4698795180723" type="curve" smooth="yes"/>
      <point x="235.76506024096383" y="568.4698795180723"/>
      <point x="177.00602409638554" y="493.06024096385545"/>
      <point x="177.00602409638554" y="352.2349397590362" type="curve" smooth="yes"/>
      <point x="177.00602409638554" y="212.40963855421688"/>
      <point x="235.0" y="136.53012048192772"/>
    </contour>
    <contour>
      <point x="335.5301204819277" y="32.403614457831324" type="curve" smooth="yes"/>
      <point x="182.644578313253" y="32.403614457831324"/>
      <point x="81.7590361445783" y="157.64457831325302"/>
      <point x="81.7590361445783" y="352.0" type="curve" smooth="yes"/>
      <point x="81.7590361445783" y="546.355421686747"/>
      <point x="182.644578313253" y="672.5963855421686"/>
      <point x="335.5301204819277" y="672.5963855421686" type="curve" smooth="yes"/>
      <point x="488.88554216867465" y="672.5963855421686"/>
      <point x="589.3012048192771" y="547.355421686747"/>
      <point x="589.3012048192771" y="353.0" type="curve" smooth="yes"/>
      <point x="589.3012048192771" y="158.64457831325302"/>
      <point x="488.88554216867465" y="32.403614457831324"/>
    </contour>
  </outline>
</glyph>
<glyph name="ordfeminine" format="2">
  <advance width="273.9277108433735"/>
  <unicode hex="00AA"/>
  <outline>
    <contour>
      <point x="116.41566265060241" y="411.355421686747" type="curve" smooth="yes"/>
      <point x="157.47590361445782" y="411.355421686747"/>
      <point x="187.1867469879518" y="438.83132530120486"/>
      <point x="198.95180722891567" y="488.89156626506025" type="curve"/>
      <point x="194.83132530120483" y="488.89156626506025" type="line"/>
      <point x="194.83132530120483" y="416.355421686747" type="line"/>
      <point x="242.6265060240964" y="416.355421686747" type="line"/>
      <point x="242.6265060240964" y="607.0060240963855" type="line" smooth="yes"/>
      <point x="242.6265060240964" y="680.355421686747"/>
      <point x="211.16265060240966" y="713.9397590361446"/>
      <point x="144.34939759036143" y="713.9397590361446" type="curve" smooth="yes"/>
      <point x="106.06024096385542" y="713.9397590361446"/>
      <point x="63.00602409638554" y="701.1746987951807"/>
      <point x="32.30120481927711" y="680.7048192771084" type="curve"/>
      <point x="51.06024096385542" y="644.1927710843373" type="line"/>
      <point x="73.29518072289157" y="661.2530120481928"/>
      <point x="106.76506024096386" y="671.7831325301205"/>
      <point x="136.29518072289156" y="671.7831325301205" type="curve" smooth="yes"/>
      <point x="177.83132530120483" y="671.7831325301205"/>
      <point x="193.65662650602408" y="656.0722891566265"/>
      <point x="193.65662650602408" y="608.5903614457831" type="curve" smooth="yes"/>
      <point x="193.65662650602408" y="534.5361445783133" type="line" smooth="yes"/>
      <point x="193.65662650602408" y="486.05421686746985"/>
      <point x="165.29518072289156" y="449.6927710843374"/>
      <point x="127.34337349397592" y="449.6927710843374" type="curve" smooth="yes"/>
      <point x="96.27710843373494" y="449.6927710843374"/>
      <point x="74.80120481927712" y="471.8734939759036"/>
      <point x="74.80120481927712" y="503.17469879518075" type="curve" smooth="yes"/>
      <point x="74.80120481927712" y="540.7710843373494"/>
      <point x="100.04216867469879" y="552.8313253012049"/>
      <point x="182.1265060240964" y="552.8313253012049" type="curve" smooth="yes"/>
      <point x="203.6566265060241" y="552.8313253012049" type="line"/>
      <point x="203.6566265060241" y="585.8795180722891" type="line"/>
      <point x="177.36746987951807" y="585.8795180722891" type="line" smooth="yes"/>
      <point x="68.53614457831326" y="585.8795180722891"/>
      <point x="24.30120481927711" y="561.7048192771084"/>
      <point x="24.30120481927711" y="503.1746987951807" type="curve" smooth="yes"/>
      <point x="24.30120481927711" y="450.2349397590362"/>
      <point x="64.47590361445782" y="411.355421686747"/>
    </contour>
  </outline>
</glyph>
<glyph name="logicalnot" format="2">
  <advance width="498.0"/>
  <unicode hex="00AC"/>
  <outline>
    <contour>
      <point x="405.91566265060237" y="168.47590361445785" type="line"/>
      <point x="466.0" y="168.47590361445785" type="line"/>
      <point x="466.0" y="417.10240963855426" type="line"/>
      <point x="32.0" y="417.10240963855426" type="line"/>
      <point x="32.0" y="360.95783132530124" type="line"/>
      <point x="405.91566265060237" y="360.95783132530124" type="line"/>
    </contour>
  </outline>
</glyph>
<glyph name="registered" format="2">
  <advance width="671.0602409638554"/>
  <unicode hex="00AE"/>
  <outline>
    <contour>
      <point x="335.5301204819277" y="-8.939759036144578" type="curve" smooth="yes"/>
      <point x="513.9397590361446" y="-8.939759036144578"/>
      <point x="632.8192771084337" y="137.0"/>
      <point x="632.8192771084337" y="353.0" type="curve" smooth="yes"/>
      <point x="632.8192771084337" y="569.0"/>
      <point x="513.9397590361446" y="713.9397590361446"/>
      <point x="335.5301204819277" y="713.9397590361446" type="curve" smooth="yes"/>
      <point x="157.12048192771087" y="713.9397590361446"/>
      <point x="38.24096385542168" y="568.0"/>
      <point x="38.24096385542168" y="352.0" type="curve" smooth="yes"/>
      <point x="38.24096385542168" y="136.0"/>
      <point x="157.12048192771084" y="-8.939759036144578"/>
    </contour>
    <contour>
      <point x="335.5301204819277" y="32.403614457831324" type="curve" smooth="yes"/>
      <point x="182.17469879518072" y="32.403614457831324"/>
      <point x="81.7590361445783" y="158.1144578313253"/>
      <point x="81.7590361445783" y="352.0" type="curve" smooth="yes"/>
      <point x="81.7590361445783" y="545.8855421686746"/>
      <point x="182.17469879518072" y="672.5963855421686"/>
      <point x="335.5301204819277" y="672.5963855421686" type="curve" smooth="yes"/>
      <point x="489.355421686747" y="672.5963855421686"/>
      <point x="589.3012048192771" y="546.8855421686746"/>
      <point x="589.3012048192771" y="353.0" type="curve" smooth="yes"/>
      <point x="589.3012048192771" y="159.1144578313253"/>
      <point x="489.355421686747" y="32.403614457831324"/>
    </contour>
    <contour>
      <point x="215.36746987951807" y="141.76506024096386" type="line"/>
      <point x="274.51204819277103" y="141.76506024096386" type="line"/>
      <point x="274.51204819277103" y="325.30120481927713" type="line"/>
      <point x="267.1626506024096" y="317.95180722891564" type="line"/>
      <point x="320.0602409638554" y="317.95180722891564" type="line" smooth="yes"/>
      <point x="350.6566265060241" y="317.95180722891564"/>
      <point x="364.77710843373495" y="306.8313253012048"/>
      <point x="377.7228915662651" y="271.23493975903614" type="curve" smooth="yes"/>
      <point x="421.61445783132535" y="141.76506024096386" type="line"/>
      <point x="486.16867469879514" y="141.76506024096386" type="line"/>
      <point x="436.3915662650603" y="275.89156626506025" type="line" smooth="yes"/>
      <point x="423.27108433734946" y="311.421686746988"/>
      <point x="406.15662650602405" y="328.1265060240964"/>
      <point x="382.6927710843373" y="328.1265060240964" type="curve"/>
      <point x="353.0542168674699" y="320.7168674698795" type="line"/>
      <point x="425.933734939759" y="320.7168674698795"/>
      <point x="474.57831325301197" y="366.8313253012048"/>
      <point x="474.57831325301197" y="442.41566265060237" type="curve" smooth="yes"/>
      <point x="474.57831325301197" y="518.8253012048192"/>
      <point x="428.7590361445783" y="563.9397590361446"/>
      <point x="352.34939759036143" y="563.9397590361446" type="curve" smooth="yes"/>
      <point x="215.36746987951807" y="563.9397590361446" type="line"/>
    </contour>
    <contour>
      <point x="274.5120481927711" y="363.04819277108436" type="line"/>
      <point x="274.5120481927711" y="517.433734939759" type="line"/>
      <point x="346.12048192771084" y="517.433734939759" type="line" smooth="yes"/>
      <point x="390.36746987951807" y="517.433734939759"/>
      <point x="416.3734939759036" y="489.9578313253012"/>
      <point x="416.3734939759036" y="442.00602409638554" type="curve" smooth="yes"/>
      <point x="416.3734939759036" y="392.28915662650604"/>
      <point x="390.36746987951807" y="363.04819277108436"/>
      <point x="346.12048192771084" y="363.04819277108436" type="curve" smooth="yes"/>
    </contour>
  </outline>
</glyph>
<glyph name="degree" format="2">
  <advance width="346.5783132530121"/>
  <unicode hex="00B0"/>
  <outline>
    <contour>
      <point x="173.52409638554218" y="441.6024096385542" type="curve" smooth="yes"/>
      <point x="251.28313253012047" y="441.6024096385542"/>
      <point x="310.3373493975904" y="500.71686746987956"/>
      <point x="310.3373493975904" y="578.0060240963855" type="curve" smooth="yes"/>
      <point x="310.3373493975904" y="655.0602409638554"/>
      <point x="251.5180722891566" y="714.1746987951807"/>
      <point x="173.52409638554218" y="714.1746987951807" type="curve" smooth="yes"/>
      <point x="95.29518072289156" y="714.1746987951807"/>
      <point x="36.475903614457835" y="654.8253012048193"/>
      <point x="36.475903614457835" y="578.0060240963855" type="curve" smooth="yes"/>
      <point x="36.475903614457835" y="500.9518072289157"/>
      <point x="95.53012048192771" y="441.6024096385542"/>
    </contour>
    <contour>
      <point x="173.52409638554218" y="490.7590361445783" type="curve" smooth="yes"/>
      <point x="124.75301204819277" y="490.7590361445783"/>
      <point x="90.80722891566265" y="527.7048192771084"/>
      <point x="90.80722891566265" y="578.0060240963855" type="curve" smooth="yes"/>
      <point x="90.80722891566265" y="628.0722891566264"/>
      <point x="124.75301204819277" y="665.0180722891565"/>
      <point x="173.52409638554218" y="665.0180722891565" type="curve" smooth="yes"/>
      <point x="222.06024096385542" y="665.0180722891565"/>
      <point x="255.77108433734938" y="628.0722891566264"/>
      <point x="255.77108433734938" y="578.0060240963855" type="curve" smooth="yes"/>
      <point x="255.77108433734938" y="527.7048192771084"/>
      <point x="222.06024096385542" y="490.7590361445783"/>
    </contour>
  </outline>
</glyph>
<glyph name="plusminus" format="2">
  <advance width="498.0"/>
  <unicode hex="00B1"/>
  <outline>
    <contour>
      <point x="218.9578313253012" y="116.6867469879518" type="line"/>
      <point x="279.04216867469876" y="116.6867469879518" type="line"/>
      <point x="279.04216867469876" y="300.00602409638554" type="line"/>
      <point x="466.0" y="300.00602409638554" type="line"/>
      <point x="466.0" y="355.6807228915663" type="line"/>
      <point x="279.04216867469876" y="355.6807228915663" type="line"/>
      <point x="279.04216867469876" y="536.8253012048192" type="line"/>
      <point x="218.9578313253012" y="536.8253012048192" type="line"/>
      <point x="218.9578313253012" y="355.6807228915663" type="line"/>
      <point x="32.0" y="355.6807228915663" type="line"/>
      <point x="32.0" y="300.00602409638554" type="line"/>
      <point x="218.9578313253012" y="300.00602409638554" type="line"/>
    </contour>
    <contour>
      <point x="32.0" y="0.0" type="line"/>
      <point x="466.0" y="0.0" type="line"/>
      <point x="466.0" y="56.14457831325301" type="line"/>
      <point x="32.0" y="56.14457831325301" type="line"/>
    </contour>
  </outline>
</glyph>
<glyph name="micro" format="2">
  <advance width="468.6265060240964"/>
  <unicode hex="00B5"/>
  <outline>
    <contour>
      <point x="63.0722891566265" y="-180.0" type="line"/>
      <point x="136.78313253012047" y="-180.0" type="line"/>
      <point x="129.25903614457832" y="69.8433734939759" type="line"/>
      <point x="116.9578313253012" y="69.8433734939759" type="line"/>
      <point x="133.60843373493978" y="13.771084337349398"/>
      <point x="168.56024096385542" y="-8.939759036144578"/>
      <point x="215.39759036144576" y="-8.939759036144578" type="curve" smooth="yes"/>
      <point x="277.65060240963857" y="-8.939759036144578"/>
      <point x="320.7831325301205" y="30.831325301204817"/>
      <point x="338.6686746987952" y="95.2409638554217" type="curve"/>
      <point x="332.7228915662651" y="95.2409638554217" type="line"/>
      <point x="332.7228915662651" y="0.0" type="line"/>
      <point x="404.2590361445783" y="0.0" type="line"/>
      <point x="404.2590361445783" y="486.34939759036143" type="line"/>
      <point x="330.5481927710843" y="486.34939759036143" type="line"/>
      <point x="330.5481927710843" y="181.5843373493976" type="line" smooth="yes"/>
      <point x="330.5481927710843" y="99.91566265060241"/>
      <point x="280.355421686747" y="53.13855421686747"/>
      <point x="217.57228915662648" y="53.13855421686747" type="curve" smooth="yes"/>
      <point x="168.5" y="53.13855421686747"/>
      <point x="136.78313253012047" y="77.84939759036145"/>
      <point x="136.78313253012047" y="165.16867469879517" type="curve" smooth="yes"/>
      <point x="136.78313253012047" y="486.34939759036143" type="line"/>
      <point x="63.0722891566265" y="486.34939759036143" type="line"/>
    </contour>
  </outline>
</glyph>
<glyph name="paragraph" format="2">
  <advance width="495.6024096385542"/>
  <unicode hex="00B6"/>
  <outline>
    <contour>
      <point x="200.52409638554218" y="-180.0" type="line"/>
      <point x="260.1385542168675" y="-180.0" type="line"/>
      <point x="260.1385542168675" y="648.9156626506024" type="line"/>
      <point x="361.68072289156623" y="648.9156626506024" type="line"/>
      <point x="361.68072289156623" y="-180.0" type="line"/>
      <point x="421.29518072289153" y="-180.0" type="line"/>
      <point x="421.29518072289153" y="705.0" type="line"/>
      <point x="201.99397590361446" y="705.0" type="line" smooth="yes"/>
      <point x="103.00602409638554" y="705.0"/>
      <point x="30.951807228915662" y="626.2409638554217"/>
      <point x="30.951807228915662" y="510.4879518072289" type="curve" smooth="yes"/>
      <point x="30.951807228915662" y="395.2048192771084"/>
      <point x="103.00602409638554" y="315.7409638554217"/>
      <point x="200.52409638554218" y="315.7409638554217" type="curve"/>
    </contour>
  </outline>
</glyph>
<glyph name="periodcentered" format="2">
  <advance width="199.8012048192771"/>
  <unicode hex="00B7"/>
  <outline>
    <contour>
      <point x="54.48192771084337" y="218.90361445783134" type="line"/>
      <point x="145.55421686746988" y="218.90361445783134" type="line"/>
      <point x="145.55421686746988" y="312.6807228915663" type="line"/>
      <point x="54.48192771084337" y="312.6807228915663" type="line"/>
    </contour>
  </outline>
</glyph>
<glyph name="ordmasculine" format="2">
  <advance width="282.8072289156626"/>
  <unicode hex="00BA"/>
  <outline>
    <contour>
      <point x="141.63855421686748" y="411.5903614457831" type="curve" smooth="yes"/>
      <point x="214.9277108433735" y="411.5903614457831"/>
      <point x="262.09638554216866" y="461.0602409638554"/>
      <point x="262.09638554216866" y="563.0" type="curve" smooth="yes"/>
      <point x="262.09638554216866" y="664.4698795180723"/>
      <point x="214.9277108433735" y="713.9397590361446"/>
      <point x="141.63855421686748" y="713.9397590361446" type="curve" smooth="yes"/>
      <point x="67.87951807228916" y="713.9397590361446"/>
      <point x="20.710843373493976" y="664.4698795180723"/>
      <point x="20.710843373493976" y="563.0" type="curve" smooth="yes"/>
      <point x="20.710843373493976" y="461.0602409638554"/>
      <point x="67.87951807228916" y="411.5903614457831"/>
    </contour>
    <contour>
      <point x="141.63855421686748" y="453.921686746988" type="curve" smooth="yes"/>
      <point x="98.86194578313253" y="453.921686746988"/>
      <point x="71.9156626506024" y="484.2831325301205"/>
      <point x="71.9156626506024" y="563.0" type="curve" smooth="yes"/>
      <point x="71.9156626506024" y="640.9518072289156"/>
      <point x="98.86194578313253" y="671.3132530120481"/>
      <point x="141.63855421686748" y="671.3132530120481" type="curve" smooth="yes"/>
      <point x="183.94528313253014" y="671.3132530120481"/>
      <point x="210.89156626506025" y="640.9518072289156"/>
      <point x="210.89156626506025" y="563.0" type="curve" smooth="yes"/>
      <point x="210.89156626506025" y="484.28313253012044"/>
      <point x="183.94528313253014" y="453.921686746988"/>
    </contour>
  </outline>
</glyph>
<glyph name="questiondown" format="2">
  <advance width="372.98192771084337"/>
  <unicode hex="00BF"/>
  <outline>
    <contour>
      <point x="180.34337349397592" y="-188.4698795180723" type="curve" smooth="yes"/>
      <point x="252.69277108433735" y="-188.4698795180723"/>
      <point x="322.57228915662654" y="-158.644578313253"/>
      <point x="365.9216867469879" y="-110.28915662650603" type="curve"/>
      <point x="340.99397590361446" y="-52.975903614457835" type="line"/>
      <point x="293.99397590361446" y="-100.21686746987952"/>
      <point x="245.75301204819274" y="-122.86746987951807"/>
      <point x="192.6265060240964" y="-122.86746987951807" type="curve" smooth="yes"/>
      <point x="131.55421686746988" y="-122.86746987951807"/>
      <point x="99.4277108433735" y="-90.74096385542168"/>
      <point x="99.4277108433735" y="-31.07831325301205" type="curve" smooth="yes"/>
      <point x="99.4277108433735" y="9.753012048192772"/>
      <point x="115.01807228915663" y="46.1144578313253"/>
      <point x="156.14457831325302" y="105.42168674698796" type="curve" smooth="yes"/>
      <point x="217.74698795180723" y="195.43975903614458"/>
      <point x="219.74698795180726" y="231.90963855421685"/>
      <point x="219.74698795180726" y="282.09638554216866" type="curve" smooth="yes"/>
      <point x="219.74698795180726" y="307.144578313253" type="line"/>
      <point x="174.77710843373495" y="307.144578313253" type="line"/>
      <point x="172.83734939759034" y="284.96987951807233" type="line" smooth="yes"/>
      <point x="168.66265060240966" y="230.9578313253012"/>
      <point x="158.66265060240966" y="209.54819277108433"/>
      <point x="103.53614457831324" y="137.23493975903617" type="curve" smooth="yes"/>
      <point x="43.6566265060241" y="63.638554216867476"/>
      <point x="23.716867469879517" y="19.10843373493976"/>
      <point x="23.716867469879517" y="-38.596385542168676" type="curve" smooth="yes"/>
      <point x="23.716867469879517" y="-133.4156626506024"/>
      <point x="81.29518072289156" y="-188.4698795180723"/>
    </contour>
    <contour>
      <point x="151.84337349397592" y="392.57228915662654" type="line"/>
      <point x="242.68072289156626" y="392.57228915662654" type="line"/>
      <point x="242.68072289156626" y="486.34939759036143" type="line"/>
      <point x="151.84337349397592" y="486.34939759036143" type="line"/>
    </contour>
  </outline>
</glyph>
<glyph name="AE" format="2">
  <advance width="809.7469879518072"/>
  <unicode hex="00C6"/>
  <anchor x="399.23493975903614" y="0.0" name="bottom"/>
  <anchor x="398.7048192771084" y="705.0" name="top"/>
  <outline>
    <contour>
      <point x="-10.445783132530122" y="0.0" type="line"/>
      <point x="68.08433734939759" y="0.0" type="line"/>
      <point x="163.32530120481928" y="203.06626506024097" type="line"/>
      <point x="135.8132530120482" y="183.13855421686748" type="line"/>
      <point x="451.0542168674699" y="183.13855421686748" type="line"/>
      <point x="424.8915662650602" y="204.18072289156626" type="line"/>
      <point x="459.4216867469879" y="0.0" type="line"/>
      <point x="762.9819277108434" y="0.0" type="line"/>
      <point x="762.9819277108434" y="62.48795180722892" type="line"/>
      <point x="494.09638554216866" y="62.48795180722892" type="line"/>
      <point x="522.9036144578313" y="36.734939759036145" type="line"/>
      <point x="471.6626506024096" y="344.65060240963857" type="line"/>
      <point x="453.3192771084337" y="326.3734939759036" type="line"/>
      <point x="746.5120481927711" y="326.3734939759036" type="line"/>
      <point x="746.5120481927711" y="388.8614457831325" type="line"/>
      <point x="440.210843373494" y="388.8614457831325" type="line"/>
      <point x="467.7228915662651" y="368.5240963855422" type="line"/>
      <point x="416.95180722891564" y="670.7409638554217" type="line"/>
      <point x="400.31927710843377" y="642.5120481927711" type="line"/>
      <point x="762.9819277108434" y="642.5120481927711" type="line"/>
      <point x="762.9819277108434" y="705.0" type="line"/>
      <point x="329.1385542168675" y="705.0" type="line"/>
    </contour>
    <contour>
      <point x="355.0" y="613.0" type="line"/>
      <point x="356.0" y="613.0" type="line"/>
      <point x="421.18674698795184" y="227.34939759036143" type="line"/>
      <point x="433.4698795180723" y="245.6265060240964" type="line"/>
      <point x="170.96385542168676" y="245.6265060240964" type="line"/>
      <point x="174.31927710843374" y="227.93373493975903" type="line"/>
    </contour>
  </outline>
</glyph>
<glyph name="multiply" format="2">
  <advance width="498.0"/>
  <unicode hex="00D7"/>
  <outline>
    <contour>
      <point x="82.62650602409639" y="79.0" type="line"/>
      <point x="249.0" y="245.84337349397592" type="line"/>
      <point x="415.3734939759036" y="79.0" type="line"/>
      <point x="454.4698795180723" y="117.09638554216868" type="line"/>
      <point x="287.09638554216866" y="284.4698795180723" type="line"/>
      <point x="454.4698795180723" y="452.31325301204816" type="line"/>
      <point x="415.3734939759036" y="490.8795180722891" type="line"/>
      <point x="249.0" y="324.2710843373494" type="line"/>
      <point x="82.62650602409639" y="490.8795180722891" type="line"/>
      <point x="43.53012048192771" y="452.31325301204816" type="line"/>
      <point x="210.90361445783134" y="284.4698795180723" type="line"/>
      <point x="43.53012048192771" y="117.09638554216868" type="line"/>
    </contour>
  </outline>
</glyph>
<glyph name="Thorn" format="2">
  <advance width="528.2710843373494"/>
  <unicode hex="00DE"/>
  <anchor x="270.28313253012044" y="0.0" name="bottom"/>
  <anchor x="270.51807228915663" y="705.0" name="top"/>
  <outline>
    <contour>
      <point x="74.30722891566265" y="0.0" type="line"/>
      <point x="149.4277108433735" y="0.0" type="line"/>
      <point x="149.4277108433735" y="155.42168674698794" type="line"/>
      <point x="300.39156626506025" y="155.42168674698794" type="line" smooth="yes"/>
      <point x="424.21084337349396" y="155.42168674698794"/>
      <point x="496.7951807228916" y="232.94578313253012"/>
      <point x="496.7951807228916" y="365.7048192771084" type="curve" smooth="yes"/>
      <point x="496.7951807228916" y="498.69879518072287"/>
      <point x="424.9759036144578" y="575.7530120481928"/>
      <point x="300.39156626506025" y="575.7530120481928" type="curve" smooth="yes"/>
      <point x="149.4277108433735" y="575.7530120481928" type="line"/>
      <point x="149.4277108433735" y="705.0" type="line"/>
      <point x="74.30722891566265" y="705.0" type="line"/>
    </contour>
    <contour>
      <point x="149.4277108433735" y="217.43975903614458" type="line"/>
      <point x="149.4277108433735" y="513.734939759036" type="line"/>
      <point x="290.40361445783134" y="513.734939759036" type="line" smooth="yes"/>
      <point x="376.5421686746988" y="513.734939759036"/>
      <point x="422.49397590361446" y="461.3132530120482"/>
      <point x="422.49397590361446" y="365.7048192771084" type="curve" smooth="yes"/>
      <point x="422.49397590361446" y="270.09638554216866"/>
      <point x="376.5421686746988" y="217.43975903614458"/>
      <point x="290.40361445783134" y="217.43975903614458" type="curve" smooth="yes"/>
    </contour>
  </outline>
</glyph>
<glyph name="germandbls" format="2">
  <advance width="516.0722891566265"/>
  <unicode hex="00DF"/>
  <outline>
    <contour>
      <point x="334.3734939759036" y="-8.939759036144578" type="curve" smooth="yes"/>
      <point x="426.12650602409644" y="-8.939759036144578"/>
      <point x="488.41566265060237" y="45.99397590361446"/>
      <point x="488.41566265060237" y="138.1024096385542" type="curve" smooth="yes"/>
      <point x="488.41566265060237" y="206.3728734939759"/>
      <point x="453.429234939759" y="250.58156626506025"/>
      <point x="371.76506024096386" y="277.8614457831325" type="curve" smooth="yes"/>
      <point x="311.1799518072289" y="297.9377530120482"/>
      <point x="285.9277108433735" y="320.60159638554217"/>
      <point x="285.9277108433735" y="363.4096385542169" type="curve" smooth="yes"/>
      <point x="285.9277108433735" y="391.9457831325301"/>
      <point x="297.7851445783133" y="412.3744518072289"/>
      <point x="334.2289156626506" y="454.066265060241" type="curve" smooth="yes"/>
      <point x="365.1950542168675" y="490.4931987951807"/>
      <point x="395.65060240963857" y="522.4542469879518"/>
      <point x="395.65060240963857" y="583.777108433735" type="curve" smooth="yes"/>
      <point x="395.65060240963857" y="666.3554216867469"/>
      <point x="344.66265060240966" y="713.9397590361446"/>
      <point x="247.74096385542165" y="713.9397590361446" type="curve" smooth="yes"/>
      <point x="130.59036144578315" y="713.9397590361446"/>
      <point x="64.83734939759036" y="643.5361445783133"/>
      <point x="64.83734939759036" y="509.078313253012" type="curve" smooth="yes"/>
      <point x="64.83734939759036" y="0.0" type="line"/>
      <point x="138.54819277108433" y="0.0" type="line"/>
      <point x="138.54819277108433" y="517.066265060241" type="line" smooth="yes"/>
      <point x="138.54819277108433" y="609.0240963855422"/>
      <point x="174.0843373493976" y="655.1506024096385"/>
      <point x="246.62650602409641" y="655.1506024096385" type="curve" smooth="yes"/>
      <point x="300.3205542168675" y="655.1506024096385"/>
      <point x="325.7590361445783" y="630.6746987951807"/>
      <point x="325.7590361445783" y="579.3132530120482" type="curve" smooth="yes"/>
      <point x="325.7590361445783" y="537.0079879518072"/>
      <point x="307.87236144578316" y="514.8340180722892"/>
      <point x="279.98192771084337" y="483.5903614457831" type="curve" smooth="yes"/>
      <point x="242.21496987951807" y="441.3023674698795"/>
      <point x="217.91566265060243" y="408.421686746988"/>
      <point x="217.91566265060243" y="354.4759036144578" type="curve" smooth="yes"/>
      <point x="217.91566265060243" y="292.2619518072289"/>
      <point x="251.26286746987955" y="251.87396987951806"/>
      <point x="335.2710843373494" y="222.1867469879518" type="curve" smooth="yes"/>
      <point x="397.4823795180723" y="200.4089457831325"/>
      <point x="420.10843373493975" y="176.82530120481928"/>
      <point x="420.10843373493975" y="131.8132530120482" type="curve" smooth="yes"/>
      <point x="420.10843373493975" y="79.68072289156628"/>
      <point x="386.45180722891564" y="49.78915662650602"/>
      <point x="330.84939759036143" y="49.78915662650602" type="curve" smooth="yes"/>
      <point x="288.1987951807229" y="49.78915662650602"/>
      <point x="245.43373493975903" y="67.84939759036145"/>
      <point x="208.55421686746988" y="100.144578313253" type="curve"/>
      <point x="187.3855421686747" y="47.825301204819276" type="line"/>
      <point x="220.50000000000003" y="13.295180722891567"/>
      <point x="276.2590361445783" y="-8.939759036144578"/>
    </contour>
  </outline>
</glyph>
<glyph name="ae" format="2">
  <advance width="708.5843373493976"/>
  <unicode hex="00E6"/>
  <anchor x="346.65060240963857" y="0.0" name="bottom"/>
  <anchor x="346.65060240963857" y="484.0" name="top"/>
  <outline>
    <contour>
      <point x="195.82530120481925" y="-8.939759036144578" type="curve" smooth="yes"/>
      <point x="276.0" y="-8.939759036144578"/>
      <point x="335.11445783132535" y="48.71084337349397"/>
      <point x="349.5301204819277" y="142.25301204819277" type="curve"/>
      <point x="333.5903614457832" y="142.25301204819277" type="line"/>
      <point x="355.93975903614455" y="42.596385542168676"/>
      <point x="418.9939759036144" y="-8.939759036144578"/>
      <point x="512.1144578313254" y="-8.939759036144578" type="curve" smooth="yes"/>
      <point x="568.8795180722891" y="-8.939759036144578"/>
      <point x="622.5240963855422" y="11.35542168674699"/>
      <point x="665.6927710843374" y="49.65060240963855" type="curve"/>
      <point x="638.8192771084338" y="101.96987951807229" type="line"/>
      <point x="604.8192771084338" y="69.02409638554217"/>
      <point x="561.644578313253" y="51.7289156626506"/>
      <point x="513.9939759036145" y="51.7289156626506" type="curve" smooth="yes"/>
      <point x="425.0963855421687" y="51.7289156626506"/>
      <point x="382.9096385542169" y="110.6867469879518"/>
      <point x="382.9096385542169" y="233.59638554216866" type="curve" smooth="yes"/>
      <point x="382.9096385542169" y="248.93373493975903" type="line" smooth="yes"/>
      <point x="382.9096385542169" y="371.1867469879518"/>
      <point x="422.6867469879518" y="439.14457831325296"/>
      <point x="503.2951807228916" y="439.14457831325296" type="curve" smooth="yes"/>
      <point x="574.3734939759036" y="439.14457831325296"/>
      <point x="607.2650602409639" y="384.6024096385542"/>
      <point x="607.2650602409639" y="264.3433734939759" type="curve"/>
      <point x="620.7349397590361" y="280.51807228915663" type="line"/>
      <point x="370.56024096385545" y="280.51807228915663" type="line"/>
      <point x="370.56024096385545" y="229.60240963855424" type="line"/>
      <point x="671.1626506024097" y="229.60240963855424" type="line"/>
      <point x="671.1626506024097" y="262.5903614457831" type="line" smooth="yes"/>
      <point x="671.1626506024097" y="414.4698795180723"/>
      <point x="610.933734939759" y="495.28915662650604"/>
      <point x="503.0602409638554" y="495.28915662650604" type="curve" smooth="yes"/>
      <point x="428.7530120481928" y="495.28915662650604"/>
      <point x="370.6385542168675" y="449.63253012048193"/>
      <point x="345.933734939759" y="359.84939759036143" type="curve"/>
      <point x="363.7530120481928" y="359.84939759036143" type="line"/>
      <point x="356.93975903614455" y="452.6927710843373"/>
      <point x="315.5903614457831" y="495.28915662650604"/>
      <point x="230.17469879518072" y="495.28915662650604" type="curve" smooth="yes"/>
      <point x="170.8855421686747" y="495.28915662650604"/>
      <point x="107.77710843373494" y="475.05421686746985"/>
      <point x="62.60240963855422" y="441.34939759036143" type="curve"/>
      <point x="88.59036144578313" y="386.26506024096386" type="line"/>
      <point x="131.00602409638554" y="418.1506024096385"/>
      <point x="177.8855421686747" y="434.38554216867465"/>
      <point x="222.1807228915663" y="434.38554216867465" type="curve" smooth="yes"/>
      <point x="289.01807228915663" y="434.38554216867465"/>
      <point x="311.5481927710843" y="396.7289156626506"/>
      <point x="311.5481927710843" y="338.6566265060241" type="curve" smooth="yes"/>
      <point x="311.5481927710843" y="188.53614457831324" type="line" smooth="yes"/>
      <point x="311.5481927710843" y="110.16265060240964"/>
      <point x="266.4759036144578" y="47.90963855421687"/>
      <point x="204.69277108433735" y="47.90963855421687" type="curve" smooth="yes"/>
      <point x="156.3855421686747" y="47.90963855421687"/>
      <point x="121.02409638554215" y="86.03614457831326"/>
      <point x="121.02409638554215" y="142.1686746987952" type="curve" smooth="yes"/>
      <point x="121.02409638554215" y="209.1867469879518"/>
      <point x="169.03614457831324" y="229.60240963855424"/>
      <point x="269.71084337349396" y="229.60240963855424" type="curve" smooth="yes"/>
      <point x="322.9578313253012" y="229.60240963855424" type="line"/>
      <point x="322.9578313253012" y="280.51807228915663" type="line"/>
      <point x="265.6024096385542" y="280.51807228915663" type="line" smooth="yes"/>
      <point x="126.48795180722892" y="280.51807228915663"/>
      <point x="47.367469879518076" y="245.17469879518072"/>
      <point x="47.367469879518076" y="143.75903614457832" type="curve" smooth="yes"/>
      <point x="47.367469879518076" y="54.87951807228916"/>
      <point x="111.42168674698796" y="-8.939759036144578"/>
    </contour>
  </outline>
</glyph>
<glyph name="eth" format="2">
  <advance width="467.74096385542174"/>
  <unicode hex="00F0"/>
  <outline>
    <contour>
      <point x="232.5180722891566" y="-8.939759036144578" type="curve" smooth="yes"/>
      <point x="362.15060240963857" y="-8.939759036144578"/>
      <point x="427.2590361445784" y="79.64457831325302"/>
      <point x="427.2590361445784" y="257.0542168674699" type="curve" smooth="yes"/>
      <point x="427.2590361445784" y="427.18674698795184"/>
      <point x="383.4397590361446" y="545.2530120481928"/>
      <point x="302.66265060240966" y="623.1385542168674" type="curve"/>
      <point x="302.0722891566265" y="614.7289156626506" type="line"/>
      <point x="401.3132530120482" y="669.0843373493976" type="line"/>
      <point x="379.3855421686747" y="714.1746987951808" type="line"/>
      <point x="254.33734939759034" y="646.4156626506024" type="line"/>
      <point x="275.7951807228916" y="645.5963855421687" type="line"/>
      <point x="238.566265060241" y="674.1807228915663"/>
      <point x="190.63855421686748" y="698.6445783132531"/>
      <point x="131.4819277108434" y="714.1746987951808" type="curve"/>
      <point x="117.48795180722891" y="666.3192771084338" type="line"/>
      <point x="159.1867469879518" y="653.7289156626506"/>
      <point x="197.12048192771084" y="635.6144578313254"/>
      <point x="219.48192771084337" y="618.1385542168675" type="curve"/>
      <point x="220.30722891566265" y="628.7831325301205" type="line"/>
      <point x="104.07228915662651" y="565.5481927710844" type="line"/>
      <point x="126.0" y="520.4578313253013" type="line"/>
      <point x="260.8734939759036" y="593.7469879518072" type="line"/>
      <point x="248.45783132530119" y="595.4518072289156" type="line"/>
      <point x="316.13253012048193" y="534.8493975903615"/>
      <point x="356.7168674698795" y="439.421686746988"/>
      <point x="358.0120481927711" y="295.98192771084337" type="curve"/>
      <point x="378.71084337349396" y="295.98192771084337" type="line"/>
      <point x="363.54216867469876" y="405.16265060240966"/>
      <point x="303.7771084337349" y="453.76506024096386"/>
      <point x="219.8855421686747" y="453.76506024096386" type="curve" smooth="yes"/>
      <point x="107.47590361445783" y="453.76506024096386"/>
      <point x="41.18674698795181" y="368.12048192771084"/>
      <point x="41.18674698795181" y="222.0" type="curve" smooth="yes"/>
      <point x="41.18674698795181" y="74.0"/>
      <point x="109.8253012048193" y="-8.939759036144578"/>
    </contour>
    <contour>
      <point x="232.51807228915666" y="50.554216867469876" type="curve" smooth="yes"/>
      <point x="154.90963855421685" y="50.554216867469876"/>
      <point x="115.8975903614458" y="108.09638554216868"/>
      <point x="115.8975903614458" y="222.53012048192772" type="curve" smooth="yes"/>
      <point x="115.8975903614458" y="336.7289156626506"/>
      <point x="155.14457831325302" y="394.03614457831327"/>
      <point x="232.5180722891566" y="394.03614457831327" type="curve" smooth="yes"/>
      <point x="310.3614457831326" y="394.03614457831327"/>
      <point x="349.6084337349398" y="336.7289156626506"/>
      <point x="349.6084337349398" y="222.53012048192772" type="curve" smooth="yes"/>
      <point x="349.6084337349398" y="107.86144578313254"/>
      <point x="310.3614457831326" y="50.554216867469876"/>
    </contour>
  </outline>
</glyph>
<glyph name="divide" format="2">
  <advance width="498.0"/>
  <unicode hex="00F7"/>
  <outline>
    <contour>
      <point x="32.0" y="257.13253012048193" type="line"/>
      <point x="466.0" y="257.13253012048193" type="line"/>
      <point x="466.0" y="313.27710843373495" type="line"/>
      <point x="32.0" y="313.27710843373495" type="line"/>
    </contour>
    <contour>
      <point x="210.54216867469881" y="47.89156626506024" type="line"/>
      <point x="288.22289156626505" y="47.89156626506024" type="line"/>
      <point x="288.22289156626505" y="127.1024096385542" type="line"/>
      <point x="210.54216867469881" y="127.1024096385542" type="line"/>
    </contour>
    <contour>
      <point x="210.54216867469881" y="443.3072289156626" type="line"/>
      <point x="288.22289156626505" y="443.3072289156626" type="line"/>
      <point x="288.22289156626505" y="522.5180722891566" type="line"/>
      <point x="210.54216867469881" y="522.5180722891566" type="line"/>
    </contour>
  </outline>
</glyph>
